<svg width="24" height="24" viewBox="0 0 24 24" fill="none" xmlns="http://www.w3.org/2000/svg">
<path fill-rule="evenodd" clip-rule="evenodd" d="M9.50507 7.00483C9.77843 6.73146 10.2216 6.73146 10.495 7.00483L10.0616 7.43826C10.495 7.00483 10.495 7.00479 10.495 7.00483L10.541 7.0509L10.6691 7.17989C10.7793 7.29106 10.9365 7.45025 11.1251 7.64277C11.502 8.02753 12.0055 8.54674 12.5098 9.08255C13.0124 9.61657 13.5229 10.1746 13.9105 10.6348C14.103 10.8635 14.2753 11.0798 14.4028 11.2631C14.4659 11.3538 14.528 11.4506 14.5772 11.5458C14.6108 11.611 14.7 11.7866 14.7 11.9998C14.7 12.213 14.6108 12.3886 14.5772 12.4538C14.528 12.549 14.4659 12.6458 14.4028 12.7365C14.2753 12.9198 14.103 13.1361 13.9105 13.3648C13.5229 13.825 13.0124 14.383 12.5098 14.9171C12.0055 15.4529 11.502 15.9721 11.1251 16.3568C10.9365 16.5494 10.7793 16.7085 10.6691 16.8197L10.541 16.9487L10.4959 16.9939L10.4951 16.9947C10.495 16.9947 10.495 16.9948 10 16.4998L9.50508 16.0048L9.54896 15.9608L9.67475 15.8342C9.78331 15.7247 9.93859 15.5674 10.125 15.3771C10.4981 14.9963 10.9946 14.4842 11.4903 13.9575C11.9877 13.4291 12.4772 12.8933 12.8396 12.463C12.9944 12.2791 13.1188 12.123 13.2087 11.9998C13.1188 11.8766 12.9944 11.7205 12.8396 11.5366C12.4772 11.1063 11.9877 10.5705 11.4903 10.0421C10.9946 9.51537 10.4981 9.00333 10.125 8.62246C9.93859 8.43217 9.78331 8.27495 9.67475 8.16543L9.54896 8.03879L9.50567 7.99539C9.23231 7.72202 9.2317 7.2782 9.50507 7.00483ZM13.3331 12.1879C13.3403 12.2059 13.3428 12.2068 13.3331 12.1879C13.333 12.1877 13.3332 12.1882 13.3331 12.1879ZM9.50507 16.9948C9.2317 16.7214 9.23172 16.2782 9.50508 16.0048L10 16.4998L10.4951 16.9947C10.2217 17.2681 9.77843 17.2681 9.50507 16.9948Z" fill="#4E4F54"/>
</svg>
