<svg width="21" height="21" viewBox="0 0 21 21" fill="none" xmlns="http://www.w3.org/2000/svg">
<path d="M14 9.5L7 5.5M11.492 4.067L16.492 6.924C16.7983 7.09894 17.0528 7.35176 17.2298 7.65681C17.4069 7.96186 17.5001 8.30831 17.5 8.66101V13.339C17.5001 13.6917 17.4069 14.0381 17.2298 14.3432C17.0528 14.6483 16.7983 14.9011 16.492 15.076L11.492 17.933C11.1899 18.1056 10.8479 18.1964 10.5 18.1964C10.1521 18.1964 9.81013 18.1056 9.508 17.933L4.508 15.076C4.20174 14.9011 3.9472 14.6483 3.77017 14.3432C3.59315 14.0381 3.49994 13.6917 3.5 13.339V8.66101C3.49994 8.30831 3.59315 7.96186 3.77017 7.65681C3.9472 7.35176 4.20174 7.09894 4.508 6.924L9.508 4.067C9.81013 3.89442 10.1521 3.80365 10.5 3.80365C10.8479 3.80365 11.1899 3.89442 11.492 4.067Z" stroke="#545454" stroke-linecap="round" stroke-linejoin="round"/>
<path d="M4 8L9.552 10.99C9.84337 11.1468 10.1691 11.229 10.5 11.229C10.8309 11.229 11.1566 11.1468 11.448 10.99L17 8M10.5 11.5V18" stroke="#545454" stroke-linecap="round" stroke-linejoin="round"/>
</svg>
