<svg width="24" height="24" viewBox="0 0 24 24" fill="none" xmlns="http://www.w3.org/2000/svg">
<g clip-path="url(#clip0_429_1767)">
<path d="M13.6642 10.09H23.0181C23.2886 10.09 23.5079 10.3093 23.5079 10.5798V12.2441C23.5079 12.5147 23.2886 12.7339 23.0181 12.7339H0.979643C0.709127 12.7339 0.489845 12.5147 0.489845 12.2441V10.5798C0.489845 10.3093 0.709127 10.09 0.979643 10.09H11.9989" fill="#CE4500"/>
<path d="M11.9989 12.734C12.729 12.734 13.3209 12.1421 13.3209 11.412C13.3209 10.6819 12.729 10.09 11.9989 10.09C11.2687 10.09 10.6768 10.6819 10.6768 11.412C10.6768 12.1421 11.2687 12.734 11.9989 12.734Z" fill="#FFD940"/>
<path d="M22.2841 12.7349V20.5626C22.2841 21.7854 21.2929 22.7766 20.0701 22.7766H3.92612C2.70333 22.7766 1.71211 21.7854 1.71211 20.5626V12.7349" fill="#ED732F"/>
<path d="M21.9982 10.09C23.5652 6.97881 23.992 4.16325 22.9085 3.53771C21.702 2.84119 19.0806 5.12321 17.0533 8.63472C16.7707 9.12414 16.5147 9.61155 16.2864 10.09H21.9982Z" fill="#FF9D3B"/>
<path d="M14.6817 4.84417C13.5539 3.74894 11.8874 3.5927 10.7827 4.43284C10.6697 4.20587 10.5192 3.99273 10.3301 3.80359C9.39058 2.86407 7.86733 2.86407 6.92781 3.80359C6.9175 3.8139 6.90793 3.82469 6.89776 3.83514V4.57436C6.89776 7.85721 9.12785 7.3015 9.12785 10.09H11.9988H12.1348L14.6817 4.84417Z" fill="#4BDD6B"/>
<path d="M17.1048 8.23535C16.705 7.8356 16.1996 7.60657 15.6785 7.54689C15.7421 7.04861 15.6735 6.52502 15.4775 6.02992L13.5064 10.09H13.6643H16.2865C16.5147 9.61156 16.7708 9.12415 17.0533 8.63472C17.1074 8.54097 17.1621 8.4483 17.217 8.35633C17.1809 8.31513 17.144 8.27458 17.1048 8.23535Z" fill="#4BDD6B"/>
<path d="M9.12789 10.09C9.12789 7.30154 6.89781 7.85729 6.89781 4.57439V1.22339H4.82462V4.57439C4.82462 7.85724 2.59454 7.30154 2.59454 10.09H9.12789Z" fill="#B047AA"/>
<path d="M13.1657 10.7916L17.1508 2.58333H15.7793L12.1316 10.0967L13.1657 10.7916Z" fill="#CE4500"/>
<path d="M23.0181 9.60016H22.7759C24.0258 6.85361 24.5848 3.93995 23.1533 3.11345C22.6025 2.7954 21.6025 2.7151 19.9671 4.1387C18.9989 4.98151 18.0023 6.19033 17.1091 7.59714C16.8313 7.39356 16.5226 7.24192 16.191 7.1493C16.1875 6.78442 16.1252 6.41589 16.0078 6.05889L17.5914 2.79713C17.6651 2.64535 17.6555 2.46633 17.5659 2.32327C17.4763 2.18026 17.3195 2.0934 17.1507 2.0934H15.7792C15.5916 2.0934 15.4205 2.20055 15.3386 2.36926L14.5108 4.07438C13.4175 3.32471 12.0312 3.1996 10.9386 3.75845C10.8584 3.65237 10.7709 3.55177 10.6764 3.45727C10.1295 2.91034 9.40239 2.60916 8.62891 2.60916C8.19231 2.60916 7.77053 2.70521 7.38756 2.88713V1.22339C7.38756 0.952879 7.16828 0.733597 6.89776 0.733597H4.82457C4.55406 0.733597 4.33477 0.952879 4.33477 1.22339V4.5744C4.33477 6.09437 3.84498 6.63686 3.27783 7.26498C2.79062 7.80456 2.24621 8.40846 2.12836 9.60021H0.979643C0.439454 9.60016 0 10.0397 0 10.5798V12.2442C0 12.7843 0.439454 13.2238 0.979643 13.2238H1.22236V20.5626C1.22236 22.0535 2.43526 23.2665 3.92621 23.2665H20.0702C21.561 23.2665 22.774 22.0536 22.774 20.5626V13.2237H23.0182C23.5583 13.2237 23.9978 12.7843 23.9978 12.2441V10.5798C23.9978 10.0397 23.5583 9.60016 23.0181 9.60016ZM20.6103 4.87764C21.6816 3.94515 22.3859 3.80148 22.6635 3.96188C23.2552 4.30342 23.2289 6.4398 21.6941 9.60016H17.08C17.2071 9.3588 17.3398 9.118 17.4775 8.8796C17.5303 8.78814 17.5836 8.69749 17.6374 8.60749H17.6375C17.6377 8.60697 17.638 8.60641 17.6383 8.60589C18.5554 7.07036 19.6036 5.75406 20.6103 4.87764ZM15.2124 7.6975C15.23 7.75188 15.257 7.80325 15.293 7.84905C15.3738 7.95217 15.4926 8.01855 15.6227 8.0335C15.9858 8.07508 16.3199 8.21453 16.6003 8.43977L16.6008 8.43986C16.3808 8.82321 16.1733 9.21199 15.9808 9.60016H14.2886L15.2124 7.6975ZM19.087 13.2237L21.7943 15.9311V18.2758C21.7764 18.2894 21.7588 18.3038 21.7424 18.3202L20.9837 19.079L19.0061 17.1013L19.3805 16.727C19.5717 16.5357 19.5718 16.2255 19.3805 16.0343C19.1891 15.843 18.879 15.843 18.6878 16.0343L18.3134 16.4087L16.3355 14.4308L17.5426 13.2238L19.087 13.2237ZM21.6765 19.7716L21.7943 19.6537V19.8895L21.6765 19.7716ZM8.16452 22.2868L5.65164 19.7739L7.62939 17.7961L9.60705 19.7738L9.27785 20.103C9.0866 20.2942 9.0866 20.6044 9.27785 20.7957C9.37352 20.8914 9.49886 20.9392 9.62421 20.9392C9.74955 20.9392 9.87494 20.8914 9.97057 20.7957L10.2998 20.4665L12.12 22.2868H8.16452ZM2.50407 21.5361C2.31366 21.2588 2.20196 20.9235 2.20196 20.5626V17.8828L2.28854 17.7962L4.26624 19.7739L2.50407 21.5361ZM2.98121 17.1035L4.95896 15.1258L6.93667 17.1035L4.95892 19.0812L2.98121 17.1035ZM6.86097 13.2237H13.7431L14.9502 14.4308L12.9724 16.4085L12.4492 15.8853C12.258 15.6941 11.9478 15.6941 11.7565 15.8853C11.5653 16.0765 11.5653 16.3867 11.7565 16.578L12.2797 17.1012L10.2999 19.0811L8.3222 17.1034L9.97066 15.455C10.1619 15.2637 10.1619 14.9535 9.97066 14.7622C9.77941 14.571 9.46924 14.571 9.27794 14.7622L7.62948 16.4107L5.65178 14.433L6.86097 13.2237ZM4.95896 13.7403L4.44245 13.2237H5.47553L4.95896 13.7403ZM12.9704 21.7517L10.9925 19.7738L12.9724 17.794L14.9502 19.7718L12.9704 21.7517ZM13.6651 17.1012L15.6428 15.1235L17.6207 17.1013L15.6429 19.079L13.6651 17.1012ZM15.643 20.4644L17.4652 22.2867H13.8207L15.643 20.4644ZM16.3357 19.7718L18.3134 17.7941L20.2911 19.7717L18.3134 21.7494L16.3357 19.7718ZM15.6429 13.7381L15.1286 13.2237H16.1571L15.6429 13.7381ZM11.1659 11.4119C11.1659 10.9531 11.5392 10.5798 11.9981 10.5798C12.457 10.5798 12.8303 10.9531 12.8303 11.4119C12.8303 11.8708 12.457 12.2441 11.9981 12.2441C11.5392 12.2441 11.1659 11.8708 11.1659 11.4119ZM16.086 3.07313H16.3685L13.0392 9.93049C12.9698 9.88155 12.8969 9.83749 12.8209 9.79854L16.086 3.07313ZM8.62895 3.58881C9.14069 3.58881 9.62186 3.78812 9.98374 4.14999C10.1303 4.29657 10.2516 4.46523 10.3442 4.65118C10.4093 4.78182 10.5292 4.8767 10.6713 4.90989C10.8134 4.94317 10.9631 4.91115 11.0792 4.82279C11.9165 4.18595 13.1533 4.26165 14.077 4.9682L11.8282 9.60016H9.59411C9.47627 8.40841 8.93186 7.80452 8.44464 7.26494C7.8775 6.63681 7.3877 6.09433 7.3877 4.57435V4.04509C7.73374 3.74973 8.16902 3.58881 8.62895 3.58881ZM6.40801 1.71324V2.06977H5.31442V1.71324H6.40801ZM4.00491 7.92147C4.61874 7.24173 5.31442 6.4712 5.31442 4.5744V3.04937H6.40801V4.5744C6.40801 6.4712 7.10369 7.24169 7.71752 7.92147C8.15158 8.40222 8.50872 8.79775 8.60955 9.60021H3.11283C3.21376 8.79771 3.5708 8.40222 4.00491 7.92147ZM0.979643 10.5798H10.3896C10.26 10.8292 10.1864 11.112 10.1864 11.4119C10.1864 11.7118 10.2601 11.9947 10.3896 12.2441H0.979643V10.5798ZM3.05705 13.2237L4.26629 14.433L2.28854 16.4107L2.20196 16.3242V13.2237L3.05705 13.2237ZM3.26912 22.1564L4.95892 20.4666L6.77903 22.2867H3.92612C3.69357 22.2868 3.47176 22.2402 3.26912 22.1564ZM20.0701 22.2868H19.1613L20.9837 20.4643L21.6851 21.1657C21.4401 21.8198 20.8087 22.2868 20.0701 22.2868ZM21.7943 14.5458L20.4723 13.2237H21.7943V14.5458ZM23.0181 12.2442H13.6067C13.7362 11.9947 13.8099 11.7119 13.8099 11.412C13.8099 11.1985 13.7725 10.9937 13.7044 10.8034L13.813 10.5799H16.2864H21.9982H23.0181V12.2442Z" fill="black"/>
<path d="M20.9815 6.69457C21.0234 6.69457 21.0662 6.68913 21.1086 6.67779L22.0238 6.43258C22.2851 6.3626 22.4402 6.09396 22.3702 5.83272C22.3002 5.57139 22.0316 5.41633 21.7703 5.48636L20.8551 5.73157C20.5938 5.80155 20.4387 6.07019 20.5087 6.33143C20.5674 6.55029 20.7652 6.69457 20.9815 6.69457Z" fill="black"/>
<path d="M19.0408 8.87392C19.0994 9.09278 19.2973 9.23711 19.5136 9.23711C19.5555 9.23711 19.5983 9.23167 19.6407 9.22033L20.5559 8.97512C20.8172 8.90514 20.9723 8.6365 20.9023 8.37526C20.8323 8.11393 20.5636 7.95887 20.3024 8.0289L19.3872 8.27411C19.1258 8.34404 18.9708 8.61269 19.0408 8.87392Z" fill="black"/>
<path d="M10.6556 14.5669C10.781 14.5669 10.9064 14.5191 11.002 14.4234L11.0066 14.4189C11.1978 14.2276 11.1978 13.9175 11.0066 13.7262C10.8153 13.5349 10.5051 13.5349 10.3138 13.7262L10.3093 13.7307C10.118 13.922 10.118 14.2321 10.3093 14.4234C10.405 14.5191 10.5303 14.5669 10.6556 14.5669Z" fill="black"/>
<path d="M8.29492 21.086L8.29038 21.0905C8.09913 21.2818 8.09913 21.5919 8.29038 21.7832C8.38605 21.8789 8.51139 21.9267 8.63674 21.9267C8.76208 21.9267 8.88747 21.8789 8.9831 21.7832L8.98764 21.7787C9.17889 21.5874 9.17889 21.2773 8.98764 21.086C8.79635 20.8947 8.48622 20.8947 8.29492 21.086Z" fill="black"/>
<path d="M19.9435 15.961C20.0688 15.961 20.1942 15.9132 20.2898 15.8175L20.2944 15.813C20.4856 15.6217 20.4856 15.3116 20.2944 15.1203C20.1031 14.929 19.793 14.929 19.6017 15.1203L19.5971 15.1248C19.4059 15.3161 19.4059 15.6262 19.5971 15.8175C19.6928 15.9132 19.8181 15.961 19.9435 15.961Z" fill="black"/>
</g>
<defs>
<clipPath id="clip0_429_1767">
<rect width="24" height="24" fill="white"/>
</clipPath>
</defs>
</svg>
