<svg width="40" height="40" viewBox="0 0 40 40" fill="none" xmlns="http://www.w3.org/2000/svg">
    <path fill-rule="evenodd" clip-rule="evenodd"
        d="M16.2965 35H23.7038C28.9057 35 31.5065 35 33.3748 33.7743C34.1835 33.2437 34.878 32.5618 35.4185 31.7678C36.6668 29.9335 36.6668 27.3798 36.6668 22.2727C36.6668 17.1657 36.6668 14.612 35.4185 12.7777C34.878 11.9836 34.1835 11.3017 33.3748 10.7711C32.1742 9.98355 30.6713 9.70205 28.3702 9.60143C27.272 9.60143 26.3267 8.78447 26.1113 7.72727C25.7882 6.14148 24.37 5 22.723 5H17.2773C15.6302 5 14.2121 6.14148 13.889 7.72727C13.6737 8.78447 12.7282 9.60143 11.6302 9.60143C9.32905 9.70205 7.82608 9.98355 6.62556 10.7711C5.81675 11.3017 5.1223 11.9836 4.58186 12.7777C3.3335 14.612 3.3335 17.1657 3.3335 22.2727C3.3335 27.3798 3.3335 29.9335 4.58186 31.7678C5.1223 32.5618 5.81675 33.2437 6.62556 33.7743C8.4939 35 11.0947 35 16.2965 35ZM20.0002 15.4545C16.1648 15.4545 13.0557 18.5072 13.0557 22.2727C13.0557 26.0383 16.1648 29.0908 20.0002 29.0908C23.8355 29.0908 26.9447 26.0383 26.9447 22.2727C26.9447 18.5072 23.8355 15.4545 20.0002 15.4545ZM20.0002 18.1818C17.699 18.1818 15.8335 20.0133 15.8335 22.2727C15.8335 24.532 17.699 26.3637 20.0002 26.3637C22.3013 26.3637 24.1668 24.532 24.1668 22.2727C24.1668 20.0133 22.3013 18.1818 20.0002 18.1818ZM27.8705 16.8182C27.8705 16.0651 28.4923 15.4545 29.2595 15.4545H31.1113C31.8783 15.4545 32.5002 16.0651 32.5002 16.8182C32.5002 17.5713 31.8783 18.1818 31.1113 18.1818H29.2595C28.4923 18.1818 27.8705 17.5713 27.8705 16.8182Z"
        fill="#949499" />
</svg>
