<svg width="21" height="20" viewBox="0 0 21 20" fill="none" xmlns="http://www.w3.org/2000/svg">
<path fill-rule="evenodd" clip-rule="evenodd" d="M1.13484 8.504C1.13484 3.97295 4.80799 0.299805 9.33904 0.299805H13.3806C17.423 0.299805 20.7 3.57679 20.7 7.61916V11.4498C20.7 15.5091 17.4093 18.7998 13.35 18.7998H10.0131L6.7254 18.7438C5.44085 18.722 4.15952 18.8793 2.9184 19.2113L2.45277 19.3358C1.36881 19.6258 0.397441 18.5939 0.752268 17.5294C1.11305 16.4471 1.28465 15.3106 1.25951 14.17L1.13501 8.51942L1.83484 8.504H1.13484ZM2.53485 8.49647L2.65917 14.1392C2.68785 15.4406 2.49207 16.7372 2.08042 17.9721C2.07975 17.9741 2.07937 17.9756 2.07916 17.9766C2.07969 17.9776 2.08067 17.9791 2.08236 17.9809C2.08405 17.9827 2.0855 17.9838 2.08644 17.9844C2.08746 17.9842 2.08897 17.9839 2.09101 17.9834L2.55665 17.8588C3.92346 17.4932 5.33455 17.32 6.7492 17.344L10.031 17.3998H13.35C16.6361 17.3998 19.3 14.7359 19.3 11.4498V7.61916C19.3 4.34999 16.6498 1.6998 13.3806 1.6998H9.33904C5.5837 1.6998 2.53891 4.74208 2.53485 8.49647Z" fill="#4E4F54"/>
<path d="M8 10C8 10.5523 7.55228 11 7 11C6.44772 11 6 10.5523 6 10C6 9.44772 6.44772 9 7 9C7.55228 9 8 9.44772 8 10Z" fill="#4E4F54"/>
<path d="M12 10C12 10.5523 11.5523 11 11 11C10.4477 11 10 10.5523 10 10C10 9.44772 10.4477 9 11 9C11.5523 9 12 9.44772 12 10Z" fill="#4E4F54"/>
<path d="M16 10C16 10.5523 15.5523 11 15 11C14.4477 11 14 10.5523 14 10C14 9.44772 14.4477 9 15 9C15.5523 9 16 9.44772 16 10Z" fill="#4E4F54"/>
</svg>
