<svg width="16" height="16" viewBox="0 0 16 16" fill="none" xmlns="http://www.w3.org/2000/svg">
<path d="M6.10209 3.60551C6.94651 2.09067 7.36871 1.33325 7.99998 1.33325C8.63125 1.33325 9.05345 2.09067 9.89785 3.6055L10.1163 3.99741C10.3563 4.42787 10.4762 4.64311 10.6634 4.78513C10.8504 4.92714 11.0834 4.97985 11.5494 5.08528L11.9736 5.18127C13.6134 5.55229 14.4333 5.7378 14.6284 6.36507C14.8234 6.99232 14.2645 7.64599 13.1466 8.95319L12.8574 9.29138C12.5397 9.66285 12.3808 9.84858 12.3094 10.0784C12.238 10.3082 12.262 10.556 12.31 11.0517L12.3537 11.5029C12.5227 13.247 12.6072 14.1191 12.0966 14.5067C11.5858 14.8944 10.8182 14.5409 9.28285 13.8341L8.88565 13.6511C8.44938 13.4503 8.23125 13.3498 7.99998 13.3498C7.76871 13.3498 7.55058 13.4503 7.11431 13.6511L6.71711 13.8341C5.18177 14.5409 4.4141 14.8944 3.90341 14.5067C3.39273 14.1191 3.47723 13.247 3.64625 11.5029L3.68997 11.0517C3.738 10.556 3.76201 10.3082 3.69055 10.0784C3.6191 9.84858 3.46027 9.66285 3.14259 9.29138L2.85338 8.95319C1.73548 7.64599 1.17653 6.99232 1.37159 6.36507C1.56666 5.7378 2.38655 5.55229 4.02634 5.18127L4.45057 5.08528C4.91655 4.97985 5.14953 4.92714 5.33661 4.78513C5.52368 4.64311 5.64367 4.42788 5.88363 3.99741L6.10209 3.60551Z" fill="#FDAA30"/>
</svg>
