<svg width="24" height="24" viewBox="0 0 24 24" fill="none" xmlns="http://www.w3.org/2000/svg">
    <path fill-rule="evenodd" clip-rule="evenodd"
        d="M18.1543 6.7676C17.5397 6.70101 16.7405 6.70005 15.6 6.70005H6.29349L6.98291 12.1861C7.10982 13.1959 7.19925 13.9008 7.32401 14.4405C7.44574 14.9672 7.58667 15.2658 7.77476 15.4876C7.91839 15.657 8.08579 15.8046 8.27175 15.926C8.51529 16.085 8.82911 16.1876 9.36686 16.2427C9.91797 16.2992 10.6284 16.3 11.6462 16.3H15.6C16.7405 16.3 17.5397 16.2991 18.1543 16.2325C18.7557 16.1673 19.0968 16.0461 19.3519 15.8608C19.5472 15.7189 19.7189 15.5472 19.8608 15.352C20.0461 15.0969 20.1673 14.7558 20.2325 14.1543C20.2991 13.5397 20.3 12.7406 20.3 11.6V11.4C20.3 10.2595 20.2991 9.46038 20.2325 8.8458C20.1673 8.24433 20.0461 7.90323 19.8608 7.64814C19.7189 7.45289 19.5472 7.28117 19.3519 7.13931C19.0968 6.95398 18.7557 6.83276 18.1543 6.7676ZM18.3051 5.37574C19.0257 5.45381 19.6413 5.61907 20.1748 6.00669C20.4889 6.2349 20.7652 6.51113 20.9934 6.82524C21.381 7.35876 21.5463 7.97441 21.6243 8.69501C21.7 9.39384 21.7 10.269 21.7 11.3594V11.6407C21.7 12.7311 21.7 13.6063 21.6243 14.3051C21.5463 15.0257 21.381 15.6413 20.9934 16.1749C20.7652 16.489 20.4889 16.7652 20.1748 16.9934C19.6413 17.381 19.0257 17.5463 18.3051 17.6244C17.6062 17.7001 16.7311 17.7001 15.6407 17.7H11.6085C10.6373 17.7001 9.85496 17.7001 9.22413 17.6354C8.57179 17.5686 8.01031 17.4272 7.50649 17.0984C7.20734 16.9031 6.93804 16.6655 6.70699 16.3931C6.31786 15.9342 6.10764 15.3947 5.95997 14.7558C5.81717 14.1379 5.71963 13.3617 5.59855 12.3981L4.70654 5.30005L15.6407 5.30005C16.7311 5.30004 17.6062 5.30003 18.3051 5.37574Z"
        fill="white" />
    <path fill-rule="evenodd" clip-rule="evenodd"
        d="M1.30005 4.00005C1.30005 3.61345 1.61345 3.30005 2.00005 3.30005H3.93386C4.53101 3.30005 5.08437 3.61336 5.3916 4.12541L6.60029 6.1399L5.3998 6.8602L4.19111 4.8457C4.13689 4.75534 4.03924 4.70005 3.93386 4.70005H2.00005C1.61345 4.70005 1.30005 4.38665 1.30005 4.00005Z"
        fill="white" />
    <path
        d="M18.5 19.5C18.5 20.0523 18.0523 20.5 17.5 20.5C16.9477 20.5 16.5 20.0523 16.5 19.5C16.5 18.9477 16.9477 18.5 17.5 18.5C18.0523 18.5 18.5 18.9477 18.5 19.5Z"
        fill="white" />
    <path
        d="M11.5 19.5C11.5 20.0523 11.0523 20.5 10.5 20.5C9.94772 20.5 9.5 20.0523 9.5 19.5C9.5 18.9477 9.94772 18.5 10.5 18.5C11.0523 18.5 11.5 18.9477 11.5 19.5Z"
        fill="white" />
    <path fill-rule="evenodd" clip-rule="evenodd"
        d="M18 10.7C18 11.0866 17.6866 11.4 17.3 11.4H14.7C14.3134 11.4 14 11.0866 14 10.7C14 10.3134 14.3134 10 14.7 10H17.3C17.6866 10 18 10.3134 18 10.7Z"
        fill="white" />
</svg>
