<svg width="24" height="24" viewBox="0 0 24 24" fill="none" xmlns="http://www.w3.org/2000/svg">
<g clip-path="url(#clip0_429_1814)">
<path d="M22.0586 4.83629L22.0583 4.83596C21.6231 4.40077 20.9175 4.40077 20.4823 4.83596C20.9175 4.40077 20.9175 3.69521 20.4823 3.26002C19.922 2.69968 18.9724 2.88676 18.6664 3.61777C18.4455 4.14554 18.2246 4.67326 18.0038 5.20093L19.0606 6.25768L20.1177 7.31476C20.6453 7.09397 21.1731 6.87305 21.7008 6.65218C22.4318 6.34627 22.6189 5.39658 22.0586 4.83629Z" fill="#ECF0F1"/>
<path d="M20.5307 17.1034C20.9208 15.9486 20.6649 14.6734 19.8585 13.7593C17.7561 11.3759 13.0244 7.06645 9.18999 7.06645C5.30733 7.06645 2.163 10.2276 2.19019 14.1165C2.21705 17.9564 5.3745 21.0795 9.21441 21.0664C11.1609 21.0598 12.92 20.2583 14.1849 18.97L19.89 18.9998L20.5307 17.1034Z" fill="#F8A805"/>
<path d="M19.84 7.5998L20.1213 7.31846L18 5.19717L17.8409 5.35631C16.5938 6.60333 14.7998 7.25888 13.1548 7.89408C12.7118 8.06508 12.2985 8.33527 11.9487 8.70474C10.7411 9.9803 10.7541 12.0077 11.977 13.2685C13.2625 14.5939 15.3792 14.6061 16.6801 13.3053C17.025 12.9604 17.2775 12.5581 17.4375 12.1293C18.0304 10.5408 18.6411 8.79872 19.84 7.5998Z" fill="#F8A805"/>
<path d="M20.1179 21.0665H3.88219C2.7404 21.0665 1.7084 20.386 1.25864 19.3365L0.500061 18.0665H23.5001L22.7415 19.3365C22.2916 20.386 21.2597 21.0665 20.1179 21.0665Z" fill="#ECF0F1"/>
<path d="M9.18999 8.56645C7.71366 8.56645 6.32756 9.14339 5.28722 10.191C4.24697 11.2386 3.67978 12.629 3.69014 14.1061C3.69206 14.3811 3.91556 14.6026 4.19006 14.6026C4.19124 14.6026 4.19245 14.6026 4.19363 14.6026C4.46977 14.6006 4.6921 14.3752 4.69013 14.0991C4.68169 12.8904 5.1457 11.7528 5.99681 10.8958C6.84802 10.0386 7.98206 9.56653 9.19003 9.56653C9.46617 9.56653 9.69005 9.34261 9.69005 9.06651C9.69005 8.79042 9.46613 8.56645 9.18999 8.56645Z" fill="#231F20"/>
<path d="M13.0537 12.2242C13.3963 12.5774 13.8555 12.7718 14.3467 12.7718C14.8275 12.7718 15.2794 12.5846 15.6194 12.2446C15.8036 12.0603 15.9425 11.8451 16.0323 11.6043L16.1163 11.3787C16.279 10.9415 16.4472 10.4894 16.632 10.037C16.7364 9.78135 16.6138 9.48951 16.3581 9.38512C16.1025 9.28064 15.8106 9.40331 15.7062 9.65901C15.5155 10.126 15.3445 10.5855 15.1792 11.0298L15.0953 11.255C15.0561 11.3602 14.9944 11.4553 14.9123 11.5375C14.7612 11.6885 14.5603 11.7718 14.3467 11.7718C14.1283 11.7718 13.924 11.6852 13.7715 11.5279C13.5792 11.3297 13.2626 11.3249 13.0644 11.5171C12.8663 11.7095 12.8615 12.0261 13.0537 12.2242Z" fill="#231F20"/>
<path d="M22.4116 4.48233C22.1157 4.18636 21.7251 4.01948 21.3081 4.00992C21.2985 3.59292 21.1316 3.20236 20.8357 2.90643C20.4545 2.52529 19.9111 2.35978 19.3822 2.46403C18.8533 2.56818 18.4132 2.92734 18.205 3.42468L17.5859 4.90397L17.4871 5.00273C16.3701 6.11981 14.7551 6.74179 13.1933 7.34334L12.9745 7.42767C12.912 7.45181 12.8505 7.47778 12.7897 7.50497C11.484 6.88158 10.2795 6.56653 9.18984 6.56653C7.17661 6.56653 5.28661 7.35328 3.86794 8.78193C2.44941 10.2104 1.67592 12.1062 1.68999 14.1202C1.6987 15.3639 2.01342 16.5359 2.56059 17.5666H0.499876C0.319923 17.5666 0.153891 17.6633 0.0650163 17.8198C-0.0238118 17.9763 -0.0217024 18.1685 0.0705476 18.323L0.812719 19.5655C1.34906 20.7825 2.54991 21.5666 3.88195 21.5666H20.1177C21.4498 21.5666 22.6506 20.7823 23.187 19.5655L23.929 18.323C24.0213 18.1685 24.0235 17.9763 23.9346 17.8198C23.8458 17.6633 23.6797 17.5666 23.4998 17.5666H20.9017L21.004 17.2635C21.4502 15.9429 21.1548 14.4734 20.2331 13.4286C19.6361 12.7518 18.9563 12.0614 18.2442 11.4007C18.7337 10.1192 19.2874 8.85923 20.1932 7.95351L20.4138 7.73287L21.8935 7.11356C22.3909 6.90539 22.75 6.46532 22.8542 5.93634C22.9584 5.40745 22.793 4.86403 22.4118 4.48284L22.4116 4.48233ZM19.5754 3.44522C19.7797 3.40481 19.9813 3.46631 20.1286 3.61354C20.2447 3.72956 20.3085 3.88383 20.3085 4.04793C20.3085 4.21204 20.2447 4.36636 20.1285 4.48233C20.0309 4.57997 19.9821 4.70793 19.9821 4.83586C19.9821 4.96378 20.0309 5.09175 20.1285 5.18939C20.3238 5.38458 20.6404 5.38458 20.8357 5.18939C20.9518 5.07333 21.106 5.00939 21.2701 5.00939C21.4342 5.00939 21.5884 5.07328 21.7045 5.18939L21.7048 5.18972C21.852 5.3369 21.9134 5.53856 21.8732 5.74289C21.833 5.94717 21.6998 6.11048 21.5076 6.19087L20.2339 6.72398L18.5943 5.08443L19.1274 3.81075C19.2078 3.6187 19.3711 3.48543 19.5754 3.44522ZM17.9956 5.90001L19.4147 7.31911C18.2419 8.53368 17.6112 10.2286 17.0535 11.7276L16.9689 11.9544C16.8287 12.33 16.6125 12.6656 16.3264 12.9517C15.797 13.4811 15.0948 13.7718 14.347 13.7718C14.3397 13.7718 14.3323 13.7718 14.325 13.7717C13.5691 13.7659 12.8626 13.4636 12.3358 12.9204C11.3062 11.8589 11.2954 10.1219 12.3116 9.04842C12.6017 8.74209 12.9459 8.51062 13.3347 8.36048L13.5527 8.27643C15.0534 7.69851 16.7442 7.04728 17.9956 5.90001ZM2.68997 14.113C2.67778 12.3676 3.34814 10.7245 4.57749 9.48647C5.80697 8.24831 7.44502 7.56647 9.18984 7.56647C10.0199 7.56647 10.903 7.78743 11.7968 8.15582C11.7244 8.22154 11.6534 8.28918 11.5854 8.361C10.9124 9.072 10.5451 10.0076 10.5512 10.9953C10.5574 11.983 10.9362 12.9139 11.6179 13.6167C12.3327 14.3538 13.2914 14.764 14.3173 14.7718C14.3273 14.7719 14.3372 14.7719 14.3472 14.7719C15.362 14.7719 16.315 14.3773 17.0335 13.6589C17.3942 13.2982 17.672 12.8783 17.8627 12.411C18.4877 13.0086 19.0385 13.5857 19.4834 14.0901C20.169 14.8674 20.3888 15.9607 20.0568 16.9433V16.9434L19.8463 17.5665H3.71709C3.07533 16.5677 2.69883 15.3833 2.68997 14.113ZM22.2817 19.1395C21.9103 20.0063 21.0608 20.5665 20.1178 20.5665H3.88205C2.93902 20.5665 2.08955 20.0063 1.71806 19.1395C1.7093 19.1191 1.38099 18.5664 1.38099 18.5664H22.6189C22.6188 18.5664 22.2905 19.1191 22.2817 19.1395Z" fill="#231F20"/>
</g>
<defs>
<clipPath id="clip0_429_1814">
<rect width="24" height="24" fill="white"/>
</clipPath>
</defs>
</svg>
