<svg width="40" height="40" viewBox="0 0 40 40" fill="none" xmlns="http://www.w3.org/2000/svg">
<path fill-rule="evenodd" clip-rule="evenodd" d="M16.2962 35H23.7036C28.9054 35 31.5063 35 33.3746 33.7743C34.1833 33.2437 34.8778 32.5618 35.4183 31.7678C36.6666 29.9335 36.6666 27.3798 36.6666 22.2727C36.6666 17.1657 36.6666 14.612 35.4183 12.7777C34.8778 11.9836 34.1833 11.3017 33.3746 10.7711C32.1739 9.98355 30.6711 9.70205 28.3699 9.60143C27.2717 9.60143 26.3264 8.78447 26.1111 7.72727C25.7879 6.14148 24.3698 5 22.7228 5H17.2771C15.63 5 14.2118 6.14148 13.8888 7.72727C13.6735 8.78447 12.728 9.60143 11.6299 9.60143C9.3288 9.70205 7.82584 9.98355 6.62532 10.7711C5.8165 11.3017 5.12205 11.9836 4.58162 12.7777C3.33325 14.612 3.33325 17.1657 3.33325 22.2727C3.33325 27.3798 3.33325 29.9335 4.58162 31.7678C5.12205 32.5618 5.8165 33.2437 6.62532 33.7743C8.49365 35 11.0945 35 16.2962 35ZM19.9999 15.4545C16.1646 15.4545 13.0555 18.5072 13.0555 22.2727C13.0555 26.0383 16.1646 29.0908 19.9999 29.0908C23.8353 29.0908 26.9444 26.0383 26.9444 22.2727C26.9444 18.5072 23.8353 15.4545 19.9999 15.4545ZM19.9999 18.1818C17.6988 18.1818 15.8333 20.0133 15.8333 22.2727C15.8333 24.532 17.6988 26.3637 19.9999 26.3637C22.3011 26.3637 24.1666 24.532 24.1666 22.2727C24.1666 20.0133 22.3011 18.1818 19.9999 18.1818ZM27.8703 16.8182C27.8703 16.0651 28.4921 15.4545 29.2593 15.4545H31.1111C31.8781 15.4545 32.4999 16.0651 32.4999 16.8182C32.4999 17.5713 31.8781 18.1818 31.1111 18.1818H29.2593C28.4921 18.1818 27.8703 17.5713 27.8703 16.8182Z" fill="#22A121"/>
</svg>
