<svg width="24" height="24" viewBox="0 0 24 24" fill="none" xmlns="http://www.w3.org/2000/svg">
<path d="M12 23.2385C17.9398 23.2385 22.755 18.4233 22.755 12.4835C22.755 6.54369 17.9398 1.72852 12 1.72852C6.06017 1.72852 1.245 6.54369 1.245 12.4835C1.245 18.4233 6.06017 23.2385 12 23.2385Z" fill="#D68F30"/>
<path d="M1.97626 15.2773V16.3761C2.08876 16.6667 2.21438 16.9536 2.35126 17.2311V15.2773H1.97626Z" fill="#BC6F00"/>
<path d="M3.20251 17.3457V18.6657C3.35251 18.8776 3.50814 19.0857 3.67126 19.2863V17.3457H3.20251Z" fill="#BC6F00"/>
<path d="M4.82623 19.0708V20.4939C5.00811 20.6571 5.19561 20.8127 5.38873 20.9627V19.0708H4.82623Z" fill="#BC6F00"/>
<path d="M6.82501 20.3813V21.9113C7.00876 22.0126 7.19626 22.1082 7.38751 22.2001V20.3813H6.82501Z" fill="#BC6F00"/>
<path d="M9.09186 21.2158V22.8358C9.27748 22.8883 9.46498 22.9352 9.65436 22.9783V21.2158H9.09186Z" fill="#BC6F00"/>
<path d="M11.745 21.5044V23.2313C11.8294 23.2331 11.9137 23.2369 12 23.2369C12.1031 23.2369 12.2062 23.2313 12.3075 23.2294V21.5044H11.745Z" fill="#BC6F00"/>
<path d="M14.3981 21.2026V22.9651C14.5875 22.922 14.775 22.8733 14.9606 22.8208V21.2026H14.3981Z" fill="#BC6F00"/>
<path d="M16.6594 20.3569V22.1776C16.8506 22.0857 17.0381 21.9863 17.2219 21.8832V20.3569H16.6594Z" fill="#BC6F00"/>
<path d="M18.6525 19.0352V20.9289C18.8455 20.7781 19.0331 20.6205 19.215 20.4564V19.0352H18.6525Z" fill="#BC6F00"/>
<path d="M20.8293 17.3042H20.3606V19.2448C20.5237 19.0423 20.6812 18.8342 20.8293 18.6204V17.3042Z" fill="#BC6F00"/>
<path d="M22.0481 15.2285H21.6731V17.186C21.81 16.9029 21.9356 16.6123 22.0481 16.3179V15.2285Z" fill="#BC6F00"/>
<path d="M12 22.2712C17.9398 22.2712 22.755 17.4561 22.755 11.5162C22.755 5.57641 17.9398 0.76123 12 0.76123C6.06017 0.76123 1.245 5.57641 1.245 11.5162C1.245 17.4561 6.06017 22.2712 12 22.2712Z" fill="#FFF176"/>
<path d="M12 21.313C17.4107 21.313 21.7969 16.9268 21.7969 11.5161C21.7969 6.10545 17.4107 1.71924 12 1.71924C6.58934 1.71924 2.20312 6.10545 2.20312 11.5161C2.20312 16.9268 6.58934 21.313 12 21.313Z" fill="#F2BC1A"/>
<path d="M2.18439 11.8913C2.11501 10.6013 2.33814 9.29256 2.78814 8.06631C3.25689 6.84381 3.97501 5.71318 4.88064 4.75318C6.69939 2.82943 9.33939 1.71381 12 1.70068C14.6606 1.71568 17.3025 2.82943 19.1175 4.75506C20.025 5.71318 20.7413 6.84568 21.21 8.06631C21.6619 9.29443 21.885 10.6013 21.8138 11.8913H21.7763C21.7726 10.6044 21.5178 9.33062 21.0263 8.14131C20.5339 6.95334 19.8148 5.87261 18.9094 4.95943C18.0034 4.04716 16.9267 3.32213 15.7406 2.82568C14.555 2.33065 13.283 2.07576 11.9981 2.07576C10.7133 2.07576 9.44126 2.33065 8.25564 2.82568C7.06962 3.32213 5.9929 4.04716 5.08689 4.95943C4.18082 5.87211 3.46173 6.95297 2.97001 8.14131C2.47846 9.33062 2.2237 10.6044 2.22001 11.8913H2.18439Z" fill="#E08F00"/>
<path d="M12 0.763184C6.06 0.763184 1.245 5.57818 1.245 11.5182C1.245 17.4582 6.06 22.2732 12 22.2732C17.94 22.2732 22.755 17.4582 22.755 11.5182C22.755 5.57818 17.94 0.763184 12 0.763184ZM12 21.3151C6.58875 21.3151 2.20312 16.9294 2.20312 11.5182C2.20312 6.10506 6.58875 1.71943 12 1.71943C17.4112 1.71943 21.7969 6.10506 21.7969 11.5163C21.7969 16.9276 17.4112 21.3151 12 21.3151Z" fill="#FFF176"/>
<path d="M7.12314 4.00293L7.36126 4.7398L8.13751 4.44355V4.7398L7.50939 5.19543L7.74939 5.63418V5.9323L7.12314 5.47668L6.49501 5.9323V5.63418L6.73501 5.19543L6.10876 4.7398V4.44355L6.88314 4.7398L7.12314 4.00293Z" fill="#D38200"/>
<path d="M4.12686 8.23291L4.36686 8.96979L5.14124 8.67353V8.96979L4.51499 9.42541L4.75499 9.86603V10.1623L4.12686 9.70666L3.50061 10.1623V9.86603L3.74061 9.42541L3.11249 8.96979V8.67353L3.88874 8.96979L4.12686 8.23291Z" fill="#D38200"/>
<path d="M4.03873 13.4473L4.27873 14.1841L5.0531 13.8879V14.1841L4.42685 14.6398L4.66685 15.0804V15.3766L4.03873 14.921L3.41248 15.3766V15.0804L3.65248 14.6398L3.02435 14.1841V13.8879L3.8006 14.1841L4.03873 13.4473Z" fill="#D38200"/>
<path d="M7.23752 17.5874L7.47752 18.3243L8.25189 18.028V18.3243L7.62564 18.7799L7.86565 19.2187V19.5168L7.23752 19.0612L6.61127 19.5168V19.2187L6.85127 18.7799L6.22314 18.3243V18.028L6.9994 18.3243L7.23752 17.5874Z" fill="#D38200"/>
<path d="M16.8769 4.00293L16.6387 4.7398L15.8625 4.44355V4.7398L16.4906 5.19543L16.2506 5.63418V5.9323L16.8769 5.47668L17.505 5.9323V5.63418L17.265 5.19543L17.8912 4.7398V4.44355L17.1169 4.7398L16.8769 4.00293Z" fill="#D38200"/>
<path d="M19.8731 8.23291L19.6331 8.96979L18.8588 8.67353V8.96979L19.485 9.42541L19.245 9.86603V10.1623L19.8731 9.70666L20.4994 10.1623V9.86603L20.2594 9.42541L20.8875 8.96979V8.67353L20.1113 8.96979L19.8731 8.23291Z" fill="#D38200"/>
<path d="M19.9613 13.4473L19.7213 14.1841L18.9469 13.8879V14.1841L19.5731 14.6398L19.3331 15.0804V15.3766L19.9613 14.921L20.5875 15.3766V15.0804L20.3475 14.6398L20.9756 14.1841V13.8879L20.1994 14.1841L19.9613 13.4473Z" fill="#D38200"/>
<path d="M16.7625 17.5874L16.5225 18.3243L15.7481 18.028V18.3243L16.3744 18.7799L16.1344 19.2187V19.5168L16.7625 19.0612L17.3887 19.5168V19.2187L17.1487 18.7799L17.7769 18.3243V18.028L17.0006 18.3243L16.7625 17.5874Z" fill="#D38200"/>
<path d="M16.7625 17.2896L17.0006 18.0264H17.7769L17.1487 18.4821L17.3887 19.2189L16.7625 18.7633L16.1344 19.2189L16.3744 18.4821L15.7481 18.0264H16.5225L16.7625 17.2896Z" fill="#FFF176"/>
<path d="M19.9612 13.1514L20.1993 13.8882H20.9756L20.3475 14.3439L20.5875 15.0807L19.9612 14.6251L19.3331 15.0807L19.5731 14.3439L18.9468 13.8882H19.7212L19.9612 13.1514Z" fill="#FFF176"/>
<path d="M19.8731 7.93701L20.1112 8.67389H20.8875L20.2593 9.12951L20.4993 9.86639L19.8731 9.41076L19.245 9.86639L19.485 9.12951L18.8587 8.67389H19.6331L19.8731 7.93701Z" fill="#FFF176"/>
<path d="M16.8769 3.70508L17.1169 4.44195H17.8912L17.265 4.89758L17.505 5.63445L16.8769 5.17883L16.2506 5.63445L16.4906 4.89758L15.8625 4.44195H16.6387L16.8769 3.70508Z" fill="#FFF176"/>
<path d="M12.0094 19.2188L12.2494 19.9556L13.0237 19.6594V19.9556L12.3975 20.4113L12.6375 20.8519V21.1481L12.0094 20.6925L11.3831 21.1481V20.8519L11.6231 20.4113L10.995 19.9556V19.6594L11.7712 19.9556L12.0094 19.2188Z" fill="#D38200"/>
<path d="M12.0094 18.8252L12.2494 19.5621H13.0237L12.3975 20.0177L12.6375 20.7546L12.0094 20.2989L11.3831 20.7546L11.6231 20.0177L10.995 19.5621H11.7712L12.0094 18.8252Z" fill="#FFF176"/>
<path d="M12.0094 2.41699L12.2494 3.15387L13.0237 2.85762V3.15387L12.3975 3.60949L12.6375 4.05012V4.34637L12.0094 3.89074L11.3831 4.34637V4.05012L11.6231 3.60949L10.995 3.15387V2.85762L11.7712 3.15387L12.0094 2.41699Z" fill="#D38200"/>
<path d="M12.0094 2.12061L12.2494 2.85748H13.0237L12.3975 3.31311L12.6375 4.04998L12.0094 3.59436L11.3831 4.04998L11.6231 3.31311L10.995 2.85748H11.7712L12.0094 2.12061Z" fill="#FFF176"/>
<path d="M7.23746 17.2896L6.99933 18.0264H6.22308L6.85121 18.4821L6.61121 19.2189L7.23746 18.7633L7.86558 19.2189L7.62558 18.4821L8.25183 18.0264H7.47746L7.23746 17.2896Z" fill="#FFF176"/>
<path d="M4.03873 13.1514L3.8006 13.8882H3.02435L3.65248 14.3439L3.41248 15.0807L4.03873 14.6251L4.66685 15.0807L4.42685 14.3439L5.0531 13.8882H4.27873L4.03873 13.1514Z" fill="#FFF176"/>
<path d="M4.12686 7.93701L3.88874 8.67389H3.11249L3.74061 9.12951L3.50061 9.86639L4.12686 9.41076L4.75499 9.86639L4.51499 9.12951L5.14124 8.67389H4.36686L4.12686 7.93701Z" fill="#FFF176"/>
<path d="M7.12308 3.70508L6.88308 4.44195H6.1087L6.73495 4.89758L6.49495 5.63445L7.12308 5.17883L7.74933 5.63445L7.50933 4.89758L8.13745 4.44195H7.3612L7.12308 3.70508Z" fill="#FFF176"/>
<path d="M16.47 8.31178L12 5.7749L7.53003 8.31178H16.47Z" fill="#F2BC1A"/>
</svg>
