<svg width="20" height="20" viewBox="0 0 20 21" fill="none" xmlns="http://www.w3.org/2000/svg">
<path d="M10 15.8655L4.94571 10.557L5.95571 9.4785L9.28571 12.975V0H10.7143V12.975L14.0429 9.48L15.0543 10.557L10 15.8655ZM2.30714 21C1.65 21 1.10143 20.769 0.661428 20.307C0.220476 19.844 0 19.2675 0 18.5775V14.943H1.42857V18.5775C1.42857 18.8075 1.52 19.019 1.70286 19.212C1.88667 19.404 2.08809 19.5 2.30714 19.5H17.6929C17.9119 19.5 18.1133 19.404 18.2971 19.212C18.48 19.019 18.5714 18.8075 18.5714 18.5775V14.943H20V18.5775C20 19.2675 19.78 19.8435 19.34 20.3055C18.899 20.7685 18.35 21 17.6929 21H2.30714Z" fill="#545454"/>
</svg>
