<svg width="40" height="30" viewBox="0 0 40 30" fill="none" xmlns="http://www.w3.org/2000/svg">
<path d="M5.45977e-09 3.74865C5.45977e-09 2.75445 0.395088 1.80096 1.09835 1.09795C1.80161 0.394946 2.75544 0 3.75 0H26.25C27.2446 0 28.1984 0.394946 28.9017 1.09795C29.6049 1.80096 30 2.75445 30 3.74865V7.4973H32.55C33.1118 7.4978 33.6664 7.6245 34.1727 7.86804C34.679 8.11157 35.124 8.46571 35.475 8.9043L39.1775 13.5276C39.7102 14.1929 40.0003 15.0197 40 15.8718V21.2424C40 22.2366 39.6049 23.19 38.9016 23.8931C38.1984 24.5961 37.2446 24.991 36.25 24.991H35C35 26.3166 34.4732 27.5879 33.5355 28.5253C32.5979 29.4626 31.3261 29.9892 30 29.9892C28.6739 29.9892 27.4021 29.4626 26.4645 28.5253C25.5268 27.5879 25 26.3166 25 24.991H12.5C12.5014 25.6572 12.3696 26.317 12.1123 26.9316C11.855 27.5461 11.4774 28.1031 11.0016 28.5697C10.5259 29.0362 9.96164 29.403 9.34205 29.6484C8.72246 29.8939 8.06004 30.013 7.39373 29.9989C6.72742 29.9847 6.07067 29.8375 5.46207 29.566C4.85348 29.2944 4.30534 28.904 3.84987 28.4177C3.3944 27.9313 3.04079 27.3588 2.80984 26.7339C2.57888 26.1089 2.47524 25.4441 2.505 24.7786C1.77262 24.5209 1.13831 24.0423 0.689611 23.4089C0.240914 22.7755 -4.18799e-05 22.0185 5.45977e-09 21.2424L5.45977e-09 3.74865ZM3.235 22.382C3.687 21.6422 4.32378 21.0327 5.08275 20.6135C5.84171 20.1942 6.69675 19.9796 7.56382 19.9907C8.43089 20.0018 9.28015 20.2382 10.0281 20.6768C10.7761 21.1153 11.3971 21.7408 11.83 22.4919H25.67C26.1098 21.7329 26.7407 21.1022 27.5 20.6626V3.74865C27.5 3.41725 27.3683 3.09942 27.1339 2.86509C26.8995 2.63075 26.5815 2.4991 26.25 2.4991H3.75C3.41848 2.4991 3.10054 2.63075 2.86612 2.86509C2.6317 3.09942 2.5 3.41725 2.5 3.74865V21.2424C2.4998 21.4829 2.56905 21.7183 2.69943 21.9205C2.8298 22.1226 3.01577 22.2829 3.235 22.382ZM30 19.9928C30.8777 19.9928 31.7399 20.2238 32.4999 20.6625C33.26 21.1012 33.8912 21.7321 34.33 22.4919H36.25C36.5815 22.4919 36.8995 22.3603 37.1339 22.1259C37.3683 21.8916 37.5 21.5738 37.5 21.2424V15.8693C37.4995 15.5857 37.4025 15.3108 37.225 15.0896L33.525 10.4662C33.4081 10.3199 33.2598 10.2017 33.091 10.1204C32.9222 10.039 32.7374 9.99667 32.55 9.9964H30V19.9928ZM7.5 22.4919C6.83696 22.4919 6.20107 22.7552 5.73223 23.2239C5.26339 23.6926 5 24.3282 5 24.991C5 25.6538 5.26339 26.2895 5.73223 26.7581C6.20107 27.2268 6.83696 27.4901 7.5 27.4901C8.16304 27.4901 8.79893 27.2268 9.26777 26.7581C9.73661 26.2895 10 25.6538 10 24.991C10 24.3282 9.73661 23.6926 9.26777 23.2239C8.79893 22.7552 8.16304 22.4919 7.5 22.4919ZM30 22.4919C29.337 22.4919 28.7011 22.7552 28.2322 23.2239C27.7634 23.6926 27.5 24.3282 27.5 24.991C27.5 25.6538 27.7634 26.2895 28.2322 26.7581C28.7011 27.2268 29.337 27.4901 30 27.4901C30.663 27.4901 31.2989 27.2268 31.7678 26.7581C32.2366 26.2895 32.5 25.6538 32.5 24.991C32.5 24.3282 32.2366 23.6926 31.7678 23.2239C31.2989 22.7552 30.663 22.4919 30 22.4919Z" fill="white"/>
</svg>
