<svg width="24" height="24" viewBox="0 0 24 24" fill="none" xmlns="http://www.w3.org/2000/svg">
    <g clip-path="url(#clip0_429_1824)">
        <path
            d="M23.0564 12L23.0572 11.9986C23.7587 10.886 23.5286 9.42603 22.519 8.58294L22.5182 8.58223V8.58219C22.8401 7.30643 22.1681 5.98933 20.9461 5.50136L20.9459 5.50127L20.9457 5.49803C20.8576 4.18656 19.8133 3.14227 18.5018 3.0542L18.4986 3.05396L18.4985 3.05373C18.0106 1.83179 16.6935 1.15974 15.4177 1.48163L15.417 1.48083C14.574 0.471233 13.114 0.241169 12.0013 0.94261L11.9999 0.943453L11.9985 0.94261C10.8859 0.241123 9.42589 0.471186 8.58284 1.48083L8.58214 1.48163H8.58209C7.30634 1.15969 5.98924 1.83179 5.50127 3.05373L5.50117 3.05396L5.49794 3.0542C4.18651 3.14237 3.14223 4.18665 3.05415 5.49813L3.05391 5.50136L3.05368 5.50141C1.83174 5.98938 1.15969 7.30648 1.48158 8.58223L1.48078 8.58294C0.471184 9.42599 0.241121 10.886 0.942561 11.9986L0.943405 12L0.942561 12.0014C0.241121 13.1141 0.471184 14.5741 1.48078 15.4172L1.48158 15.4179V15.4179C1.15964 16.6937 1.83174 18.0108 3.05368 18.4987L3.05391 18.4988L3.05415 18.5021C3.14223 19.8135 4.18651 20.8578 5.49798 20.9459L5.50122 20.9461L5.50127 20.9464C5.98924 22.1683 7.30634 22.8404 8.58209 22.5185L8.58279 22.5193C9.42584 23.5289 10.8858 23.7589 11.9985 23.0575L11.9999 23.0566L12.0013 23.0575C13.114 23.7589 14.5739 23.5289 15.417 22.5193L15.4177 22.5185H15.4178C16.6935 22.8404 18.0106 22.1683 18.4986 20.9464L18.4987 20.9461L18.5019 20.9459C19.8134 20.8578 20.8577 19.8135 20.9457 18.5021L20.946 18.4988L20.9462 18.4988C22.1682 18.0108 22.8402 16.6937 22.5183 15.4179L22.5191 15.4172C23.5287 14.5742 23.7588 13.1142 23.0573 12.0015L23.0564 12Z"
            fill="#F9A493" />
        <path
            d="M11.9997 21.4056C17.1942 21.4056 21.4051 17.1947 21.4051 12.0002C21.4051 6.80576 17.1942 2.59482 11.9997 2.59482C6.80526 2.59482 2.59431 6.80576 2.59431 12.0002C2.59431 17.1947 6.80526 21.4056 11.9997 21.4056Z"
            fill="#F95428" />
        <path
            d="M14.0207 19.3847C8.82618 19.3847 4.61524 15.1738 4.61524 9.9793C4.61524 7.89762 5.29202 5.97428 6.43681 4.41624C4.10702 6.12817 2.5945 8.88725 2.5945 12C2.5945 17.1945 6.80544 21.4055 11.9999 21.4055C15.1127 21.4055 17.8718 19.8929 19.5837 17.5631C18.0256 18.708 16.1023 19.3847 14.0207 19.3847Z"
            fill="#E54728" />
        <path
            d="M11.9999 21.9464C6.51547 21.9464 2.05356 17.4844 2.05356 12C2.05356 6.51565 6.51542 2.0537 11.9999 2.0537C17.4844 2.0537 21.9463 6.5156 21.9463 12C21.9463 17.4844 17.4844 21.9464 11.9999 21.9464ZM11.9999 3.13557C7.11205 3.13557 3.13544 7.11214 3.13544 12C3.13544 16.888 7.11205 20.8645 11.9999 20.8645C16.8878 20.8645 20.8643 16.8879 20.8643 12C20.8644 7.11214 16.8878 3.13557 11.9999 3.13557Z"
            fill="#333333" />
        <path
            d="M13.3957 24C12.9204 24 12.4423 23.8939 11.9996 23.6756C10.8018 24.2651 9.34711 24.0353 8.39104 23.1067C7.07076 23.2962 5.75844 22.6265 5.1372 21.4464C3.8209 21.2181 2.77957 20.1757 2.55311 18.862C1.37219 18.2384 0.703981 16.9275 0.893263 15.609C-0.0360374 14.6522 -0.265491 13.1962 0.324292 11.9999C-0.265445 10.8032 -0.0358498 9.34765 0.893263 8.39107C0.703747 7.07107 1.37331 5.75879 2.55316 5.13742C2.77975 3.82285 3.82268 2.78002 5.1373 2.55328C5.75867 1.37343 7.07108 0.703963 8.39095 0.893338C9.34776 -0.0359622 10.8035 -0.26551 11.9998 0.324274C13.1954 -0.265604 14.6517 -0.0361966 15.6088 0.893338C16.9287 0.703916 18.2413 1.37343 18.8626 2.55342C20.178 2.78091 21.22 3.82341 21.4467 5.13742C22.6266 5.75879 23.2961 7.07111 23.1066 8.39107C24.0359 9.34784 24.2654 10.8037 23.6756 12C24.2655 13.1959 24.0361 14.6521 23.1066 15.609C23.2961 16.9292 22.6265 18.2416 21.4463 18.8628C21.2181 20.1788 20.1759 21.2202 18.8625 21.4468C18.3113 22.4934 17.2162 23.1385 16.0545 23.1386C15.9066 23.1386 15.7579 23.1281 15.6088 23.1067C15.0061 23.6922 14.205 23.9999 13.3957 24ZM8.58215 21.9774C8.73647 21.9774 8.88595 22.0435 8.99006 22.1631C8.9925 22.1659 8.99569 22.1696 8.99808 22.1725C9.6645 22.9707 10.8305 23.1544 11.71 22.5999C11.8865 22.4886 12.1126 22.4878 12.2889 22.5993C13.1694 23.1544 14.3353 22.9706 15.0018 22.1725C15.135 22.013 15.3485 21.9431 15.5501 21.9939C16.5588 22.2484 17.6104 21.7118 17.9962 20.7457C17.9987 20.7393 18.0014 20.7329 18.0042 20.7266C18.0858 20.5429 18.2627 20.4195 18.4633 20.4063C19.5022 20.3365 20.3364 19.5023 20.406 18.4657C20.42 18.2572 20.553 18.0725 20.7468 17.9957C21.712 17.6094 22.2481 16.5584 21.9937 15.5501C21.9434 15.3508 22.0105 15.1402 22.1667 15.0066C22.1683 15.0053 22.1707 15.0032 22.1723 15.0018C22.9705 14.3353 23.1542 13.1694 22.5997 12.2898C22.4877 12.1122 22.4878 11.8844 22.6011 11.7078C23.1539 10.8284 22.9698 9.66397 22.1723 8.99806C22.1707 8.9967 22.1691 8.99534 22.1675 8.99398C22.0112 8.86043 21.9434 8.64907 21.9937 8.44971C22.2482 7.441 21.7116 6.38941 20.7455 6.00358C20.739 6.00105 20.7327 5.99833 20.7264 5.99551C20.5427 5.9139 20.4193 5.73704 20.4061 5.53647C20.3363 4.49752 19.5021 3.66333 18.4655 3.59372C18.2627 3.58008 18.0814 3.45366 18.0013 3.26686C17.9995 3.26274 17.9977 3.25838 17.996 3.25421C17.6102 2.28806 16.5584 1.75148 15.55 2.00597C15.3523 2.0558 15.1436 1.9904 15.0097 1.83675C15.0072 1.83394 15.0041 1.83028 15.0017 1.82733C14.3352 1.02918 13.1693 0.845479 12.2897 1.39997C12.1118 1.51209 11.8836 1.5119 11.7069 1.39795C10.8303 0.845432 9.6645 1.02914 8.99794 1.82723C8.86476 1.98675 8.65129 2.05673 8.44968 2.00587C7.44084 1.75134 6.38938 2.28797 6.00355 3.25411C6.00102 3.26049 5.9983 3.26686 5.99553 3.27319C5.91392 3.4569 5.73706 3.58032 5.53648 3.59354C4.49754 3.66333 3.66335 4.49752 3.59374 5.53407C3.5937 5.5352 3.59337 5.53961 3.59327 5.54073C3.57804 5.74858 3.44482 5.92858 3.25183 6.00447C2.28719 6.39105 1.75169 7.44175 2.00599 8.44966C2.0567 8.65081 1.98799 8.8632 1.82908 8.99651C1.0292 9.66443 0.845497 10.8304 1.39998 11.7099C1.51192 11.8875 1.51192 12.1152 1.39858 12.2919C0.84545 13.1693 1.02915 14.3352 1.82735 15.0017C1.98672 15.1348 2.05685 15.3482 2.00599 15.5499C1.75141 16.5586 2.28803 17.6102 3.25423 17.9961C3.44782 18.0734 3.58005 18.2552 3.5936 18.4633C3.6634 19.502 4.49759 20.3362 5.53414 20.4059C5.7417 20.4199 5.92616 20.5518 6.00341 20.7449C6.38943 21.7115 7.44107 22.2482 8.44973 21.9936C8.49365 21.9828 8.53814 21.9774 8.58215 21.9774Z"
            fill="#333333" />
        <path
            d="M5.98399 10.2117H6.15223C6.37029 10.2117 6.54772 10.3891 6.54772 10.6072C6.54772 10.906 6.78992 11.1481 7.08865 11.1481C7.38739 11.1481 7.62959 10.9059 7.62959 10.6072C7.62959 9.79256 6.96687 9.12984 6.15223 9.12984H5.98399C5.07663 9.12984 4.33839 9.86807 4.33839 10.7754C4.33839 11.6828 5.07663 12.421 5.98399 12.421C6.29487 12.421 6.54772 12.6739 6.54772 12.9848C6.54772 13.2956 6.29482 13.5485 5.98399 13.5485H5.81576C5.5977 13.5485 5.42027 13.3711 5.42027 13.153C5.42027 12.8542 5.17812 12.6121 4.87933 12.6121C4.58055 12.6121 4.33839 12.8543 4.33839 13.153C4.33839 13.9676 5.00112 14.6304 5.81576 14.6304H5.98399C6.89136 14.6304 7.62959 13.8921 7.62959 12.9848C7.62959 12.0774 6.89136 11.3392 5.98399 11.3392C5.67316 11.3392 5.42027 11.0863 5.42027 10.7754C5.42027 10.4646 5.67312 10.2117 5.98399 10.2117Z"
            fill="white" />
        <path
            d="M15.342 12.9339C15.0432 12.9339 14.8011 13.1761 14.8011 13.4748V13.5485H13.6736V9.67078C13.6736 9.37199 13.4314 9.12984 13.1327 9.12984C12.834 9.12984 12.5918 9.37204 12.5918 9.67078V14.0895C12.5918 14.3882 12.834 14.6304 13.1327 14.6304H15.342C15.6408 14.6304 15.883 14.3882 15.883 14.0895V13.4748C15.883 13.1761 15.6408 12.9339 15.342 12.9339Z"
            fill="white" />
        <path
            d="M19.1206 10.9481C19.4194 10.9481 19.6615 10.7059 19.6615 10.4071V9.67082C19.6615 9.37204 19.4194 9.12988 19.1206 9.12988H16.9113C16.6125 9.12988 16.3703 9.37209 16.3703 9.67082V14.0895C16.3703 14.3883 16.6125 14.6305 16.9113 14.6305H19.1206C19.4194 14.6305 19.6615 14.3882 19.6615 14.0895V13.4749C19.6615 13.1761 19.4194 12.9339 19.1206 12.9339C18.8218 12.9339 18.5796 13.1761 18.5796 13.4749V13.5486H17.4522V12.4211H18.1575C18.4563 12.4211 18.6985 12.1789 18.6985 11.8802C18.6985 11.5815 18.4563 11.3393 18.1575 11.3393H17.4522V10.2118H18.5796V10.4071C18.5796 10.7059 18.8218 10.9481 19.1206 10.9481Z"
            fill="white" />
        <path
            d="M9.99336 9.15843C9.09388 9.15843 8.36201 9.8902 8.36201 10.7897V14.0608C8.36201 14.3596 8.60422 14.6018 8.90295 14.6018C9.20169 14.6018 9.44389 14.3596 9.44389 14.0608V13.1291H10.5428V14.0608C10.5428 14.3596 10.785 14.6018 11.0837 14.6018C11.3825 14.6018 11.6247 14.3596 11.6247 14.0608V10.7897C11.6247 9.89025 10.8929 9.15843 9.99336 9.15843ZM9.44394 12.0473V10.7897C9.44394 10.4868 9.69041 10.2403 9.99336 10.2403C10.2964 10.2403 10.5428 10.4868 10.5428 10.7897V12.0473H9.44394Z"
            fill="white" />
        <path
            d="M16.2743 8.28125H7.72554C7.42676 8.28125 7.1846 8.03905 7.1846 7.74031C7.1846 7.44158 7.42681 7.19937 7.72554 7.19937H16.2743C16.573 7.19937 16.8152 7.44158 16.8152 7.74031C16.8152 8.03905 16.573 8.28125 16.2743 8.28125Z"
            fill="white" />
        <path
            d="M13.8661 6.4151H10.1338C9.83498 6.4151 9.59282 6.1729 9.59282 5.87416C9.59282 5.57543 9.83502 5.33322 10.1338 5.33322H13.8661C14.1649 5.33322 14.407 5.57543 14.407 5.87416C14.407 6.1729 14.1649 6.4151 13.8661 6.4151Z"
            fill="white" />
        <path
            d="M16.2743 16.8007H7.72554C7.42676 16.8007 7.1846 16.5585 7.1846 16.2597C7.1846 15.961 7.42681 15.7188 7.72554 15.7188H16.2743C16.573 15.7188 16.8152 15.961 16.8152 16.2597C16.8152 16.5585 16.573 16.8007 16.2743 16.8007Z"
            fill="white" />
        <path
            d="M13.8661 18.6669H10.1338C9.83498 18.6669 9.59282 18.4247 9.59282 18.126C9.59282 17.8272 9.83502 17.585 10.1338 17.585H13.8661C14.1649 17.585 14.407 17.8272 14.407 18.126C14.407 18.4247 14.1649 18.6669 13.8661 18.6669Z"
            fill="white" />
    </g>
    <defs>
        <clipPath id="clip0_429_1824">
            <rect width="24" height="24" fill="white" />
        </clipPath>
    </defs>
</svg>
