<svg width="24" height="24" viewBox="0 0 24 24" fill="none" xmlns="http://www.w3.org/2000/svg">
<path d="M15.4754 9.51599C15.6898 10.3162 15.4311 11.0808 14.8977 11.2237C14.3642 11.3667 13.7579 10.8339 13.5435 10.0337C13.3291 9.23343 13.5877 8.46887 14.1212 8.32592C14.6547 8.18298 15.2609 8.71579 15.4754 9.51599Z" fill="#4E4F54"/>
<path d="M9.67995 11.0687C9.89437 11.8689 9.63572 12.6335 9.10226 12.7764C8.56879 12.9194 7.96251 12.3865 7.7481 11.5863C7.53369 10.7861 7.79234 10.0216 8.32581 9.87865C8.85926 9.73571 9.46554 10.2685 9.67995 11.0687Z" fill="#4E4F54"/>
<path fill-rule="evenodd" clip-rule="evenodd" d="M12 2.75C6.89137 2.75 2.75 6.89137 2.75 12C2.75 17.1086 6.89137 21.25 12 21.25C17.1086 21.25 21.25 17.1086 21.25 12C21.25 6.89137 17.1086 2.75 12 2.75ZM1.25 12C1.25 6.06294 6.06294 1.25 12 1.25C17.9371 1.25 22.75 6.06294 22.75 12C22.75 17.9371 17.9371 22.75 12 22.75C6.06294 22.75 1.25 17.9371 1.25 12ZM17.1789 13.3409C17.467 13.6385 17.4593 14.1133 17.1617 14.4014C16.9917 14.566 16.8128 14.7246 16.6256 14.8766L16.8441 15.3216C17.3971 16.4482 16.9214 17.8094 15.787 18.3464C14.6752 18.8728 13.3468 18.4085 12.8047 17.3043L12.5315 16.7477C11.2117 16.998 9.90919 16.9561 8.73026 16.6606C8.32847 16.5599 8.0844 16.1526 8.1851 15.7508C8.2858 15.349 8.69315 15.1049 9.09494 15.2056C10.2252 15.4889 11.5232 15.4924 12.841 15.1393C14.1588 14.7862 15.2811 14.1342 16.1183 13.3237C16.4159 13.0356 16.8908 13.0433 17.1789 13.3409ZM14.0048 16.345L14.1513 16.6433C14.3319 17.0114 14.7747 17.1661 15.1452 16.9907C15.5233 16.8117 15.6818 16.358 15.4975 15.9825L15.3707 15.7241C14.9417 15.9631 14.4851 16.1716 14.0048 16.345Z" fill="#4E4F54"/>
</svg>
