<svg width="36" height="36" viewBox="0 0 36 36" fill="none" xmlns="http://www.w3.org/2000/svg">
<g clip-path="url(#clip0_1_2)">
<path d="M32 5H4C2.93913 5 1.92172 5.42143 1.17157 6.17157C0.421427 6.92172 0 7.93913 0 9L0 27C0 28.0609 0.421427 29.0783 1.17157 29.8284C1.92172 30.5786 2.93913 31 4 31H32C33.0609 31 34.0783 30.5786 34.8284 29.8284C35.5786 29.0783 36 28.0609 36 27V9C36 7.93913 35.5786 6.92172 34.8284 6.17157C34.0783 5.42143 33.0609 5 32 5Z" fill="#DA251D"/>
<path d="M19.753 16.037L18 10.642L16.247 16.037H10.575L15.164 19.37L13.411 24.765L18 21.431L22.589 24.765L20.836 19.37L25.425 16.037H19.753Z" fill="#FFFF00"/>
</g>
<defs>
<clipPath id="clip0_1_2">
<rect width="36" height="36" fill="white"/>
</clipPath>
</defs>
</svg>
