<svg width="20" height="20" viewBox="0 0 20 20" fill="none" xmlns="http://www.w3.org/2000/svg">
<g clip-path="url(#clip0_1264_1995)">
<path fill-rule="evenodd" clip-rule="evenodd" d="M17.3254 12.9262C17.161 16.8524 13.9274 19.9853 9.96078 19.9853C5.88902 19.9853 2.58823 16.5735 2.58823 12.6127C2.58823 12.0833 2.57874 11.0253 3.37255 9.24016C3.8476 8.17185 4.14556 7.50071 4.31372 6.88722C4.40611 6.55005 4.5858 6.01436 5.09804 6.88722C5.40007 7.40189 5.41176 8.14212 5.41176 8.14212C5.41176 8.14212 6.53553 7.27977 7.29411 5.63232C8.40619 3.21718 7.5189 1.7735 7.21568 0.769575C7.11074 0.422281 7.04486 -0.201876 7.7647 0.0636925C8.49819 0.334359 10.4373 1.69177 11.451 3.12252C12.8976 5.16448 13.4118 7.12252 13.4118 7.12252C13.4118 7.12252 13.875 6.54761 14.0392 5.94604C14.2247 5.26675 14.2274 4.59397 14.8234 5.31867C15.3903 6.00785 16.2321 7.30299 16.7059 8.53428C17.5662 10.7703 17.3254 12.9262 17.3254 12.9262Z" fill="url(#paint0_linear_1264_1995)"/>
<path fill-rule="evenodd" clip-rule="evenodd" d="M9.96079 19.9853C7.14518 19.9853 4.86275 17.7028 4.86275 14.8872C4.86275 13.1883 5.54737 12.1569 6.97224 10.7581C7.88455 9.86252 8.73843 8.76252 9.10134 8.0135C9.17279 7.86605 9.33537 7.09766 9.96228 7.99734C10.2911 8.46918 10.8067 9.30832 11.1373 10.0245C11.7071 11.2592 11.8431 12.4559 11.8431 12.4559C11.8431 12.4559 12.4016 12.1268 12.7843 11.2794C12.9077 11.0063 13.1571 9.9724 13.8544 11.0061C14.366 11.7647 15.0688 13.1286 15.0588 14.8872C15.0588 17.7028 12.7763 19.9853 9.96079 19.9853Z" fill="#FC9502"/>
<path fill-rule="evenodd" clip-rule="evenodd" d="M10.0392 14.4166C10.7647 14.4166 10.7647 15.7601 11.6863 17.5539C12.2999 18.7483 11.382 19.9853 10.0392 19.9853C8.69639 19.9853 8 18.8967 8 17.5539C8 16.2111 9.31373 14.4166 10.0392 14.4166Z" fill="#FCE202"/>
</g>
<defs>
<linearGradient id="paint0_linear_1264_1995" x1="9.97184" y1="20" x2="9.97184" y2="0.0147513" gradientUnits="userSpaceOnUse">
<stop stop-color="#FF4C0D"/>
<stop offset="1" stop-color="#FC9502"/>
</linearGradient>
<clipPath id="clip0_1264_1995">
<rect width="20" height="20" fill="white"/>
</clipPath>
</defs>
</svg>
