<svg width="24" height="24" viewBox="0 0 24 24" fill="none" xmlns="http://www.w3.org/2000/svg">
<g id="medal-star-svgrepo-com 1">
<path id="Vector" d="M17 8V6C17 4.11438 17 3.17157 16.4142 2.58579C15.8284 2 14.8856 2 13 2H11C9.11438 2 8.17157 2 7.58579 2.58579C7 3.17157 7 4.11438 7 6V8" stroke="#4E4F54" stroke-width="1.2"/>
<path id="Vector_2" d="M10.5636 5.78311C11.4588 5.29495 12.5407 5.29495 13.436 5.78311L18.2302 8.39728C19.1942 8.92292 19.794 9.93319 19.794 11.0312V15.9688C19.794 17.0668 19.1942 18.0771 18.2302 18.6027L13.436 21.2169C12.5407 21.705 11.4588 21.705 10.5636 21.2169L5.76937 18.6027C4.80539 18.0771 4.20557 17.0668 4.20557 15.9688V11.0312C4.20557 9.93318 4.80539 8.92292 5.76937 8.39728L10.5636 5.78311Z" stroke="#4E4F54" stroke-width="1.2"/>
<path id="Vector_3" d="M11.1459 11.5226C11.5259 10.8409 11.7159 10.5 12 10.5C12.2841 10.5 12.4741 10.8409 12.8541 11.5226L12.9524 11.6989C13.0603 11.8926 13.1143 11.9895 13.1985 12.0534C13.2827 12.1173 13.3875 12.141 13.5972 12.1885L13.7881 12.2317C14.526 12.3986 14.895 12.4821 14.9828 12.7644C15.0706 13.0466 14.819 13.3408 14.316 13.929L14.1858 14.0812C14.0429 14.2484 13.9714 14.332 13.9392 14.4354C13.9071 14.5388 13.9179 14.6503 13.9395 14.8733L13.9592 15.0764C14.0352 15.8612 14.0733 16.2537 13.8435 16.4281C13.6136 16.6026 13.2682 16.4435 12.5773 16.1254L12.3986 16.0431C12.2022 15.9527 12.1041 15.9075 12 15.9075C11.8959 15.9075 11.7978 15.9527 11.6014 16.0431L11.4227 16.1254C10.7318 16.4435 10.3864 16.6026 10.1565 16.4281C9.92674 16.2537 9.96476 15.8612 10.0408 15.0764L10.0605 14.8733C10.0821 14.6503 10.0929 14.5388 10.0608 14.4354C10.0286 14.332 9.95713 14.2484 9.81418 14.0812L9.68403 13.929C9.18097 13.3408 8.92945 13.0466 9.01723 12.7644C9.10501 12.4821 9.47396 12.3986 10.2119 12.2317L10.4028 12.1885C10.6125 12.141 10.7173 12.1173 10.8015 12.0534C10.8857 11.9895 10.9397 11.8926 11.0476 11.6989L11.1459 11.5226Z" stroke="#4E4F54" stroke-width="1.2"/>
</g>
</svg>
