<svg width="20" height="20" viewBox="0 0 20 20" fill="none" xmlns="http://www.w3.org/2000/svg">
<path d="M15.5556 7.89474C15.5556 8.03432 15.5165 8.1682 15.4471 8.2669C15.3776 8.3656 15.2834 8.42105 15.1852 8.42105H7.77778C7.67955 8.42105 7.58534 8.3656 7.51589 8.2669C7.44643 8.1682 7.40741 8.03432 7.40741 7.89474C7.40741 7.75515 7.44643 7.62128 7.51589 7.52258C7.58534 7.42387 7.67955 7.36842 7.77778 7.36842H15.1852C15.2834 7.36842 15.3776 7.42387 15.4471 7.52258C15.5165 7.62128 15.5556 7.75515 15.5556 7.89474ZM15.1852 11.5789H7.77778C7.67955 11.5789 7.58534 11.6344 7.51589 11.7331C7.44643 11.8318 7.40741 11.9657 7.40741 12.1053C7.40741 12.2449 7.44643 12.3787 7.51589 12.4774C7.58534 12.5761 7.67955 12.6316 7.77778 12.6316H15.1852C15.2834 12.6316 15.3776 12.5761 15.4471 12.4774C15.5165 12.3787 15.5556 12.2449 15.5556 12.1053C15.5556 11.9657 15.5165 11.8318 15.4471 11.7331C15.3776 11.6344 15.2834 11.5789 15.1852 11.5789ZM20 1.57895V17.3684C20 18.0664 19.8049 18.7357 19.4576 19.2292C19.1103 19.7227 18.6393 20 18.1481 20H1.85185C1.36199 20 0.892084 19.7242 0.545007 19.233C0.197929 18.7417 0.00195944 18.0751 0 17.3789V4.73684C0 4.59725 0.039021 4.46338 0.108479 4.36468C0.177937 4.26598 0.272142 4.21053 0.37037 4.21053C0.468599 4.21053 0.562804 4.26598 0.632262 4.36468C0.70172 4.46338 0.740741 4.59725 0.740741 4.73684V17.3684C0.740741 17.7872 0.857804 18.1888 1.06618 18.4849C1.27455 18.781 1.55717 18.9474 1.85185 18.9474C2.14654 18.9474 2.42915 18.781 2.63753 18.4849C2.8459 18.1888 2.96296 17.7872 2.96296 17.3684V1.57895C2.96296 1.16018 3.08003 0.758573 3.2884 0.462463C3.49677 0.166353 3.77939 0 4.07407 0H18.8889C19.1836 0 19.4662 0.166353 19.6746 0.462463C19.8829 0.758573 20 1.16018 20 1.57895ZM19.2593 1.57895C19.2593 1.43936 19.2202 1.30549 19.1508 1.20679C19.0813 1.10808 18.9871 1.05263 18.8889 1.05263H4.07407C3.97585 1.05263 3.88164 1.10808 3.81218 1.20679C3.74272 1.30549 3.7037 1.43936 3.7037 1.57895V17.3684C3.70465 17.938 3.57459 18.4925 3.33333 18.9474H18.1481C18.4428 18.9474 18.7254 18.781 18.9338 18.4849C19.1422 18.1888 19.2593 17.7872 19.2593 17.3684V1.57895Z" fill="#545454"/>
</svg>
