<svg xmlns="http://www.w3.org/2000/svg" width="320" height="320" fill="none" viewBox="0 0 320 320">
  <defs>
    <linearGradient id="a" x1="70.566" x2="241.709" y1="136.915" y2="136.915" gradientUnits="userSpaceOnUse">
      <stop stop-color="#FF014A"/>
      <stop offset="1" stop-color="#FABD3F"/>
    </linearGradient>
    <linearGradient id="b" x1="125.965" x2="225.011" y1="203.245" y2="203.245" gradientUnits="userSpaceOnUse">
      <stop stop-color="#FF014A"/>
      <stop offset="1" stop-color="#FABD3F"/>
    </linearGradient>
    <linearGradient id="c" x1="161.568" x2="184.346" y1="90.509" y2="161.267" gradientUnits="userSpaceOnUse">
      <stop stop-color="#A2D646"/>
      <stop offset="1" stop-color="#099400"/>
    </linearGradient>
    <linearGradient id="d" x1="110.138" x2="227.264" y1="127.174" y2="154.624" gradientUnits="userSpaceOnUse">
      <stop stop-color="#A2D646"/>
      <stop offset="1" stop-color="#099400"/>
    </linearGradient>
    <linearGradient id="e" x1="168.198" x2="220.16" y1="87.629" y2="87.629" gradientUnits="userSpaceOnUse">
      <stop stop-color="#FF014A"/>
      <stop offset="1" stop-color="#FABD3F"/>
    </linearGradient>
    <linearGradient id="f" x1="187.61" x2="191.84" y1="53.024" y2="75.366" gradientUnits="userSpaceOnUse">
      <stop stop-color="#FF014A"/>
      <stop offset="1" stop-color="#FABD3F"/>
    </linearGradient>
    <linearGradient id="g" x1="169.779" x2="219.93" y1="85.466" y2="99.04" gradientUnits="userSpaceOnUse">
      <stop stop-color="#FF014A"/>
      <stop offset="1" stop-color="#FABD3F"/>
    </linearGradient>
    <linearGradient id="h" x1="137.722" x2="141.498" y1="53.44" y2="73.376" gradientUnits="userSpaceOnUse">
      <stop stop-color="#A2D646"/>
      <stop offset="1" stop-color="#099400"/>
    </linearGradient>
    <linearGradient id="i" x1="144.787" x2="148.998" y1="49.619" y2="71.878" gradientUnits="userSpaceOnUse">
      <stop stop-color="#A2D646"/>
      <stop offset="1" stop-color="#099400"/>
    </linearGradient>
    <linearGradient id="j" x1="144.147" x2="165.606" y1="70.259" y2="92.326" gradientUnits="userSpaceOnUse">
      <stop stop-color="#FF014A"/>
      <stop offset="1" stop-color="#FABD3F"/>
    </linearGradient>
    <linearGradient id="k" x1="127.379" x2="165.504" y1="74.406" y2="87.206" gradientUnits="userSpaceOnUse">
      <stop stop-color="#fff"/>
      <stop offset="1" stop-color="#fff" stop-opacity="0"/>
    </linearGradient>
    <linearGradient id="l" x1="133.685" x2="154.165" y1="221.352" y2="221.352" gradientUnits="userSpaceOnUse">
      <stop stop-color="#FF014A"/>
      <stop offset="1" stop-color="#FABD3F"/>
    </linearGradient>
    <linearGradient id="n" x1="196.813" x2="217.293" y1="221.353" y2="221.353" gradientUnits="userSpaceOnUse">
      <stop stop-color="#FF014A"/>
      <stop offset="1" stop-color="#FABD3F"/>
    </linearGradient>
    <linearGradient id="p" x1="107.296" x2="107.296" y1="238.054" y2="265.773" gradientUnits="userSpaceOnUse">
      <stop stop-color="#A2D646"/>
      <stop offset="1" stop-color="#099400"/>
    </linearGradient>
    <linearGradient id="q" x1="127.955" x2="127.955" y1="245.722" y2="266.061" gradientUnits="userSpaceOnUse">
      <stop stop-color="#A2D646"/>
      <stop offset="1" stop-color="#099400"/>
    </linearGradient>
    <linearGradient id="r" x1="148.794" x2="148.794" y1="238.054" y2="265.773" gradientUnits="userSpaceOnUse">
      <stop stop-color="#A2D646"/>
      <stop offset="1" stop-color="#099400"/>
    </linearGradient>
    <linearGradient id="s" x1="178.438" x2="178.438" y1="265.773" y2="238.054" gradientUnits="userSpaceOnUse">
      <stop stop-color="#FF014A"/>
      <stop offset="1" stop-color="#FABD3F"/>
    </linearGradient>
    <linearGradient id="t" x1="198.867" x2="198.867" y1="266.17" y2="243.84" gradientUnits="userSpaceOnUse">
      <stop stop-color="#FF014A"/>
      <stop offset="1" stop-color="#FABD3F"/>
    </linearGradient>
    <linearGradient id="u" x1="219.014" x2="219.014" y1="266.17" y2="243.84" gradientUnits="userSpaceOnUse">
      <stop stop-color="#FF014A"/>
      <stop offset="1" stop-color="#FABD3F"/>
    </linearGradient>
    <linearGradient id="v" x1="239.36" x2="239.36" y1="266.176" y2="237.978" gradientUnits="userSpaceOnUse">
      <stop stop-color="#FF014A"/>
      <stop offset="1" stop-color="#FABD3F"/>
    </linearGradient>
    <linearGradient id="w" x1="140.685" x2="128.877" y1="102.899" y2="86.285" gradientUnits="userSpaceOnUse">
      <stop stop-color="#118ACE"/>
      <stop offset="1" stop-color="#2BE1F9"/>
    </linearGradient>
    <radialGradient id="m" cx="0" cy="0" r="1" gradientTransform="translate(136.672 211.565) scale(13.1072)" gradientUnits="userSpaceOnUse">
      <stop stop-color="#E8E9E9"/>
      <stop offset="1" stop-color="#E8E9E9"/>
    </radialGradient>
    <radialGradient id="o" cx="0" cy="0" r="1" gradientTransform="translate(199.731 211.565) scale(13.1072)" gradientUnits="userSpaceOnUse">
      <stop stop-color="#E8E9E9"/>
      <stop offset="1" stop-color="#E8E9E9"/>
    </radialGradient>
  </defs>
  <path fill="url(#a)" d="M239.232 143.469a4.383 4.383 0 0 0-5.85 2.041 65.202 65.202 0 0 1-58.47 36.724h-.365c-35.552-.199-64.467-29.728-64.467-65.818v-5.581a22.334 22.334 0 0 0-14.72-20.96l-18.893-6.784a4.384 4.384 0 0 0-2.957 8.25l18.887 6.777.601.244s8.5 2.099 14.599 15.008a33.125 33.125 0 0 0-7.885-8.96 13.435 13.435 0 0 1 1.632 6.4v5.58c0 40.896 32.832 74.349 73.19 74.58h.416a74.022 74.022 0 0 0 66.33-41.652 4.38 4.38 0 0 0-2.048-5.849Z"/>
  <path fill="url(#b)" d="M220.627 211.104a4.331 4.331 0 0 1-1.401-.23 159.796 159.796 0 0 0-45.696-6.714c-25.389 0-41.338 6.554-41.498 6.618a4.388 4.388 0 0 1-5.755-5.706 4.382 4.382 0 0 1 2.363-2.384c.71-.301 17.747-7.302 44.877-7.302 26.969 0 47.635 6.899 48.505 7.193a4.38 4.38 0 0 1 1.428 7.488 4.374 4.374 0 0 1-2.836 1.037h.013Z"/>
  <path fill="url(#c)" d="M214.246 117.837c-8.608-6.17-19.456-8.755-30.048-8.448a77.767 77.767 0 0 0-30.636 7.622c14.227-6.694 29.721-11.321 45.478-10.656a59.532 59.532 0 0 1 27.213 7.725 30.678 30.678 0 0 0-3.795-5.306 30.45 30.45 0 0 0-.884-.947c-7.596-7.821-18.598-11.897-29.542-12.422-10.944-.525-21.85 2.265-31.891 6.611-7.04 3.021-13.882 6.848-21.479 7.68-7.596.832-15.699-2.464-18.24-9.6a57.97 57.97 0 0 0-3.443 23.213c1.664 30.08 26.599 54.009 56.704 54.528a57.814 57.814 0 0 0 53.453-33.447 34.23 34.23 0 0 0 1.658-4.3c-1.645-8.89-7.168-16.967-14.548-22.253Z"/>
  <path fill="url(#d)" d="M214.246 117.837c-8.608-6.17-19.456-8.755-30.048-8.448a70.284 70.284 0 0 0-8.665.806 11 11 0 0 0-3.367 2.56c-1.606 1.92-2.342 4.685-1.28 6.951 1.063 2.265 3.796 3.596 6.4 3.788 2.605.192 5.159-.454 7.732-.844 2.572-.391 5.318-.506 7.641.64 3.943 1.977 5.363 6.918 5.459 11.328.122 5.504-1.28 11.18-4.71 15.475-3.43 4.294-9.133 6.957-14.547 5.984-5.075-.909-9.088-4.647-13.216-7.744-4.327-3.245-9.312-5.991-14.72-6.189-5.408-.198-11.2 2.784-12.839 7.936-.838 2.63-.832 5.984-3.2 7.354a4.697 4.697 0 0 1-4.019.07 57.74 57.74 0 0 0 51.763 19.748 57.726 57.726 0 0 0 44.557-32.926 34.077 34.077 0 0 0 1.658-4.3c-1.696-8.826-7.219-16.903-14.599-22.189Z" opacity=".3" style="mix-blend-mode:overlay"/>
  <path fill="url(#e)" d="M218.15 86.4c-.94-3.654-2.272-7.334-4.857-10.086-3.29-3.508-8.32-5.07-13.139-4.698-4.82.371-9.332 2.528-13.133 5.478-5.056-1.977-11.168-.128-14.951 3.764a14.221 14.221 0 0 0-2.816 15.097c7.271-3.648 17.28-4.525 27.335-3.104 9.12 1.28 16.582 4.864 23.552 10.88A63.33 63.33 0 0 0 218.15 86.4Zm-7.36-7.731a13.972 13.972 0 0 0-6.31-3.693 17.377 17.377 0 0 0-7.149-.422 12.884 12.884 0 0 1 17.626 10.988c-1.146-2.553-2.247-4.902-4.167-6.892v.019Z"/>
  <path fill="url(#f)" d="M187.373 75.392c-.986-9.363 1.92-14.246 6.873-17.92-1.5-.4-3.073-.445-4.595-.134a18.527 18.527 0 0 0-4.141 8.646c-.579 3.167-.31 6.43.781 9.46.307-.046.775-.014 1.082-.052Z"/>
  <path fill="url(#g)" d="M209.402 88.634c-2.605-1.421-4.845-3.444-7.482-4.794-2.637-1.35-5.978-1.92-8.486-.346-1.396.877-2.343 2.292-3.348 3.604-1.004 1.312-2.188 2.604-3.776 3.052-1.587.448-3.616-.313-3.968-1.92-.377-1.74 1.248-3.29 1.44-5.056.192-1.766-1.171-3.417-2.835-4.012a7.494 7.494 0 0 0-5.171.358 12.732 12.732 0 0 0-3.782 2.355 13.708 13.708 0 0 0-2.797 3.501 14.197 14.197 0 0 0 .057 10.566c7.271-3.648 17.28-4.524 27.335-3.104 9.12 1.28 16.582 4.864 23.552 10.88a63.35 63.35 0 0 0-1.389-14.758 7.56 7.56 0 0 1-.858.531c-2.636 1.331-5.894.563-8.492-.857Z"/>
  <path fill="url(#h)" d="M147.782 71.456a62.807 62.807 0 0 0-6.912-6.4 20.709 20.709 0 0 0-8.39-4.045 5.708 5.708 0 0 1 3.955-3.142 37.11 37.11 0 0 1 8.128 5.625 40.665 40.665 0 0 0 3.219 7.962Z"/>
  <path fill="url(#i)" d="M148.134 71.226a25.48 25.48 0 0 1-3.091-8.122 70.105 70.105 0 0 1-1.043-8.32c1.22-.567 2.54-.889 3.885-.947a19.552 19.552 0 0 0 0 8.153 59.15 59.15 0 0 0 2.221 7.936 11.88 11.88 0 0 0-1.972 1.3Z"/>
  <path fill="url(#j)" d="M169.075 77.44a18.359 18.359 0 0 0-4.185 1.184 12.74 12.74 0 0 1 3.808-2.253c-.378-1.075-.762-2.15-1.133-3.257-.512-1.524-1.063-3.11-2.227-4.218a6.344 6.344 0 0 0-3.917-1.58 13.164 13.164 0 0 0-4.256.537 29.343 29.343 0 0 0-11.853 6.349c-1.664 1.472-3.2 3.238-3.706 5.401a8.799 8.799 0 0 0 .506 4.98c.386.992.857 1.949 1.408 2.86a16.637 16.637 0 0 1 7.277-3.891 12.004 12.004 0 0 0-6.016 5.978c1.875 3.02 3.757 5.939 5.632 8.89a23.863 23.863 0 0 1 8.691-4.282 29.331 29.331 0 0 0-4.96 3.136 10.987 10.987 0 0 0-2.56 3.02c.486.768.973 1.543 1.459 2.33a42.1 42.1 0 0 1 12.858-5.555 19.233 19.233 0 0 1 4.006-17.19 46.734 46.734 0 0 0-.832-2.439Z"/>
  <path fill="url(#k)" d="M169.075 77.44a18.359 18.359 0 0 0-4.185 1.184 12.74 12.74 0 0 1 3.808-2.253c-.378-1.075-.762-2.15-1.133-3.257 0-.07-.051-.141-.071-.212a10.566 10.566 0 0 0-5.216 0 6.788 6.788 0 0 0-4.787 4.621c-.582 2.253.48 4.909 2.56 5.875.864.397 1.92.544 2.56 1.248.851.941.57 2.522-.294 3.45a6.561 6.561 0 0 1-3.367 1.632 12.213 12.213 0 0 0-3.596 1.171c-1.082.64-1.92 1.92-1.696 3.143a3.196 3.196 0 0 0 1.062 1.708 23.61 23.61 0 0 1 4.378-1.612 40.012 40.012 0 0 0-3.687 2.176c.186.14.378.275.563.403.992.685 2.068 1.523 2.221 2.726.007.115.007.23 0 .346a37.393 37.393 0 0 1 7.68-2.72 19.246 19.246 0 0 1 4.007-17.19 31.182 31.182 0 0 0-.807-2.439Z"/>
  <path fill="url(#l)" d="M151.167 228.588c3.999-3.998 3.999-10.482 0-14.481-3.999-3.999-10.483-3.999-14.482 0-3.999 3.999-3.999 10.483 0 14.481 3.999 3.999 10.483 3.999 14.482 0Z"/>
  <path fill="url(#m)" d="M136.896 223.264a9.099 9.099 0 0 1 3.969-7.511 9.092 9.092 0 0 1 8.441-.956 8.475 8.475 0 0 0-11.52 12.416 8.997 8.997 0 0 1-.89-3.949Z" opacity=".58" style="mix-blend-mode:screen"/>
  <path fill="url(#n)" d="M214.296 228.589c3.999-3.999 3.999-10.482 0-14.481-3.999-3.999-10.483-3.999-14.482 0-3.999 3.999-3.999 10.482 0 14.481 3.999 3.999 10.483 3.999 14.482 0Z"/>
  <path fill="url(#o)" d="M199.955 223.264a9.085 9.085 0 0 1 3.964-7.511 9.09 9.09 0 0 1 8.439-.956 8.473 8.473 0 0 0-11.52 12.416 9.095 9.095 0 0 1-.883-3.949Z" opacity=".58" style="mix-blend-mode:screen"/>
  <path fill="url(#p)" d="M104.474 265.773V242.97h-8.218v-2.016a2.888 2.888 0 0 1 2.9-2.9h19.199v4.916h-8.16v22.803h-5.721Z"/>
  <path fill="url(#q)" d="m123.219 254.554-.813-1.044a4.295 4.295 0 0 1-.87-1.516 4.076 4.076 0 0 1-.294-1.511 4.223 4.223 0 0 1 1.452-3.424 5.228 5.228 0 0 1 3.783-1.337 5.116 5.116 0 0 1 3.603 1.216 4.02 4.02 0 0 1 1.338 3.2 4.946 4.946 0 0 1-.756 2.732 8.347 8.347 0 0 1-2.502 2.208l2.906 3.546c.25-.467.464-.953.64-1.453.115-.736.211-1.357.294-1.862h2.093c.64 0 .985.179 1.101.525.111.315.15.652.115.985a19.388 19.388 0 0 1-.461 1.747c-.435.99-.982 1.927-1.632 2.791l3.661 4.416h-4.647l-1.337-1.683c-.408.37-.835.718-1.28 1.043a3.788 3.788 0 0 1-1.338.64 13.849 13.849 0 0 1-4.006.237 6.455 6.455 0 0 1-3.552-1.338 5.47 5.47 0 0 1-1.677-4.192 5.873 5.873 0 0 1 .928-3.315 9.353 9.353 0 0 1 3.251-2.611Zm1.978 2.444-1.037.756a2.84 2.84 0 0 0-.928 1.043c-.23.429-.349.908-.346 1.395a2.634 2.634 0 0 0 .813 1.92 2.668 2.668 0 0 0 1.971.813 4.581 4.581 0 0 0 1.69-.346 4.73 4.73 0 0 0 1.453-1.049l-3.616-4.532Zm1.043-4.243.525-.352c.378-.256.695-.592.928-.985a2.41 2.41 0 0 0 .352-1.28 1.386 1.386 0 0 0-.467-1.108 1.876 1.876 0 0 0-2.324 0 1.535 1.535 0 0 0-.349.505c-.08.191-.12.396-.118.603.033.282.114.556.237.812.036.19.115.37.23.525l.346.461.64.819Z"/>
  <path fill="url(#r)" d="M145.971 265.773V242.97h-8.217v-2.016a2.884 2.884 0 0 1 2.899-2.9h19.2v4.916h-8.173v22.803h-5.709Z"/>
  <path fill="url(#s)" d="M168.365 265.773v-24.819a2.9 2.9 0 0 1 .849-2.055 2.897 2.897 0 0 1 2.056-.845h17.242v4.756H174.01v5.964h10.796v1.85a2.879 2.879 0 0 1-.845 2.054 2.887 2.887 0 0 1-2.054.845h-7.897v12.25h-5.645Z"/>
  <path fill="url(#t)" d="M192.141 263.84a7.887 7.887 0 0 1-2.419-3.91 17.857 17.857 0 0 1-.724-5.12c.002-1.472.205-2.936.602-4.352a8.995 8.995 0 0 1 1.92-3.629 8.406 8.406 0 0 1 5.402-2.861 12.476 12.476 0 0 1 5.958.512 8.23 8.23 0 0 1 4.512 4.192 13.347 13.347 0 0 1 1.37 6.202c.03 1.498-.16 2.992-.564 4.435a11.419 11.419 0 0 1-1.446 3.142 8.066 8.066 0 0 1-4.915 3.303c-1.75.484-3.593.526-5.363.121a9.375 9.375 0 0 1-4.333-2.035Zm3.84-14.182c-1.127 1.237-1.636 3.078-1.53 5.523.107 2.445.563 4.151 1.37 5.12a3.594 3.594 0 0 0 1.689 1.088 3.894 3.894 0 0 0 2.458.083 4.123 4.123 0 0 0 2.272-1.824c.644-.964.994-2.522 1.05-4.672 0-1.933-.31-3.383-.928-4.352a4.165 4.165 0 0 0-2.132-1.85 3.906 3.906 0 0 0-2.419-.044 4.278 4.278 0 0 0-1.805.928h-.025Z"/>
  <path fill="url(#u)" d="M212.282 263.84a7.922 7.922 0 0 1-2.413-3.91 17.858 17.858 0 0 1-.73-5.12c.015-1.473.23-2.938.64-4.352a8.922 8.922 0 0 1 1.92-3.629 8.4 8.4 0 0 1 5.395-2.861 12.494 12.494 0 0 1 5.965.525 8.23 8.23 0 0 1 4.512 4.192 13.346 13.346 0 0 1 1.37 6.201 15.566 15.566 0 0 1-.563 4.436 11.468 11.468 0 0 1-1.453 3.142 8.027 8.027 0 0 1-4.915 3.302 10.918 10.918 0 0 1-5.357.122 9.407 9.407 0 0 1-4.371-2.048Zm3.872-14.182c-1.133 1.235-1.639 3.078-1.536 5.523.102 2.445.569 4.147 1.369 5.12a3.66 3.66 0 0 0 1.696 1.088 3.894 3.894 0 0 0 2.458.083 4.139 4.139 0 0 0 2.214-1.818c.64-.966.992-2.521 1.05-4.672 0-1.92-.314-3.385-.928-4.352a4.201 4.201 0 0 0-2.138-1.849 3.895 3.895 0 0 0-2.413-.045 4.213 4.213 0 0 0-1.772.922Z"/>
  <path fill="url(#v)" d="M243.949 237.978h2.745a2.566 2.566 0 0 1 1.92.844 2.694 2.694 0 0 1 .807 1.92v15.712c0 3.815-1.103 6.392-3.309 7.732a13.508 13.508 0 0 1-7.168 2.016 12.71 12.71 0 0 1-4.109-.685 6.738 6.738 0 0 1-3.2-2.215c-1.555-1.99-2.336-4.697-2.336-8.14 0-3.444.781-6.093 2.336-8.135a7.87 7.87 0 0 1 9.747-2.342 7.675 7.675 0 0 1 2.56 2.502l.007-9.209Zm-9.184 16.915c0 2.133.403 3.774 1.209 4.921a3.998 3.998 0 0 0 3.463 1.69 3.913 3.913 0 0 0 3.385-1.69c.756-1.132 1.127-2.771 1.127-4.921a7.79 7.79 0 0 0-1.203-4.589 4.23 4.23 0 0 0-3.469-1.613 3.844 3.844 0 0 0-3.303 1.696 7.354 7.354 0 0 0-1.209 4.506Z"/>
  <path fill="url(#w)" d="M149.082 104.096c0-1.178-.064-2.374-.16-3.584a57.202 57.202 0 0 1-8.807-20.173 31.741 31.741 0 0 0-14.035-7.789s-5.715 8.544-4.378 19.533c2.14.562 4.405.411 6.452-.429 4.633-1.92 7.129-6.726 5.996-11.212.208.363.392.739.551 1.126 1.952 4.787-.557 10.336-5.607 12.397-.926.38-1.902.624-2.899.723-2.131.211-3.104 2.304-2.681 4.403.134.64.096.448.102.467.109 1.12 1.549 3.712 2.496 4.16.019.007 11.488 5.927 22.97.378Zm-19.514-23.13a1.402 1.402 0 1 1-1.057-2.596 1.402 1.402 0 0 1 1.057 2.596Z"/>

</svg>
