<svg width="16" height="14" viewBox="0 0 16 14" fill="none" xmlns="http://www.w3.org/2000/svg">
<g id="Lager 85">
<path id="Path 93" d="M11.6533 5.43654H9.06134C9.05613 5.43654 9.05091 5.43654 9.04526 5.43654H7.65038L10.5353 2.55159C10.6946 2.39231 10.784 2.17631 10.784 1.95109C10.784 1.72586 10.6946 1.50986 10.5353 1.35058L10.5232 1.33841C10.3639 1.17918 10.1479 1.08972 9.92265 1.08972C9.69743 1.08972 9.48143 1.17918 9.32215 1.33841L5.04624 5.61345C5.01562 5.6353 4.98657 5.65927 4.9593 5.68517L4.95496 5.68952L4.95148 5.693L4.94713 5.69735C4.91944 5.72706 4.89374 5.75857 4.87019 5.79167C4.86281 5.80167 4.85368 5.81036 4.84672 5.82079C4.74941 5.96233 4.6977 6.13022 4.6985 6.30198V6.3098C4.69762 6.4815 4.74918 6.64938 4.84629 6.79099C4.85281 6.80142 4.86194 6.80968 4.86932 6.81968C4.89288 6.85303 4.91873 6.88469 4.9467 6.91444L4.95148 6.91879L4.95452 6.92183L4.95887 6.92661C4.98614 6.95252 5.01519 6.97648 5.0458 6.99833L9.32041 11.2734C9.47969 11.4326 9.69569 11.5221 9.92091 11.5221C10.1461 11.5221 10.3621 11.4326 10.5214 11.2734L10.5336 11.2612C10.6928 11.1019 10.7823 10.8859 10.7823 10.6607C10.7823 10.4355 10.6928 10.2195 10.5336 10.0602L7.65038 7.17524H9.04526C9.05091 7.17524 9.05613 7.17524 9.06134 7.17524H11.6533C12.3448 7.17605 13.0077 7.45109 13.4966 7.94002C13.9855 8.42895 14.2606 9.09185 14.2614 9.7833V12.3888C14.2614 12.6193 14.353 12.8404 14.516 13.0035C14.679 13.1665 14.9002 13.2581 15.1307 13.2581C15.3613 13.2581 15.5824 13.1665 15.7455 13.0035C15.9085 12.8404 16.0001 12.6193 16.0001 12.3888V9.7833C16.0001 8.63047 15.5421 7.52485 14.7269 6.70968C13.9118 5.8945 12.8062 5.43654 11.6533 5.43654Z" fill="white"/>
<g id="Group 38">
<path id="Rectangle 43" d="M4.97528 1.33881L0.600586 5.7135C0.268892 6.0452 0.268892 6.58298 0.600586 6.91467L0.612574 6.92666C0.944268 7.25836 1.48205 7.25836 1.81375 6.92666L6.18844 2.55197C6.52013 2.22027 6.52013 1.68249 6.18844 1.3508L6.17645 1.33881C5.84476 1.00711 5.30697 1.00711 4.97528 1.33881Z" fill="white"/>
</g>
<g id="Group 39">
<path id="Rectangle 44" d="M0.612574 5.68503L0.600586 5.69702C0.268892 6.02872 0.268892 6.5665 0.600586 6.89819L4.97528 11.2729C5.30697 11.6046 5.84476 11.6046 6.17645 11.2729L6.18844 11.2609C6.52013 10.9292 6.52013 10.3914 6.18844 10.0597L1.81375 5.68503C1.48205 5.35334 0.944268 5.35334 0.612574 5.68503Z" fill="white"/>
</g>
</g>
</svg>
