<svg width="320" height="320" viewBox="0 0 320 320" fill="none" xmlns="http://www.w3.org/2000/svg">
<path d="M239.232 143.469C238.185 142.965 236.982 142.896 235.885 143.279C234.788 143.662 233.888 144.465 233.382 145.51C228.05 156.491 219.743 165.754 209.406 172.246C199.07 178.738 187.118 182.198 174.912 182.234H174.547C138.995 182.035 110.08 152.506 110.08 116.416V110.835C110.073 106.253 108.657 101.785 106.024 98.0349C103.391 94.2854 99.6676 91.4366 95.36 89.8752L76.4672 83.0912C75.3838 82.7417 74.207 82.8274 73.1856 83.33C72.1643 83.8326 71.3785 84.7128 70.9944 85.7843C70.6103 86.8559 70.6581 88.0349 71.1277 89.0719C71.5972 90.1088 72.4517 90.9225 73.5104 91.3408L92.3968 98.1184L92.9984 98.3616C92.9984 98.3616 101.498 100.461 107.597 113.37C105.532 109.93 102.861 106.894 99.712 104.41C100.78 106.374 101.341 108.574 101.344 110.81V116.39C101.344 157.286 134.176 190.739 174.534 190.97H174.95C188.795 190.925 202.35 186.998 214.075 179.635C225.8 172.273 235.225 161.769 241.28 149.318C241.784 148.271 241.851 147.067 241.467 145.97C241.083 144.873 240.279 143.973 239.232 143.469Z" fill="url(#paint0_linear_2_144)"/>
<path d="M220.627 211.104C220.15 211.105 219.677 211.027 219.226 210.874C204.399 206.435 189.006 204.173 173.53 204.16C148.141 204.16 132.192 210.714 132.032 210.778C130.959 211.227 129.752 211.233 128.675 210.792C127.598 210.352 126.741 209.502 126.291 208.429C125.841 207.356 125.836 206.149 126.277 205.072C126.717 203.995 127.567 203.138 128.64 202.688C129.35 202.387 146.387 195.386 173.517 195.386C200.486 195.386 221.152 202.285 222.022 202.579C223.006 202.912 223.84 203.583 224.374 204.473C224.909 205.364 225.109 206.415 224.94 207.44C224.771 208.464 224.243 209.395 223.45 210.067C222.658 210.738 221.653 211.106 220.614 211.104H220.627Z" fill="url(#paint1_linear_2_144)"/>
<path d="M214.246 117.837C205.638 111.667 194.79 109.082 184.198 109.389C173.572 109.808 163.145 112.403 153.562 117.011C167.789 110.317 183.283 105.69 199.04 106.355C208.6 106.706 217.934 109.356 226.253 114.08C225.18 112.181 223.908 110.403 222.458 108.774C222.17 108.454 221.875 108.134 221.574 107.827C213.978 100.006 202.976 95.9296 192.032 95.4048C181.088 94.88 170.182 97.6704 160.141 102.016C153.101 105.037 146.259 108.864 138.662 109.696C131.066 110.528 122.963 107.232 120.422 100.096C117.704 107.518 116.532 115.417 116.979 123.309C118.643 153.389 143.578 177.318 173.683 177.837C184.874 178.035 195.882 174.98 205.371 169.043C214.859 163.105 222.42 154.542 227.136 144.39C227.785 142.996 228.338 141.559 228.794 140.09C227.149 131.2 221.626 123.123 214.246 117.837Z" fill="url(#paint2_linear_2_144)"/>
<path style="mix-blend-mode:overlay" opacity="0.3" d="M214.246 117.837C205.638 111.667 194.79 109.082 184.198 109.389C181.296 109.478 178.402 109.748 175.533 110.195C174.255 110.823 173.112 111.692 172.166 112.755C170.56 114.675 169.824 117.44 170.886 119.706C171.949 121.971 174.682 123.302 177.286 123.494C179.891 123.686 182.445 123.04 185.018 122.65C187.59 122.259 190.336 122.144 192.659 123.29C196.602 125.267 198.022 130.208 198.118 134.618C198.24 140.122 196.838 145.798 193.408 150.093C189.978 154.387 184.275 157.05 178.861 156.077C173.786 155.168 169.773 151.43 165.645 148.333C161.318 145.088 156.333 142.342 150.925 142.144C145.517 141.946 139.725 144.928 138.086 150.08C137.248 152.71 137.254 156.064 134.886 157.434C134.263 157.742 133.58 157.908 132.885 157.92C132.19 157.933 131.501 157.79 130.867 157.504C137.148 164.872 145.18 170.542 154.225 173.993C163.271 177.443 173.038 178.564 182.63 177.252C192.222 175.94 201.33 172.237 209.116 166.483C216.902 160.729 223.116 153.11 227.187 144.326C227.836 142.932 228.39 141.495 228.845 140.026C227.149 131.2 221.626 123.123 214.246 117.837Z" fill="url(#paint3_linear_2_144)"/>
<path d="M218.15 86.4C217.21 82.7456 215.878 79.0656 213.293 76.3136C210.003 72.8064 204.973 71.2448 200.154 71.616C195.334 71.9872 190.822 74.144 187.021 77.0944C181.965 75.1168 175.853 76.9664 172.07 80.8576C170.205 82.8406 168.948 85.3173 168.449 87.9936C167.95 90.6698 168.229 93.4331 169.254 95.9552C176.525 92.3072 186.534 91.4304 196.589 92.8512C205.709 94.1312 213.171 97.7152 220.141 103.731C220.28 97.89 219.61 92.0577 218.15 86.4ZM210.79 78.6688C209.052 76.8998 206.874 75.6252 204.48 74.976C202.152 74.3404 199.718 74.1965 197.331 74.5536C199.209 73.8033 201.238 73.5058 203.252 73.685C205.266 73.8641 207.21 74.515 208.927 75.585C210.643 76.6549 212.083 78.1139 213.13 79.8437C214.178 81.5736 214.804 83.5258 214.957 85.5424C213.811 82.9888 212.71 80.64 210.79 78.6496V78.6688Z" fill="url(#paint4_linear_2_144)"/>
<path d="M187.373 75.392C186.387 66.0288 189.293 61.1456 194.246 57.472C192.746 57.0727 191.173 57.0267 189.651 57.3376C187.536 59.8062 186.108 62.7883 185.51 65.984C184.931 69.1507 185.2 72.4144 186.291 75.4432C186.598 75.3984 187.066 75.4304 187.373 75.392Z" fill="url(#paint5_linear_2_144)"/>
<path d="M209.402 88.6336C206.797 87.2128 204.557 85.1904 201.92 83.84C199.283 82.4896 195.942 81.92 193.434 83.4944C192.038 84.3712 191.091 85.7856 190.086 87.0976C189.082 88.4096 187.898 89.7024 186.31 90.1504C184.723 90.5984 182.694 89.8368 182.342 88.2304C181.965 86.4896 183.59 84.9408 183.782 83.1744C183.974 81.408 182.611 79.7568 180.947 79.1616C179.236 78.6622 177.402 78.7892 175.776 79.52C174.387 80.0767 173.106 80.874 171.994 81.8752C170.876 82.8808 169.931 84.0635 169.197 85.376C167.856 88.7743 167.876 92.5589 169.254 95.9424C176.525 92.2944 186.534 91.4176 196.589 92.8384C205.709 94.1184 213.171 97.7024 220.141 103.718C220.257 98.7615 219.791 93.8082 218.752 88.96C218.478 89.1559 218.192 89.3334 217.894 89.4912C215.258 90.8224 212 90.0544 209.402 88.6336Z" fill="url(#paint6_linear_2_144)"/>
<path d="M147.782 71.456C145.642 69.1529 143.331 67.0136 140.87 65.056C138.417 63.0883 135.548 61.7051 132.48 61.0112C132.854 60.2188 133.405 59.5231 134.091 58.9781C134.777 58.4332 135.579 58.0536 136.435 57.8688C139.383 59.3733 142.117 61.2652 144.563 63.4944C145.352 66.2545 146.431 68.9232 147.782 71.456Z" fill="url(#paint7_linear_2_144)"/>
<path d="M148.134 71.2256C146.646 68.7155 145.601 65.9683 145.043 63.104C144.53 60.354 144.181 57.5757 144 54.784C145.22 54.2172 146.54 53.8953 147.885 53.8368C147.312 56.5245 147.312 59.3027 147.885 61.9904C148.44 64.6842 149.182 67.3359 150.106 69.9264C149.407 70.2928 148.747 70.728 148.134 71.2256Z" fill="url(#paint8_linear_2_144)"/>
<path d="M169.075 77.44C167.638 77.6675 166.233 78.0649 164.89 78.624C166.018 77.6568 167.307 76.8943 168.698 76.3712C168.32 75.296 167.936 74.2208 167.565 73.1136C167.053 71.5904 166.502 70.0032 165.338 68.896C164.251 67.937 162.869 67.3792 161.421 67.3152C159.982 67.2605 158.545 67.4421 157.165 67.8528C152.776 69.0231 148.718 71.1965 145.312 74.2016C143.648 75.6736 142.112 77.44 141.606 79.6032C141.289 81.2769 141.465 83.0066 142.112 84.5824C142.498 85.5746 142.969 86.5318 143.52 87.4432C145.58 85.5557 148.083 84.2175 150.797 83.552C148.131 84.7464 145.992 86.8716 144.781 89.5296C146.656 92.5504 148.538 95.4688 150.413 98.4192C152.987 96.4126 155.945 94.9554 159.104 94.1376C157.35 95.0146 155.688 96.0652 154.144 97.2736C153.115 98.1171 152.247 99.1407 151.584 100.294C152.07 101.062 152.557 101.837 153.043 102.624C156.989 100.067 161.335 98.1897 165.901 97.0688C165.148 94.0917 165.119 90.9776 165.816 87.987C166.513 84.9964 167.916 82.216 169.907 79.8784C169.645 79.0272 169.363 78.2208 169.075 77.44Z" fill="url(#paint9_linear_2_144)"/>
<path d="M169.075 77.44C167.638 77.6675 166.233 78.0649 164.89 78.624C166.018 77.6568 167.307 76.8943 168.698 76.3712C168.32 75.296 167.936 74.2208 167.565 73.1136C167.565 73.0432 167.514 72.9728 167.494 72.9024C165.783 72.4665 163.99 72.4665 162.278 72.9024C161.151 73.1971 160.118 73.777 159.28 74.5863C158.442 75.3956 157.826 76.407 157.491 77.5232C156.909 79.776 157.971 82.432 160.051 83.3984C160.915 83.7952 161.971 83.9424 162.611 84.6464C163.462 85.5872 163.181 87.168 162.317 88.096C161.377 88.9552 160.207 89.5223 158.95 89.728C157.698 89.9294 156.484 90.3245 155.354 90.8992C154.272 91.5392 153.434 92.8192 153.658 94.0416C153.819 94.7106 154.191 95.3099 154.72 95.7504C156.122 95.0697 157.589 94.5294 159.098 94.1376C157.831 94.7967 156.6 95.5231 155.411 96.3136C155.597 96.4544 155.789 96.5888 155.974 96.7168C156.966 97.4016 158.042 98.24 158.195 99.4432C158.202 99.5583 158.202 99.6737 158.195 99.7888C160.648 98.6051 163.224 97.693 165.875 97.0688C165.123 94.0917 165.094 90.9777 165.791 87.987C166.488 84.9964 167.89 82.216 169.882 79.8784C169.645 79.0272 169.363 78.2208 169.075 77.44Z" fill="url(#paint10_linear_2_144)"/>
<path d="M151.167 228.588C155.166 224.59 155.166 218.106 151.167 214.107C147.168 210.108 140.684 210.108 136.685 214.107C132.686 218.106 132.686 224.59 136.685 228.588C140.684 232.587 147.168 232.587 151.167 228.588Z" fill="url(#paint11_linear_2_144)"/>
<path style="mix-blend-mode:screen" opacity="0.58" d="M136.896 223.264C136.896 221.784 137.258 220.326 137.949 219.017C138.641 217.708 139.642 216.587 140.865 215.753C142.088 214.919 143.496 214.395 144.967 214.229C146.438 214.062 147.927 214.257 149.306 214.797C147.645 213.359 145.49 212.622 143.297 212.742C141.103 212.862 139.042 213.829 137.548 215.44C136.053 217.05 135.243 219.178 135.287 221.374C135.332 223.571 136.228 225.664 137.786 227.213C137.193 225.981 136.889 224.631 136.896 223.264Z" fill="url(#paint12_radial_2_144)"/>
<path d="M214.296 228.589C218.295 224.59 218.295 218.107 214.296 214.108C210.297 210.109 203.813 210.109 199.814 214.108C195.815 218.107 195.815 224.59 199.814 228.589C203.813 232.588 210.297 232.588 214.296 228.589Z" fill="url(#paint13_linear_2_144)"/>
<path style="mix-blend-mode:screen" opacity="0.58" d="M199.955 223.264C199.954 221.784 200.315 220.326 201.006 219.017C201.697 217.708 202.697 216.587 203.919 215.753C205.142 214.918 206.549 214.395 208.02 214.228C209.491 214.062 210.98 214.257 212.358 214.797C210.697 213.359 208.543 212.622 206.349 212.742C204.156 212.862 202.095 213.829 200.6 215.44C199.106 217.05 198.296 219.178 198.34 221.374C198.385 223.571 199.28 225.664 200.838 227.213C200.251 225.98 199.949 224.63 199.955 223.264Z" fill="url(#paint14_radial_2_144)"/>
<path d="M104.474 265.773V242.97H96.256V240.954C96.2543 240.572 96.3282 240.195 96.4733 239.842C96.6184 239.49 96.8318 239.169 97.1014 238.9C97.3709 238.63 97.6912 238.417 98.0437 238.272C98.3962 238.127 98.774 238.053 99.1552 238.054H118.355V242.97H110.195V265.773H104.474Z" fill="url(#paint15_linear_2_144)"/>
<path d="M123.219 254.554L122.406 253.51C122.015 253.07 121.719 252.553 121.536 251.994C121.343 251.513 121.243 251.001 121.242 250.483C121.207 249.84 121.32 249.196 121.572 248.603C121.823 248.01 122.207 247.482 122.694 247.059C123.206 246.598 123.803 246.242 124.452 246.013C125.101 245.783 125.789 245.684 126.477 245.722C127.789 245.649 129.08 246.085 130.08 246.938C130.527 247.338 130.88 247.832 131.111 248.386C131.343 248.94 131.447 249.538 131.418 250.138C131.438 251.103 131.175 252.053 130.662 252.87C129.985 253.767 129.134 254.518 128.16 255.078L131.066 258.624C131.316 258.157 131.53 257.671 131.706 257.171C131.821 256.435 131.917 255.814 132 255.309H134.093C134.733 255.309 135.078 255.488 135.194 255.834C135.305 256.149 135.344 256.486 135.309 256.819C135.194 257.365 135.04 257.948 134.848 258.566C134.413 259.556 133.866 260.493 133.216 261.357L136.877 265.773H132.23L130.893 264.09C130.485 264.46 130.058 264.808 129.613 265.133C129.214 265.432 128.759 265.65 128.275 265.773C126.958 266.046 125.609 266.126 124.269 266.01C122.978 265.93 121.74 265.464 120.717 264.672C120.155 264.133 119.715 263.48 119.425 262.757C119.136 262.034 119.005 261.258 119.04 260.48C119.011 259.307 119.335 258.152 119.968 257.165C120.842 256.061 121.953 255.168 123.219 254.554ZM125.197 256.998L124.16 257.754C123.769 258.019 123.45 258.377 123.232 258.797C123.002 259.226 122.883 259.705 122.886 260.192C122.884 260.551 122.954 260.906 123.094 261.236C123.234 261.566 123.44 261.864 123.699 262.112C123.954 262.376 124.261 262.584 124.6 262.724C124.939 262.864 125.304 262.932 125.67 262.925C126.25 262.918 126.824 262.8 127.36 262.579C127.907 262.325 128.4 261.969 128.813 261.53L125.197 256.998ZM126.24 252.755L126.765 252.403C127.143 252.147 127.46 251.811 127.693 251.418C127.928 251.032 128.05 250.589 128.045 250.138C128.055 249.93 128.018 249.722 127.937 249.531C127.856 249.339 127.733 249.168 127.578 249.03C127.247 248.769 126.838 248.627 126.416 248.627C125.995 248.627 125.585 248.769 125.254 249.03C125.105 249.173 124.986 249.345 124.905 249.535C124.825 249.726 124.785 249.931 124.787 250.138C124.82 250.42 124.901 250.694 125.024 250.95C125.06 251.14 125.139 251.32 125.254 251.475L125.6 251.936L126.24 252.755Z" fill="url(#paint16_linear_2_144)"/>
<path d="M145.971 265.773V242.97H137.754V240.954C137.752 240.572 137.826 240.195 137.971 239.842C138.116 239.49 138.329 239.169 138.599 238.9C138.868 238.63 139.189 238.417 139.541 238.272C139.894 238.127 140.272 238.053 140.653 238.054H159.853V242.97H151.68V265.773H145.971Z" fill="url(#paint17_linear_2_144)"/>
<path d="M168.365 265.773V240.954C168.364 240.572 168.439 240.194 168.584 239.842C168.73 239.489 168.944 239.169 169.214 238.899C169.484 238.63 169.805 238.417 170.158 238.272C170.511 238.127 170.889 238.053 171.27 238.054H188.512V242.81H174.01V248.774H184.806V250.624C184.808 251.005 184.734 251.383 184.589 251.735C184.444 252.088 184.231 252.408 183.961 252.678C183.691 252.947 183.371 253.161 183.019 253.306C182.666 253.451 182.288 253.525 181.907 253.523H174.01V265.773H168.365Z" fill="url(#paint18_linear_2_144)"/>
<path d="M192.141 263.84C190.964 262.806 190.122 261.444 189.722 259.93C189.233 258.267 188.99 256.542 188.998 254.81C189 253.338 189.203 251.874 189.6 250.458C189.952 249.116 190.609 247.874 191.52 246.829C192.898 245.231 194.826 244.21 196.922 243.968C198.92 243.653 200.965 243.829 202.88 244.48C204.87 245.241 206.487 246.743 207.392 248.672C208.341 250.599 208.811 252.726 208.762 254.874C208.792 256.372 208.602 257.866 208.198 259.309C207.878 260.424 207.391 261.483 206.752 262.451C205.592 264.135 203.835 265.316 201.837 265.754C200.087 266.238 198.244 266.28 196.474 265.875C194.878 265.583 193.385 264.882 192.141 263.84ZM195.981 249.658C194.854 250.895 194.345 252.736 194.451 255.181C194.558 257.626 195.014 259.332 195.821 260.301C196.269 260.817 196.855 261.194 197.51 261.389C198.299 261.681 199.161 261.711 199.968 261.472C200.922 261.161 201.73 260.512 202.24 259.648C202.884 258.684 203.234 257.126 203.29 254.976C203.29 253.043 202.98 251.593 202.362 250.624C201.888 249.778 201.135 249.124 200.23 248.774C199.449 248.504 198.602 248.488 197.811 248.73C197.144 248.89 196.525 249.208 196.006 249.658H195.981Z" fill="url(#paint19_linear_2_144)"/>
<path d="M212.282 263.84C211.109 262.803 210.269 261.443 209.869 259.93C209.378 258.267 209.133 256.543 209.139 254.81C209.154 253.337 209.369 251.872 209.779 250.458C210.128 249.115 210.786 247.873 211.699 246.829C213.075 245.232 215.001 244.211 217.094 243.968C219.096 243.657 221.143 243.837 223.059 244.493C225.049 245.254 226.666 246.756 227.571 248.685C228.52 250.612 228.99 252.739 228.941 254.886C228.968 256.384 228.778 257.878 228.378 259.322C228.055 260.437 227.566 261.496 226.925 262.464C225.767 264.151 224.009 265.332 222.01 265.766C220.262 266.251 218.421 266.293 216.653 265.888C215.042 265.597 213.536 264.891 212.282 263.84ZM216.154 249.658C215.021 250.893 214.515 252.736 214.618 255.181C214.72 257.626 215.187 259.328 215.987 260.301C216.439 260.815 217.027 261.192 217.683 261.389C218.472 261.681 219.334 261.711 220.141 261.472C221.072 261.149 221.857 260.504 222.355 259.654C222.995 258.688 223.347 257.133 223.405 254.982C223.405 253.062 223.091 251.597 222.477 250.63C221.999 249.785 221.244 249.132 220.339 248.781C219.56 248.511 218.715 248.495 217.926 248.736C217.27 248.897 216.662 249.213 216.154 249.658Z" fill="url(#paint20_linear_2_144)"/>
<path d="M243.949 237.978H246.694C247.056 237.975 247.414 238.049 247.745 238.194C248.076 238.34 248.372 238.554 248.614 238.822C248.869 239.073 249.072 239.372 249.21 239.702C249.349 240.031 249.42 240.385 249.421 240.742V256.454C249.421 260.269 248.318 262.846 246.112 264.186C243.959 265.516 241.475 266.215 238.944 266.202C237.546 266.201 236.158 265.97 234.835 265.517C233.574 265.11 232.461 264.339 231.635 263.302C230.08 261.312 229.299 258.605 229.299 255.162C229.299 251.718 230.08 249.069 231.635 247.027C232.734 245.564 234.308 244.53 236.087 244.102C237.866 243.674 239.739 243.881 241.382 244.685C242.421 245.306 243.298 246.163 243.942 247.187L243.949 237.978ZM234.765 254.893C234.765 257.026 235.168 258.667 235.974 259.814C236.363 260.365 236.884 260.808 237.489 261.104C238.094 261.399 238.764 261.537 239.437 261.504C240.098 261.531 240.755 261.39 241.347 261.094C241.939 260.799 242.446 260.359 242.822 259.814C243.578 258.682 243.949 257.043 243.949 254.893C244.035 253.275 243.614 251.671 242.746 250.304C242.335 249.781 241.807 249.362 241.205 249.082C240.602 248.801 239.941 248.668 239.277 248.691C238.628 248.672 237.985 248.817 237.407 249.114C236.829 249.41 236.337 249.848 235.974 250.387C235.093 251.718 234.668 253.299 234.765 254.893Z" fill="url(#paint21_linear_2_144)"/>
<path d="M149.082 104.096C149.082 102.918 149.018 101.722 148.922 100.512C144.708 94.4212 141.717 87.5701 140.115 80.3392C136.181 76.5832 131.348 73.9012 126.08 72.5504C126.08 72.5504 120.365 81.0944 121.702 92.0832C123.842 92.6449 126.107 92.4944 128.154 91.6544C132.787 89.7344 135.283 84.928 134.15 80.4416C134.358 80.8048 134.542 81.181 134.701 81.568C136.653 86.3552 134.144 91.904 129.094 93.9648C128.168 94.3455 127.192 94.5891 126.195 94.688C124.064 94.8992 123.091 96.992 123.514 99.0912C123.648 99.7312 123.61 99.5392 123.616 99.5584C123.725 100.678 125.165 103.27 126.112 103.718C126.131 103.725 137.6 109.645 149.082 104.096ZM129.568 80.9664C129.311 81.0709 129.03 81.097 128.758 81.0414C128.487 80.9858 128.238 80.851 128.043 80.6541C127.848 80.4572 127.716 80.2069 127.663 79.935C127.611 79.663 127.64 79.3815 127.747 79.126C127.854 78.8705 128.035 78.6526 128.266 78.4996C128.497 78.3467 128.768 78.2656 129.045 78.2667C129.322 78.2678 129.592 78.3509 129.822 78.5056C130.052 78.6604 130.231 78.8797 130.336 79.136C130.406 79.3066 130.442 79.4893 130.441 79.6737C130.44 79.8581 130.403 80.0405 130.332 80.2106C130.26 80.3806 130.156 80.5349 130.025 80.6646C129.894 80.7943 129.739 80.8969 129.568 80.9664Z" fill="url(#paint22_linear_2_144)"/>
<defs>
<linearGradient id="paint0_linear_2_144" x1="70.5664" y1="136.915" x2="241.709" y2="136.915" gradientUnits="userSpaceOnUse">
<stop stop-color="#FF014A"/>
<stop offset="1" stop-color="#FABD3F"/>
</linearGradient>
<linearGradient id="paint1_linear_2_144" x1="125.965" y1="203.245" x2="225.011" y2="203.245" gradientUnits="userSpaceOnUse">
<stop stop-color="#FF014A"/>
<stop offset="1" stop-color="#FABD3F"/>
</linearGradient>
<linearGradient id="paint2_linear_2_144" x1="161.568" y1="90.5088" x2="184.346" y2="161.267" gradientUnits="userSpaceOnUse">
<stop stop-color="#A2D646"/>
<stop offset="1" stop-color="#099400"/>
</linearGradient>
<linearGradient id="paint3_linear_2_144" x1="110.138" y1="127.174" x2="227.264" y2="154.624" gradientUnits="userSpaceOnUse">
<stop stop-color="#A2D646"/>
<stop offset="1" stop-color="#099400"/>
</linearGradient>
<linearGradient id="paint4_linear_2_144" x1="168.198" y1="87.6288" x2="220.16" y2="87.6288" gradientUnits="userSpaceOnUse">
<stop stop-color="#FF014A"/>
<stop offset="1" stop-color="#FABD3F"/>
</linearGradient>
<linearGradient id="paint5_linear_2_144" x1="187.61" y1="53.024" x2="191.84" y2="75.3664" gradientUnits="userSpaceOnUse">
<stop stop-color="#FF014A"/>
<stop offset="1" stop-color="#FABD3F"/>
</linearGradient>
<linearGradient id="paint6_linear_2_144" x1="169.779" y1="85.4656" x2="219.93" y2="99.04" gradientUnits="userSpaceOnUse">
<stop stop-color="#FF014A"/>
<stop offset="1" stop-color="#FABD3F"/>
</linearGradient>
<linearGradient id="paint7_linear_2_144" x1="137.722" y1="53.44" x2="141.498" y2="73.376" gradientUnits="userSpaceOnUse">
<stop stop-color="#A2D646"/>
<stop offset="1" stop-color="#099400"/>
</linearGradient>
<linearGradient id="paint8_linear_2_144" x1="144.787" y1="49.6192" x2="148.998" y2="71.8784" gradientUnits="userSpaceOnUse">
<stop stop-color="#A2D646"/>
<stop offset="1" stop-color="#099400"/>
</linearGradient>
<linearGradient id="paint9_linear_2_144" x1="144.147" y1="70.2592" x2="165.606" y2="92.3264" gradientUnits="userSpaceOnUse">
<stop stop-color="#FF014A"/>
<stop offset="1" stop-color="#FABD3F"/>
</linearGradient>
<linearGradient id="paint10_linear_2_144" x1="127.379" y1="74.4064" x2="165.504" y2="87.2064" gradientUnits="userSpaceOnUse">
<stop stop-color="white"/>
<stop offset="1" stop-color="white" stop-opacity="0"/>
</linearGradient>
<linearGradient id="paint11_linear_2_144" x1="133.685" y1="221.352" x2="154.165" y2="221.352" gradientUnits="userSpaceOnUse">
<stop stop-color="#FF014A"/>
<stop offset="1" stop-color="#FABD3F"/>
</linearGradient>
<radialGradient id="paint12_radial_2_144" cx="0" cy="0" r="1" gradientUnits="userSpaceOnUse" gradientTransform="translate(136.672 211.565) scale(13.1072 13.1072)">
<stop stop-color="#E8E9E9"/>
<stop offset="1" stop-color="#E8E9E9"/>
</radialGradient>
<linearGradient id="paint13_linear_2_144" x1="196.813" y1="221.353" x2="217.293" y2="221.353" gradientUnits="userSpaceOnUse">
<stop stop-color="#FF014A"/>
<stop offset="1" stop-color="#FABD3F"/>
</linearGradient>
<radialGradient id="paint14_radial_2_144" cx="0" cy="0" r="1" gradientUnits="userSpaceOnUse" gradientTransform="translate(199.731 211.565) scale(13.1072 13.1072)">
<stop stop-color="#E8E9E9"/>
<stop offset="1" stop-color="#E8E9E9"/>
</radialGradient>
<linearGradient id="paint15_linear_2_144" x1="107.296" y1="238.054" x2="107.296" y2="265.773" gradientUnits="userSpaceOnUse">
<stop stop-color="#A2D646"/>
<stop offset="1" stop-color="#099400"/>
</linearGradient>
<linearGradient id="paint16_linear_2_144" x1="127.955" y1="245.722" x2="127.955" y2="266.061" gradientUnits="userSpaceOnUse">
<stop stop-color="#A2D646"/>
<stop offset="1" stop-color="#099400"/>
</linearGradient>
<linearGradient id="paint17_linear_2_144" x1="148.794" y1="238.054" x2="148.794" y2="265.773" gradientUnits="userSpaceOnUse">
<stop stop-color="#A2D646"/>
<stop offset="1" stop-color="#099400"/>
</linearGradient>
<linearGradient id="paint18_linear_2_144" x1="178.438" y1="265.773" x2="178.438" y2="238.054" gradientUnits="userSpaceOnUse">
<stop stop-color="#FF014A"/>
<stop offset="1" stop-color="#FABD3F"/>
</linearGradient>
<linearGradient id="paint19_linear_2_144" x1="198.867" y1="266.17" x2="198.867" y2="243.84" gradientUnits="userSpaceOnUse">
<stop stop-color="#FF014A"/>
<stop offset="1" stop-color="#FABD3F"/>
</linearGradient>
<linearGradient id="paint20_linear_2_144" x1="219.014" y1="266.17" x2="219.014" y2="243.84" gradientUnits="userSpaceOnUse">
<stop stop-color="#FF014A"/>
<stop offset="1" stop-color="#FABD3F"/>
</linearGradient>
<linearGradient id="paint21_linear_2_144" x1="239.36" y1="266.176" x2="239.36" y2="237.978" gradientUnits="userSpaceOnUse">
<stop stop-color="#FF014A"/>
<stop offset="1" stop-color="#FABD3F"/>
</linearGradient>
<linearGradient id="paint22_linear_2_144" x1="140.685" y1="102.899" x2="128.877" y2="86.2848" gradientUnits="userSpaceOnUse">
<stop stop-color="#118ACE"/>
<stop offset="1" stop-color="#2BE1F9"/>
</linearGradient>
</defs>
</svg>
