<svg width="24" height="24" viewBox="0 0 24 24" fill="none" xmlns="http://www.w3.org/2000/svg">
<path d="M7.24688 13.7056H9.71953L8.57109 17.2962H5.29219C5.12109 17.2962 4.98047 17.1556 4.98047 16.9845C4.98047 16.9235 4.99922 16.8649 5.03203 16.8134L6.98672 13.8438C7.04531 13.7595 7.14375 13.7056 7.24688 13.7056Z" fill="white"/>
<path d="M9.48046 18.5457H5.29218C4.43202 18.5457 3.73358 17.8473 3.73358 16.9871C3.73358 16.6824 3.82264 16.3848 3.99139 16.1293L5.94608 13.1598C6.23436 12.7215 6.72186 12.459 7.24686 12.459H11.4281L9.48046 18.5457ZM7.24686 13.7059C7.14139 13.7059 7.0453 13.7574 6.98671 13.8465L5.03202 16.816C4.99921 16.8676 4.98046 16.9262 4.98046 16.9871C4.98046 17.1582 5.12108 17.2988 5.29218 17.2988H8.57108L9.71952 13.7082H7.24686V13.7059Z" fill="#333333"/>
<path d="M10.6547 13.7056H13.2234L13.8164 17.2985H10.0617L10.6547 13.7056Z" fill="white"/>
<path d="M15.2859 18.5453H8.59216L9.59529 12.4609H14.2828L15.2859 18.5453ZM10.0617 17.2984H13.8164L13.2234 13.7055H10.6547L10.0617 17.2984Z" fill="#333333"/>
<path d="M14.4984 13.7056H16.9711C17.0765 13.7056 17.1726 13.7571 17.2312 13.8462L19.1883 16.8157C19.282 16.9587 19.2422 17.1532 19.0992 17.247C19.0476 17.2798 18.989 17.2985 18.9281 17.2985H15.6492L14.4984 13.7056Z" fill="white"/>
<path d="M18.9281 18.5457H14.7398L12.7922 12.459H16.9734C17.4984 12.459 17.9859 12.7215 18.2742 13.1598L20.2289 16.1293C20.4586 16.4762 20.5383 16.8934 20.4539 17.3012C20.3695 17.709 20.1328 18.0582 19.7836 18.2879C19.5305 18.4566 19.2328 18.5457 18.9281 18.5457ZM15.6492 17.2988H18.9281C18.989 17.2988 19.0476 17.2801 19.0992 17.2473C19.193 17.1863 19.2234 17.0973 19.2328 17.0504C19.2422 17.0035 19.2492 16.9098 19.1883 16.816L17.2336 13.8488C17.175 13.7598 17.0789 13.7082 16.9734 13.7082H14.4984L15.6492 17.2988Z" fill="#333333"/>
<path d="M12.518 14.9929C15.293 12.5952 16.6805 10.4483 16.6805 8.55459C16.6805 5.57803 14.2734 3.5835 12.1102 3.5835C9.94689 3.5835 7.53986 5.57803 7.53986 8.55459C7.53986 10.4483 8.92736 12.5929 11.7047 14.9929C11.9367 15.1944 12.2836 15.1944 12.518 14.9929Z" fill="#22A121"/>
<path d="M12.1101 15.7662C11.8172 15.7662 11.5265 15.6654 11.2945 15.4639C8.34841 12.9186 6.91638 10.6568 6.91638 8.55449C6.91638 5.20762 9.60232 2.95996 12.1101 2.95996C14.6179 2.95996 17.3039 5.20762 17.3039 8.55449C17.3039 10.6568 15.8719 12.9186 12.9234 15.4639C12.6937 15.6654 12.4008 15.7662 12.1101 15.7662ZM12.1101 4.20684C10.2422 4.20684 8.16326 5.99277 8.16326 8.55449C8.16326 10.249 9.49216 12.2576 12.1101 14.5217C14.7304 12.2576 16.057 10.249 16.057 8.55449C16.057 5.99277 13.9781 4.20684 12.1101 4.20684Z" fill="#333333"/>
<path d="M9.82501 8.15625C9.82501 8.76231 10.0658 9.34355 10.4943 9.7721C10.9229 10.2006 11.5041 10.4414 12.1102 10.4414C12.7162 10.4414 13.2975 10.2006 13.726 9.7721C14.1546 9.34355 14.3953 8.76231 14.3953 8.15625C14.3953 7.55019 14.1546 6.96895 13.726 6.5404C13.2975 6.11185 12.7162 5.87109 12.1102 5.87109C11.5041 5.87109 10.9229 6.11185 10.4943 6.5404C10.0658 6.96895 9.82501 7.55019 9.82501 8.15625Z" fill="white"/>
<path d="M12.1101 11.0647C10.507 11.0647 9.20154 9.75928 9.20154 8.15615C9.20154 6.55303 10.507 5.24756 12.1101 5.24756C13.7133 5.24756 15.0187 6.55068 15.0187 8.15615C15.0187 9.76162 13.7133 11.0647 12.1101 11.0647ZM12.1101 6.49209C11.1937 6.49209 10.4484 7.2374 10.4484 8.15381C10.4484 9.07021 11.1937 9.81553 12.1101 9.81553C13.0265 9.81553 13.7718 9.07021 13.7718 8.15381C13.7718 7.2374 13.0265 6.49209 12.1101 6.49209Z" fill="#333333"/>
</svg>
