<svg width="19" height="19" viewBox="0 0 19 19" fill="none" xmlns="http://www.w3.org/2000/svg">
<path d="M10.2969 18.7031C8.31906 18.7031 6.38567 18.1166 4.74118 17.0178C3.09669 15.919 1.81496 14.3572 1.05808 12.53C0.301208 10.7027 0.103175 8.69203 0.489027 6.75222C0.874879 4.81241 1.82729 3.03059 3.22581 1.63206C4.62434 0.233536 6.40616 -0.718871 8.34597 -1.10472C10.2858 -1.49058 12.2965 -1.29254 14.1237 -0.535666C15.951 0.22121 17.5128 1.50293 18.6116 3.14743C19.7104 4.79192 20.2969 6.72531 20.2969 8.70313C20.294 11.3544 19.2395 13.8962 17.3647 15.771C15.49 17.6457 12.9481 18.7002 10.2969 18.7031ZM19.0609 5.90313H14.4459C14.7805 7.75479 14.7805 9.65146 14.4459 11.5031H19.0609C19.6422 9.68172 19.6422 7.72453 19.0609 5.90313ZM10.2969 -0.496871C10.2445 -0.49685 10.1928 -0.4859 10.1449 -0.464719C10.097 -0.443539 10.0541 -0.412596 10.0189 -0.373871C8.65388 1.09613 7.66688 2.99813 7.13788 5.10313H13.4559C12.9269 2.99813 11.9399 1.09613 10.5749 -0.373871C10.5397 -0.412596 10.4967 -0.443539 10.4489 -0.464719C10.401 -0.4859 10.3492 -0.49685 10.2969 -0.496871ZM6.96188 5.90313C6.60855 7.75307 6.60855 9.65318 6.96188 11.5031H13.6319C13.9852 9.65318 13.9852 7.75307 13.6319 5.90313H6.96188ZM10.2969 17.9031C10.3492 17.9031 10.401 17.8922 10.4489 17.871C10.4967 17.8498 10.5397 17.8188 10.5749 17.7801C11.9399 16.3101 12.9269 14.4031 13.4559 12.3031H7.13788C7.66688 14.4031 8.65388 16.3101 10.0189 17.7801C10.0541 17.8188 10.097 17.8498 10.1449 17.871C10.1928 17.8922 10.2445 17.9031 10.2969 17.9031ZM18.7629 12.3031H14.2779C13.7869 14.3761 12.8779 16.2751 11.6119 17.8091C13.1755 17.5803 14.6541 16.9538 15.9062 15.9898C17.1583 15.0257 18.142 13.7563 18.7629 12.3031ZM8.98188 17.8091C7.71888 16.2751 6.80688 14.3761 6.31588 12.3031H1.83088C2.4518 13.7563 3.43542 15.0257 4.68752 15.9898C5.93962 16.9538 7.41828 17.5803 8.98188 17.8091ZM1.53288 11.5031H6.14788C5.81321 9.65146 5.81321 7.75479 6.14788 5.90313H1.53288C0.951558 7.72453 0.951558 9.68172 1.53288 11.5031ZM1.83288 5.10313H6.31588C6.80688 3.03013 7.71588 1.13113 8.98188 -0.402871C7.41828 -0.174028 5.93962 0.452428 4.68752 1.4165C3.43542 2.38057 2.4518 3.64997 1.83088 5.10313H1.83288ZM11.6139 -0.402871C12.8769 1.13113 13.7889 3.03013 14.2799 5.10313H18.7649C18.1438 3.64971 17.1599 2.38014 15.9074 1.41605C14.6549 0.45196 13.1758 -0.174349 11.6119 -0.402871H11.6139Z" fill="#545454"/>
</svg>
