<svg width="20" height="20" viewBox="0 0 20 20" fill="none" xmlns="http://www.w3.org/2000/svg">
<path fill-rule="evenodd" clip-rule="evenodd" d="M9.99851 8.48484C10.7529 8.48484 11.4764 8.22943 12.0099 7.77479C12.5433 7.32016 12.843 6.70354 12.843 6.0606C12.843 5.41765 12.5433 4.80103 12.0099 4.3464C11.4764 3.89176 10.7529 3.63635 9.99851 3.63635C9.2441 3.63635 8.52059 3.89176 7.98713 4.3464C7.45368 4.80103 7.15399 5.41765 7.15399 6.0606C7.15399 6.70354 7.45368 7.32016 7.98713 7.77479C8.52059 8.22943 9.2441 8.48484 9.99851 8.48484ZM9.99851 4.84847C10.3757 4.84847 10.7375 4.97618 11.0042 5.2035C11.2709 5.43081 11.4208 5.73912 11.4208 6.0606C11.4208 6.38207 11.2709 6.69038 11.0042 6.91769C10.7375 7.14501 10.3757 7.27272 9.99851 7.27272C9.62131 7.27272 9.25955 7.14501 8.99282 6.91769C8.7261 6.69038 8.57625 6.38207 8.57625 6.0606C8.57625 5.73912 8.7261 5.43081 8.99282 5.2035C9.25955 4.97618 9.62131 4.84847 9.99851 4.84847Z" fill="#545454"/>
<path fill-rule="evenodd" clip-rule="evenodd" d="M3.59839 5.80121C3.59839 9.04121 7.37165 14.5455 9.99856 14.5455C12.6269 14.5455 16.3987 9.04121 16.3987 5.80121C16.3987 2.60606 13.5443 0 9.99856 0C6.45287 0 3.59839 2.60606 3.59839 5.80121ZM14.9765 5.80121C14.9765 8.45939 11.637 13.3333 9.99856 13.3333C8.36154 13.3333 5.02065 8.46061 5.02065 5.80121C5.02065 3.25697 7.26071 1.21212 9.99856 1.21212C12.7364 1.21212 14.9765 3.25697 14.9765 5.80121Z" fill="#545454"/>
<path d="M14.884 9.2606C14.714 9.19824 14.5792 9.08182 14.5083 8.93609C14.4373 8.79035 14.4359 8.62679 14.5042 8.48016C14.5726 8.33353 14.7053 8.2154 14.8742 8.15086C15.0431 8.08632 15.2349 8.08046 15.4089 8.13454C15.9872 8.33004 16.5084 8.63097 16.9359 9.01624C17.3634 9.40151 17.6868 9.8618 17.8836 10.3648L19.7809 15.2133C19.9948 15.7602 20.0532 16.3425 19.9511 16.9123C19.8491 17.4822 19.5895 18.0232 19.1939 18.4907C18.7983 18.9582 18.2779 19.3389 17.6757 19.6013C17.0734 19.8637 16.4067 20.0004 15.7303 20H4.26686C3.59074 20 2.92429 19.8631 2.32244 19.6005C1.7206 19.3379 1.20059 18.9572 0.805274 18.4897C0.409961 18.0222 0.150662 17.4814 0.0487492 16.9117C-0.0531639 16.3421 0.00522658 15.76 0.219108 15.2133L2.11498 10.3648C2.31517 9.85278 2.6466 9.38511 3.08522 8.99578C3.52385 8.60645 4.05867 8.30521 4.65087 8.11393C4.73819 8.08568 4.83118 8.07236 4.92454 8.07473C5.0179 8.07711 5.10979 8.09513 5.19498 8.12777C5.28016 8.16041 5.35697 8.20703 5.42101 8.26497C5.48505 8.32291 5.53508 8.39103 5.56823 8.46545C5.60139 8.53986 5.61701 8.61911 5.61423 8.69868C5.61144 8.77824 5.5903 8.85656 5.552 8.92916C5.5137 9.00176 5.45899 9.06721 5.39101 9.1218C5.32303 9.17638 5.24309 9.21901 5.15578 9.24727C4.76047 9.37471 4.40346 9.57563 4.11069 9.83542C3.81792 10.0952 3.59676 10.4073 3.46329 10.7491L1.56741 15.5976C1.42498 15.962 1.38621 16.3501 1.45429 16.7298C1.52237 17.1095 1.69535 17.47 1.95898 17.7816C2.22261 18.0931 2.56934 18.3469 2.97059 18.5218C3.37185 18.6968 3.81614 18.788 4.26686 18.7879H15.7331C16.1839 18.7878 16.6282 18.6965 17.0294 18.5214C17.4306 18.3463 17.7773 18.0924 18.0408 17.7807C18.3043 17.469 18.4771 17.1084 18.545 16.7287C18.6128 16.3489 18.5738 15.9608 18.4312 15.5964L16.5367 10.7479C16.4054 10.4127 16.1897 10.106 15.9047 9.84925C15.6198 9.59255 15.2724 9.39206 14.8869 9.26181" fill="#545454"/>
</svg>
