<svg width="24" height="24" viewBox="0 0 24 24" fill="none" xmlns="http://www.w3.org/2000/svg">
<path fill-rule="evenodd" clip-rule="evenodd" d="M5.52642 6.39048C6.66391 4.16018 8.67305 2.29999 12 2.29999C15.327 2.29999 17.3361 4.16018 18.4736 6.39048C19.5077 8.41812 19.8489 10.7846 19.8945 12.4714C19.8991 12.4739 19.9037 12.4764 19.9084 12.4789C19.9818 12.519 20.0656 12.5646 20.1707 12.6257C20.4074 12.7634 20.6844 12.9476 20.9331 13.2399C21.4413 13.8371 21.7 14.7234 21.7 16.1613C21.7 17.9399 20.4849 19.0905 18.77 19.7608C17.0696 20.4255 14.7153 20.7 12 20.7C9.32016 20.7 6.95911 20.5676 5.25543 19.9757C4.39158 19.6756 3.64287 19.2399 3.11065 18.5946C2.5687 17.9374 2.3 17.1219 2.3 16.1613C2.3 15.0263 2.58426 14.1969 3.02594 13.5639C3.35617 13.0906 3.75571 12.7571 4.10466 12.5035C4.14684 10.8147 4.48571 8.43102 5.52642 6.39048ZM6.77358 7.02655C5.79227 8.95064 5.5 11.2962 5.5 12.871C5.5 13.1018 5.38619 13.3178 5.19578 13.4483C4.79614 13.7223 4.4439 13.9783 4.17407 14.365C3.91575 14.7353 3.7 15.2769 3.7 16.1613C3.7 16.8458 3.88469 17.3327 4.19073 17.7038C4.50649 18.0867 5.00036 18.405 5.7149 18.6533C7.168 19.1581 9.30695 19.3 12 19.3C14.6585 19.3 16.8043 19.0261 18.2604 18.4569C19.702 17.8934 20.3 17.1246 20.3 16.1613C20.3 14.8572 20.0587 14.3726 19.8669 14.1472C19.7657 14.0282 19.6426 13.9382 19.4668 13.8359C19.4274 13.813 19.376 13.7848 19.3177 13.7527C19.166 13.6692 18.9666 13.5596 18.8042 13.4483C18.6138 13.3178 18.5 13.1018 18.5 12.871C18.5 11.2962 18.2077 8.95064 17.2264 7.02655C16.2639 5.13934 14.673 3.69999 12 3.69999C9.32696 3.69999 7.73609 5.13934 6.77358 7.02655Z" fill="white"/>
<path fill-rule="evenodd" clip-rule="evenodd" d="M9.67747 19.8238C9.58101 19.4526 9.20315 19.2277 8.83023 19.3209C8.45517 19.4147 8.22714 19.7947 8.3209 20.1698L9 20C8.3209 20.1698 8.321 20.1702 8.3211 20.1706L8.32132 20.1714L8.32179 20.1733L8.32288 20.1775L8.32574 20.1883C8.32794 20.1965 8.33075 20.2066 8.33423 20.2185C8.34117 20.2423 8.35078 20.2734 8.36348 20.3108C8.38884 20.3856 8.42679 20.4862 8.48084 20.6042C8.58843 20.8389 8.76323 21.1496 9.0357 21.461C9.59662 22.102 10.5342 22.7 12 22.7C13.4658 22.7 14.4034 22.102 14.9643 21.461C15.2368 21.1496 15.4116 20.8389 15.5192 20.6042C15.5732 20.4862 15.6112 20.3856 15.6365 20.3108C15.6492 20.2734 15.6588 20.2423 15.6658 20.2185C15.6692 20.2066 15.6721 20.1965 15.6743 20.1883L15.6771 20.1775L15.6782 20.1733L15.6787 20.1714L15.6789 20.1706C15.679 20.1702 15.6791 20.1698 15 20L15.6791 20.1698C15.7729 19.7947 15.5448 19.4147 15.1698 19.3209C14.7969 19.2277 14.419 19.4526 14.3225 19.8238C14.3224 19.8244 14.3221 19.8253 14.3218 19.8265C14.3202 19.832 14.3166 19.8438 14.3107 19.861C14.299 19.8957 14.2784 19.9513 14.2465 20.0208C14.1822 20.1611 14.0757 20.3504 13.9107 20.539C13.5966 20.898 13.0342 21.3 12 21.3C10.9658 21.3 10.4034 20.898 10.0893 20.539C9.92427 20.3504 9.81782 20.1611 9.75353 20.0208C9.72165 19.9513 9.70101 19.8957 9.68925 19.861C9.6834 19.8438 9.67983 19.832 9.67823 19.8265C9.67789 19.8253 9.67764 19.8244 9.67748 19.8239C9.67747 19.8238 9.67747 19.8238 9.67747 19.8238Z" fill="white"/>
<path fill-rule="evenodd" clip-rule="evenodd" d="M12 1.29999C12.3866 1.29999 12.7 1.61339 12.7 1.99999V2.99999C12.7 3.38659 12.3866 3.69999 12 3.69999C11.6134 3.69999 11.3 3.38659 11.3 2.99999V1.99999C11.3 1.61339 11.6134 1.29999 12 1.29999Z" fill="white"/>
</svg>
