<svg width="16" height="16" viewBox="0 0 16 16" fill="none" xmlns="http://www.w3.org/2000/svg">
<path fill-rule="evenodd" clip-rule="evenodd" d="M8.19141 3.0535C8.06393 3.04497 7.93602 3.04497 7.80854 3.0535C7.39866 3.08093 6.99382 3.23287 6.4552 3.57067C5.90761 3.9141 5.26287 4.42229 4.36473 5.13135C3.21327 6.0404 2.74965 6.41775 2.47928 6.91696C2.4382 6.9928 2.40057 7.07046 2.36649 7.1497C2.14221 7.67124 2.13331 8.26895 2.13331 9.736V10.6669C2.13331 11.6229 2.1343 12.2929 2.20237 12.7992C2.26864 13.2921 2.39068 13.5593 2.58241 13.7511C2.77415 13.9428 3.0414 14.0649 3.53428 14.1311C4.04059 14.1992 4.71064 14.2002 5.66664 14.2002H10.3333C11.2893 14.2002 11.9594 14.1992 12.4657 14.1311C12.9586 14.0649 13.2258 13.9428 13.4175 13.7511C13.6093 13.5593 13.7313 13.2921 13.7976 12.7992C13.8657 12.2929 13.8666 11.6229 13.8666 10.6669V9.736C13.8666 8.26895 13.8577 7.67124 13.6335 7.1497C13.5994 7.07046 13.5618 6.9928 13.5207 6.91696C13.2503 6.41775 12.7867 6.0404 11.6352 5.13135C10.7371 4.42229 10.0923 3.9141 9.54475 3.57067C9.00614 3.23287 8.60129 3.08093 8.19141 3.0535ZM7.74622 2.12225C7.9152 2.11094 8.08475 2.11094 8.25374 2.12225C8.87534 2.16385 9.43129 2.3978 10.0407 2.77998C10.6361 3.15343 11.3201 3.69345 12.1918 4.38164L12.2136 4.39879C12.2427 4.42181 12.2716 4.44457 12.3001 4.46709C13.3367 5.28521 13.9683 5.78361 14.3414 6.47246C14.3958 6.573 14.4457 6.67594 14.4909 6.78098C14.8004 7.50065 14.8002 8.30516 14.8 9.62576C14.8 9.66211 14.8 9.69886 14.8 9.736V10.7012C14.8 11.6148 14.8 12.3478 14.7226 12.9236C14.6424 13.52 14.4716 14.017 14.0775 14.411C13.6835 14.8051 13.1864 14.976 12.59 15.0561C12.0143 15.1335 11.2813 15.1335 10.3677 15.1335H5.63227C4.71866 15.1335 3.98566 15.1335 3.40992 15.0561C2.81354 14.976 2.3165 14.8051 1.92245 14.411C1.52839 14.017 1.35754 13.52 1.27736 12.9236C1.19995 12.3478 1.19996 11.6148 1.19998 10.7012L1.19998 9.736C1.19998 9.69885 1.19997 9.66211 1.19996 9.62575C1.19973 8.30516 1.19959 7.50065 1.50908 6.78098C1.55425 6.67594 1.60413 6.573 1.65859 6.47246C2.03167 5.78361 2.66321 5.28521 3.69986 4.46709C3.7284 4.44457 3.75724 4.42181 3.7864 4.39879L3.80812 4.38164C4.67983 3.69345 5.36384 3.15343 5.9593 2.77998C6.56867 2.3978 7.12462 2.16385 7.74622 2.12225Z" fill="#4E4F54"/>
<path fill-rule="evenodd" clip-rule="evenodd" d="M7.05592 12.388C7.35519 12.264 7.67594 12.2002 7.99987 12.2002C8.3238 12.2002 8.64455 12.264 8.94382 12.388C9.24309 12.5119 9.51502 12.6936 9.74407 12.9227C9.97312 13.1517 10.1548 13.4236 10.2788 13.7229C10.4027 14.0222 10.4665 14.3429 10.4665 14.6669V15.1335L5.5332 15.1335L5.5332 14.6669C5.5332 14.3429 5.59701 14.0222 5.72097 13.7229C5.84493 13.4236 6.02662 13.1517 6.25567 12.9227C6.48472 12.6936 6.75665 12.5119 7.05592 12.388ZM7.99987 13.1335C7.79851 13.1335 7.59912 13.1732 7.41309 13.2502C7.22706 13.3273 7.05802 13.4402 6.91564 13.5826C6.77326 13.725 6.66031 13.894 6.58325 14.0801C6.5669 14.1196 6.55224 14.1596 6.53928 14.2002L9.46046 14.2002C9.4475 14.1596 9.43284 14.1196 9.41648 14.0801C9.33943 13.894 9.22648 13.725 9.0841 13.5826C8.94172 13.4402 8.77268 13.3273 8.58665 13.2502C8.40062 13.1732 8.20123 13.1335 7.99987 13.1335Z" fill="#4E4F54"/>
</svg>
