<svg width="20" height="20" viewBox="0 0 20 20" fill="none" xmlns="http://www.w3.org/2000/svg">
<path d="M12 20L11.9227 17.3712H10C7.22044 17.3712 4.85911 16.5269 2.916 14.8384C0.972 13.1507 0 11.0998 0 8.68558C0 6.27138 0.972 4.22042 2.916 2.53272C4.85911 0.844238 7.22044 0 10 0C11.3893 0 12.6907 0.226211 13.904 0.678633C15.1164 1.13028 16.1756 1.74908 17.0813 2.53503C17.9862 3.32175 18.6987 4.24165 19.2187 5.29473C19.7396 6.34858 20 7.47887 20 8.68558C20 9.86605 19.8004 10.9998 19.4013 12.0869C19.0013 13.1731 18.4493 14.2003 17.7453 15.1685C17.0396 16.1367 16.1951 17.0284 15.212 17.8437C14.2289 18.6589 13.1582 19.3773 12 19.9988M13.3333 17.7765C14.9111 16.6184 16.1947 15.2627 17.184 13.7093C18.1733 12.156 18.6676 10.4814 18.6667 8.68558C18.6667 6.58174 17.8276 4.80139 16.1493 3.34453C14.4711 1.88767 12.4213 1.15885 10 1.15808C7.57778 1.15808 5.528 1.88689 3.85067 3.34453C2.17333 4.80216 1.33422 6.58251 1.33333 8.68558C1.33333 10.7894 2.17244 12.5702 3.85067 14.0278C5.52889 15.4854 7.57867 16.2139 10 16.2131H13.3333V17.7765ZM10.044 14.5582C10.3196 14.5582 10.552 14.476 10.7413 14.3115C10.9307 14.1463 11.0253 13.9444 11.0253 13.7058C11.0253 13.4665 10.9307 13.2646 10.7413 13.1002C10.5511 12.935 10.3187 12.8523 10.044 12.8523C9.76844 12.8523 9.536 12.935 9.34667 13.1002C9.15645 13.2646 9.06133 13.4665 9.06133 13.7058C9.06133 13.9452 9.15645 14.1471 9.34667 14.3115C9.536 14.476 9.76844 14.5582 10.044 14.5582ZM9.46133 11.1708H10.6413C10.6751 10.696 10.78 10.3204 10.956 10.044C11.132 9.76761 11.5498 9.34298 12.2093 8.77012C12.5924 8.43814 12.896 8.09882 13.12 7.75217C13.344 7.40629 13.456 7.00907 13.456 6.56051C13.456 5.72515 13.124 5.06891 12.46 4.59178C11.796 4.11388 10.9929 3.87493 10.0507 3.87493C9.22756 3.87493 8.52978 4.07064 7.95733 4.46207C7.384 4.8535 6.964 5.32021 6.69733 5.86219L7.79467 6.23162C7.97422 5.88882 8.23644 5.57653 8.58133 5.29473C8.92711 5.0137 9.41689 4.87319 10.0507 4.87319C10.8053 4.87319 11.3622 5.05115 11.7213 5.40706C12.0813 5.76375 12.2613 6.15287 12.2613 6.57441C12.2613 6.96198 12.1458 7.28971 11.9147 7.55761C11.6836 7.82552 11.3871 8.11697 11.0253 8.43196C10.3853 8.92144 9.96444 9.36151 9.76267 9.75217C9.56178 10.1413 9.46133 10.6142 9.46133 11.1708Z" fill="#545454"/>
</svg>
