<svg width="24" height="24" viewBox="0 0 24 24" fill="none" xmlns="http://www.w3.org/2000/svg">
<path fill-rule="evenodd" clip-rule="evenodd" d="M11.4764 1.29999H11.5236C11.9656 1.29999 12.2116 1.29998 12.4231 1.30922C17.4478 1.5286 21.4714 5.55217 21.6908 10.5769C21.7 10.7884 21.7 11.0344 21.7 11.4764V11.5236C21.7 11.9656 21.7 12.2115 21.6908 12.4231C21.4714 17.4478 17.4478 21.4714 12.4231 21.6908C12.2116 21.7 11.9656 21.7 11.5236 21.7H11.4764C11.0344 21.7 10.7885 21.7 10.5769 21.6908C5.55218 21.4714 1.52862 17.4478 1.30924 12.4231C1.3 12.2115 1.3 11.9656 1.3 11.5236V11.4763C1.3 11.0344 1.3 10.7884 1.30924 10.5769C1.52862 5.55217 5.55218 1.5286 10.5769 1.30922C10.7885 1.29998 11.0344 1.29999 11.4764 1.29999ZM11.5 2.69999C11.0284 2.69999 10.815 2.70016 10.638 2.70789C6.33847 2.89561 2.89562 6.33845 2.7079 10.6379C2.70017 10.815 2.7 11.0283 2.7 11.5C2.7 11.9716 2.70017 12.1849 2.7079 12.362C2.89562 16.6615 6.33847 20.1044 10.638 20.2921C10.815 20.2998 11.0284 20.3 11.5 20.3C11.9716 20.3 12.185 20.2998 12.362 20.2921C16.6615 20.1044 20.1044 16.6615 20.2921 12.362C20.2998 12.1849 20.3 11.9716 20.3 11.5C20.3 11.0283 20.2998 10.815 20.2921 10.6379C20.1044 6.33845 16.6615 2.89561 12.362 2.70789C12.185 2.70016 11.9716 2.69999 11.5 2.69999Z" fill="#949499"/>
<path fill-rule="evenodd" clip-rule="evenodd" d="M17.495 18.505C17.7684 18.2316 18.2116 18.2316 18.4849 18.505L21.0305 21.0506C21.3039 21.324 21.3039 21.7672 21.0305 22.0405C20.7572 22.3139 20.3139 22.3139 20.0406 22.0405L17.495 19.495C17.2216 19.2216 17.2216 18.7784 17.495 18.505Z" fill="#949499"/>
</svg>
