<svg width="20" height="20" viewBox="0 0 20 20" fill="none" xmlns="http://www.w3.org/2000/svg">
<path d="M10.6729 20H9.21733C8.99993 19.9998 8.78865 19.928 8.6162 19.7956C8.44375 19.6633 8.31973 19.4778 8.26335 19.2679L7.39671 16.0967L4.59747 17.703C4.40979 17.81 4.19232 17.8528 3.9781 17.8249C3.76388 17.797 3.56462 17.7 3.41059 17.5486L2.37487 16.5198C2.22063 16.3662 2.12135 16.1661 2.09241 15.9504C2.06346 15.7346 2.10646 15.5154 2.21476 15.3266L3.85959 12.4777L3.85287 12.4598L0.732281 11.6237C0.522407 11.5675 0.33691 11.4437 0.204524 11.2715C0.072138 11.0993 0.000251567 10.8883 0 10.6711V9.21363C0.000364666 8.99692 0.0720417 8.78635 0.203975 8.6144C0.335909 8.44245 0.520769 8.31867 0.730041 8.26216L3.90886 7.3924L2.29761 4.5917C2.19033 4.40354 2.14767 4.18542 2.17619 3.97072C2.2047 3.75602 2.30281 3.55657 2.45549 3.40292L3.48337 2.37533C3.63685 2.22276 3.83608 2.12463 4.05061 2.09593C4.26513 2.06723 4.48316 2.10953 4.67137 2.21638L7.52883 3.85627H7.54227L8.37644 0.733195C8.43222 0.523078 8.55589 0.337275 8.72821 0.20468C8.90053 0.0720845 9.11185 0.000128133 9.3293 0H10.7849C11.0025 0.000260207 11.2138 0.072246 11.3863 0.204802C11.5588 0.337358 11.6827 0.523082 11.7389 0.733195L12.5921 3.91L15.4014 2.29697C15.5889 2.19011 15.8062 2.14737 16.0202 2.17525C16.2342 2.20313 16.4333 2.30011 16.5872 2.45145L17.624 3.48016C17.7785 3.63391 17.8777 3.83444 17.9063 4.05048C17.9349 4.26653 17.8911 4.48595 17.7819 4.67454L16.1404 7.50881L16.1494 7.53344L19.2688 8.3685C19.4784 8.42502 19.6635 8.54892 19.7957 8.72108C19.9278 8.89324 19.9996 9.10409 20 9.32109V10.7763C19.9998 10.9936 19.928 11.2048 19.7956 11.3773C19.6632 11.5497 19.4777 11.6736 19.2677 11.73L16.0911 12.5964L17.7024 15.4005C17.8107 15.5885 17.8539 15.8071 17.8254 16.0222C17.7968 16.2373 17.6981 16.437 17.5445 16.5904L16.5177 17.6168C16.3637 17.7692 16.164 17.8671 15.9491 17.8956C15.7343 17.9241 15.516 17.8816 15.3275 17.7747L12.4846 16.1381L12.4644 16.1538L11.6303 19.2713C11.5728 19.4809 11.4479 19.6658 11.2749 19.7975C11.1019 19.9292 10.8904 20.0004 10.6729 20ZM9.31811 18.8806H10.571L11.3974 15.7956C11.4378 15.6469 11.5122 15.5096 11.6148 15.3946C11.7175 15.2796 11.8454 15.19 11.9886 15.1329L12.1386 15.0747C12.2761 15.0203 12.424 14.9978 12.5714 15.0089C12.7188 15.0199 12.8618 15.0643 12.9896 15.1385L15.8 16.756L16.6835 15.8728L15.0901 13.099C15.0146 12.9674 14.9704 12.8202 14.9611 12.6687C14.9518 12.5173 14.9776 12.3657 15.0364 12.2259L15.0946 12.086C15.1524 11.947 15.2415 11.8232 15.3549 11.7242C15.4683 11.6252 15.603 11.5536 15.7485 11.5151L18.8837 10.6767V9.42296L15.7989 8.59797C15.6499 8.55769 15.5124 8.48318 15.3973 8.38037C15.2822 8.27757 15.1928 8.14931 15.136 8.00582L15.0778 7.85806C15.0236 7.72004 15.0012 7.5716 15.0123 7.42374C15.0233 7.27588 15.0675 7.13241 15.1416 7.00397L16.7641 4.19656L15.8683 3.31225L13.0915 4.90737C12.9614 4.98243 12.8159 5.02671 12.666 5.0368C12.5162 5.04689 12.366 5.02253 12.2271 4.96558L12.0983 4.91297C11.9577 4.85492 11.8323 4.7654 11.7318 4.65129C11.6312 4.53718 11.5582 4.40153 11.5183 4.25477L10.6808 1.11379H9.43231L8.60598 4.20552C8.56597 4.35734 8.49036 4.49745 8.38541 4.61425C8.28046 4.73104 8.14919 4.82116 8.00246 4.87715L7.8681 4.92752C7.73196 4.98006 7.5858 5.0015 7.4403 4.99027C7.2948 4.97903 7.15366 4.93541 7.02721 4.86259L4.20334 3.23837L3.3199 4.12156L4.9121 6.89315C4.98776 7.02578 5.03178 7.17407 5.04071 7.32649C5.04964 7.4789 5.02326 7.63132 4.96361 7.77187L4.90651 7.90619C4.84782 8.04243 4.75899 8.16358 4.6467 8.26053C4.5344 8.35747 4.40157 8.42769 4.2582 8.46589L1.12305 9.31438V10.5692L4.21005 11.3953C4.35822 11.4356 4.49506 11.5096 4.60986 11.6116C4.72466 11.7135 4.81431 11.8406 4.87179 11.983L4.92554 12.1184C4.98198 12.2572 5.00577 12.4071 4.9951 12.5566C4.98442 12.706 4.93955 12.851 4.86396 12.9804L3.23592 15.7967L4.13168 16.6821L6.89732 15.0937C7.03011 15.0173 7.17895 14.9729 7.33195 14.9641C7.48495 14.9554 7.63788 14.9825 7.77852 15.0434L7.89721 15.0926C8.04051 15.1488 8.16852 15.238 8.27086 15.353C8.37319 15.4679 8.44696 15.6054 8.48617 15.7542L9.31811 18.8806Z" fill="#545454"/>
</svg>
