<svg width="28" height="20" viewBox="0 0 28 21" fill="none" xmlns="http://www.w3.org/2000/svg">
<path d="M27.965 7.68168L26.2753 3.08737C26.1675 2.79589 25.982 2.54615 25.7426 2.37025C25.5032 2.19434 25.221 2.10032 24.9321 2.10026H20.2759V0.525064C20.2759 0.385808 20.225 0.252256 20.1345 0.153788C20.0439 0.0553192 19.9211 0 19.7931 0H1.44828C1.06417 0 0.695795 0.165957 0.42419 0.461363C0.152586 0.756768 0 1.15742 0 1.57519V16.277C0 16.6947 0.152586 17.0954 0.42419 17.3908C0.695795 17.6862 1.06417 17.8522 1.44828 17.8522H3.89707C4.01366 18.7264 4.41585 19.5257 5.03 20.1038C5.64415 20.6818 6.42918 21 7.24138 21C8.05358 21 8.83861 20.6818 9.45276 20.1038C10.0669 19.5257 10.4691 18.7264 10.5857 17.8522H17.4143C17.5309 18.7264 17.9331 19.5257 18.5472 20.1038C19.1614 20.6818 19.9464 21 20.7586 21C21.5708 21 22.3559 20.6818 22.97 20.1038C23.5842 19.5257 23.9863 18.7264 24.1029 17.8522H26.5517C26.9358 17.8522 27.3042 17.6862 27.5758 17.3908C27.8474 17.0954 28 16.6947 28 16.277V7.87596C27.9998 7.80937 27.9879 7.74344 27.965 7.68168ZM20.2759 3.15038H24.9321C25.0286 3.15018 25.123 3.18146 25.203 3.24019C25.2831 3.29893 25.3451 3.38241 25.381 3.47986L26.804 7.35089H20.2759V3.15038ZM0.965517 1.57519C0.965517 1.43594 1.01638 1.30238 1.10691 1.20391C1.19745 1.10545 1.32024 1.05013 1.44828 1.05013H19.3103V10.5013H0.965517V1.57519ZM7.24138 19.9524C6.76398 19.9524 6.29729 19.7985 5.90035 19.51C5.5034 19.2215 5.19402 18.8115 5.01132 18.3318C4.82863 17.8521 4.78083 17.3242 4.87397 16.8149C4.9671 16.3057 5.19699 15.8379 5.53457 15.4707C5.87214 15.1036 6.30224 14.8535 6.77047 14.7522C7.2387 14.6509 7.72404 14.7029 8.1651 14.9016C8.60616 15.1003 8.98314 15.4368 9.24838 15.8686C9.51361 16.3003 9.65517 16.8079 9.65517 17.3271C9.65517 17.6719 9.59274 18.0133 9.47143 18.3318C9.35013 18.6503 9.17233 18.9397 8.94819 19.1835C8.72405 19.4273 8.45795 19.6206 8.1651 19.7526C7.87224 19.8845 7.55836 19.9524 7.24138 19.9524ZM17.4143 16.802H10.5857C10.4691 15.9278 10.0669 15.1285 9.45276 14.5504C8.83861 13.9724 8.05358 13.6542 7.24138 13.6542C6.42918 13.6542 5.64415 13.9724 5.03 14.5504C4.41585 15.1285 4.01366 15.9278 3.89707 16.802H1.44828C1.32024 16.802 1.19745 16.7467 1.10691 16.6483C1.01638 16.5498 0.965517 16.4162 0.965517 16.277V11.5514H19.3103V14.0074C18.8073 14.2676 18.3711 14.6588 18.0403 15.1463C17.7096 15.6338 17.4946 16.2025 17.4143 16.802ZM20.7586 19.9524C20.2812 19.9524 19.8145 19.7985 19.4176 19.51C19.0206 19.2215 18.7113 18.8115 18.5286 18.3318C18.3459 17.8521 18.2981 17.3242 18.3912 16.8149C18.4843 16.3057 18.7142 15.8379 19.0518 15.4707C19.3894 15.1036 19.8195 14.8535 20.2877 14.7522C20.7559 14.6509 21.2413 14.7029 21.6823 14.9016C22.1234 15.1003 22.5004 15.4368 22.7656 15.8686C23.0308 16.3003 23.1724 16.8079 23.1724 17.3271C23.1724 18.0234 22.9181 18.6911 22.4654 19.1835C22.0128 19.6758 21.3988 19.9524 20.7586 19.9524ZM27.0345 16.277C27.0345 16.4162 26.9836 16.5498 26.8931 16.6483C26.8026 16.7467 26.6798 16.802 26.5517 16.802H24.1029C23.9748 15.8374 23.4997 14.9676 22.782 14.3839C22.0643 13.8003 21.1628 13.5506 20.2759 13.6897V8.40102H27.0345V16.277Z" fill="#545454"/>
</svg>
