<svg width="24" height="24" viewBox="0 0 24 24" fill="none" xmlns="http://www.w3.org/2000/svg">
<g id="truck-svgrepo-com (1) 1">
<path id="Vector" d="M2 6.87433C2 6.37722 2.19754 5.90048 2.54917 5.54898C2.90081 5.19747 3.37772 5 3.875 5H15.125C15.6223 5 16.0992 5.19747 16.4508 5.54898C16.8025 5.90048 17 6.37722 17 6.87433V8.74865H18.275C18.5559 8.7489 18.8332 8.81225 19.0863 8.93402C19.3395 9.05578 19.562 9.23286 19.7375 9.45215L21.5887 11.7638C21.8551 12.0964 22.0002 12.5098 22 12.9359V15.6212C22 16.1183 21.8025 16.595 21.4508 16.9465C21.0992 17.298 20.6223 17.4955 20.125 17.4955H19.5C19.5 18.1583 19.2366 18.794 18.7678 19.2626C18.2989 19.7313 17.663 19.9946 17 19.9946C16.337 19.9946 15.7011 19.7313 15.2322 19.2626C14.7634 18.794 14.5 18.1583 14.5 17.4955H8.25C8.25072 17.8286 8.18481 18.1585 8.05615 18.4658C7.92749 18.7731 7.73868 19.0515 7.50081 19.2848C7.26294 19.5181 6.98082 19.7015 6.67102 19.8242C6.36123 19.9469 6.03002 20.0065 5.69687 19.9994C5.36371 19.9924 5.03533 19.9188 4.73104 19.783C4.42674 19.6472 4.15267 19.452 3.92494 19.2088C3.6972 18.9656 3.5204 18.6794 3.40492 18.3669C3.28944 18.0545 3.23762 17.7221 3.2525 17.3893C2.88631 17.2605 2.56915 17.0212 2.34481 16.7045C2.12046 16.3878 1.99998 16.0092 2 15.6212V6.87433ZM3.6175 16.191C3.8435 15.8211 4.16189 15.5164 4.54137 15.3067C4.92086 15.0971 5.34837 14.9898 5.78191 14.9954C6.21544 15.0009 6.64007 15.1191 7.01407 15.3384C7.38806 15.5576 7.69854 15.8704 7.915 16.246H14.835C15.0549 15.8664 15.3703 15.5511 15.75 15.3313V6.87433C15.75 6.70863 15.6842 6.54971 15.5669 6.43254C15.4497 6.31538 15.2908 6.24955 15.125 6.24955H3.875C3.70924 6.24955 3.55027 6.31538 3.43306 6.43254C3.31585 6.54971 3.25 6.70863 3.25 6.87433V15.6212C3.2499 15.7414 3.28452 15.8592 3.34971 15.9602C3.4149 16.0613 3.50788 16.1414 3.6175 16.191ZM17 14.9964C17.4388 14.9964 17.8699 15.1119 18.25 15.3312C18.63 15.5506 18.9456 15.8661 19.165 16.246H20.125C20.2908 16.246 20.4497 16.1801 20.5669 16.063C20.6842 15.9458 20.75 15.7869 20.75 15.6212V12.9346C20.7497 12.7929 20.7013 12.6554 20.6125 12.5448L18.7625 10.2331C18.704 10.1599 18.6299 10.1008 18.5455 10.0602C18.4611 10.0195 18.3687 9.99834 18.275 9.9982H17V14.9964ZM5.75 16.246C5.41848 16.246 5.10054 16.3776 4.86612 16.6119C4.6317 16.8463 4.5 17.1641 4.5 17.4955C4.5 17.8269 4.6317 18.1447 4.86612 18.3791C5.10054 18.6134 5.41848 18.7451 5.75 18.7451C6.08152 18.7451 6.39946 18.6134 6.63388 18.3791C6.8683 18.1447 7 17.8269 7 17.4955C7 17.1641 6.8683 16.8463 6.63388 16.6119C6.39946 16.3776 6.08152 16.246 5.75 16.246ZM17 16.246C16.6685 16.246 16.3505 16.3776 16.1161 16.6119C15.8817 16.8463 15.75 17.1641 15.75 17.4955C15.75 17.8269 15.8817 18.1447 16.1161 18.3791C16.3505 18.6134 16.6685 18.7451 17 18.7451C17.3315 18.7451 17.6495 18.6134 17.8839 18.3791C18.1183 18.1447 18.25 17.8269 18.25 17.4955C18.25 17.1641 18.1183 16.8463 17.8839 16.6119C17.6495 16.3776 17.3315 16.246 17 16.246Z" fill="#4E4F54"/>
</g>
</svg>
