<svg width="24" height="24" viewBox="0 0 24 24" fill="none" xmlns="http://www.w3.org/2000/svg">
<g clip-path="url(#clip0_429_1791)">
<path d="M9.76789 1.98027L7.94441 4.53598L4.84302 6.57856L1.74168 4.53598L3.56516 1.98027H9.76789Z" fill="#FFDD77"/>
<path d="M11.5915 4.65786V15.4743H7.0047V3.51472L11.5915 4.65786Z" fill="#FFDD77"/>
<path d="M8.00815 4.65805H1.91371V15.4744H8.00815V4.65805Z" fill="#F9F0B5"/>
<path d="M22.1172 14.1998V16.753H14.16V14.1998L18.1386 13.1786L22.1172 13.163V14.1998Z" fill="#FEAB75"/>
<path d="M22.1172 13.658V14.1998H14.16V13.658C14.16 12.8155 14.8493 12.1261 15.6919 12.1261H20.5854C21.4279 12.1261 22.1172 12.8155 22.1172 13.658Z" fill="#FEBB8E"/>
<path d="M11.5915 14.1998H7.00494V16.6524H11.5915V14.1998Z" fill="#FFCC3D"/>
<path d="M9.90739 0.448364H3.73734V1.98028H9.90739V0.448364Z" fill="#F9F0B5"/>
<path d="M9.87002 2.03133L11.6935 4.58709H8.04649L9.87002 2.03133Z" fill="#FFBB02"/>
<path d="M8.00815 14.1998H1.91371V16.6524H8.00815V14.1998Z" fill="#FFDD77"/>
<path d="M14.6349 14.1998L9.93852 18.0332L7.11111 17.4771C7.11111 17.4771 8.354 15.9543 9.78636 14.1998L12.2106 13.1786L14.6349 14.1998Z" fill="#FF7A2F"/>
<path d="M17.2784 9.94264C17.8555 10.5192 17.8555 11.4546 17.2784 12.0317C17.2427 12.0674 17.2054 12.1011 17.1671 12.1328L14.6349 14.1998H9.78636C11.7344 11.8136 14.0323 8.99849 14.0328 8.99849C14.064 8.95968 14.0976 8.92241 14.1334 8.88665C14.7104 8.30962 15.6459 8.30962 16.2229 8.88665L17.2784 9.94264Z" fill="#FF9B5F"/>
<path d="M16.6774 14.1998L11.9811 18.0332L9.15369 17.4771C9.15369 17.4771 10.3966 15.9543 11.8289 14.1998L14.3489 13.1786L16.6774 14.1998Z" fill="#F06B22"/>
<path d="M19.321 9.94264C19.898 10.5192 19.898 11.4546 19.321 12.0317C19.2852 12.0674 19.248 12.1011 19.2097 12.1328L16.6774 14.1998H11.8289C13.777 11.8136 16.0749 8.99849 16.0754 8.99849C16.1065 8.95968 16.1402 8.92241 16.176 8.88665C16.753 8.30962 17.6885 8.30962 18.2655 8.88665L19.321 9.94264Z" fill="#FF7A2F"/>
<path d="M23.598 17.7743V23.5516H0.363983V17.7743L11.981 16.2424L23.598 17.7743Z" fill="#BF7447"/>
<path d="M23.598 15.7317H0.363983V17.7743H23.598V15.7317Z" fill="#A0613C"/>
<path d="M23.617 13.8168C23.4055 13.8168 23.234 13.9883 23.234 14.1998V15.3488H0.765936V14.1998C0.765936 13.9883 0.594468 13.8168 0.382968 13.8168C0.171468 13.8168 0 13.9883 0 14.1998V23.5515C0 23.763 0.171468 23.9344 0.382968 23.9344H23.617C23.8285 23.9344 24 23.763 24 23.5515V14.1998C24 13.9883 23.8285 13.8168 23.617 13.8168ZM0.765936 23.1685V18.1062H1.91489C2.12639 18.1062 2.29785 17.9347 2.29785 17.7232C2.29785 17.5117 2.12639 17.3402 1.91489 17.3402H0.765936V16.1147H23.234V17.3402H3.44681C3.23531 17.3402 3.06384 17.5117 3.06384 17.7232C3.06384 17.9347 3.23531 18.1062 3.44681 18.1062H23.234V23.1685H0.765936Z" fill="#1D2328"/>
<path d="M9.66532 14.4965C9.73643 14.5546 9.82207 14.5828 9.90724 14.5828C10.0183 14.5828 10.1284 14.5348 10.2041 14.4421L14.4503 9.24046C14.584 9.07663 14.5597 8.83537 14.3958 8.70158C14.232 8.56785 13.9907 8.59223 13.857 8.75605L9.6108 13.9577C9.47712 14.1215 9.50149 14.3628 9.66532 14.4965Z" fill="#1D2328"/>
<path d="M11.5513 13.9577C11.3681 14.3681 11.7894 14.6872 12.1446 14.442C12.1446 14.442 16.3312 9.31335 16.39 9.24135C16.3902 9.24102 16.3905 9.24078 16.3907 9.24046C16.4143 9.21153 16.4396 9.18355 16.4659 9.15725C16.8925 8.73064 17.5868 8.73064 18.0134 9.15725L19.0693 10.2132C19.496 10.6399 19.496 11.334 19.0693 11.7607C19.043 11.787 19.015 11.8123 18.9863 11.8358L16.4628 13.8958C16.3169 14.0149 16.2684 14.2236 16.3618 14.3872C16.4352 14.5158 16.5651 14.5828 16.6962 14.5828C16.7814 14.5828 16.8671 14.5546 16.9382 14.4965L19.4707 12.4292C19.5194 12.3894 19.5666 12.3467 19.6109 12.3023C20.2408 11.6725 20.3233 10.6997 19.8593 9.97963C20.8931 9.06083 22.2095 8.55702 23.6037 8.55383C23.7984 8.55336 23.9724 8.41386 23.9968 8.22074C24.0263 7.98697 23.8449 7.78785 23.617 7.78785C22.0671 7.78785 20.601 8.33258 19.437 9.33116L22.6663 6.10185C22.8159 5.95227 22.8159 5.70984 22.6663 5.56026C22.5167 5.41068 22.2743 5.41068 22.1247 5.56026L18.8956 8.78933C19.8912 7.62871 20.4356 6.16781 20.4387 4.62304C20.4391 4.44032 20.3175 4.27289 20.1386 4.23543C19.8909 4.1835 19.6727 4.37109 19.6727 4.60968C19.6727 6.00876 19.1686 7.33026 18.2469 8.36741C17.5269 7.9033 16.5542 7.98585 15.9242 8.61566C15.8799 8.66005 15.8372 8.70721 15.7974 8.75591L15.7983 8.75666C15.7812 8.77574 15.7652 8.79533 15.7497 8.81436L11.5513 13.9577Z" fill="#1D2328"/>
<path d="M1.91372 14.5828C2.12522 14.5828 2.29669 14.4113 2.29669 14.1998V4.9192H7.73343V14.1998C7.73343 14.4113 7.90489 14.5828 8.11639 14.5828C8.32789 14.5828 8.49936 14.4113 8.49936 14.1998V4.65881L9.93997 2.63977L11.0199 4.15322H9.99823C9.78673 4.15322 9.61527 4.32468 9.61527 4.53618C9.61527 4.74768 9.78673 4.91915 9.99823 4.91915H11.3806V9.50361C11.3806 9.71511 11.552 9.88658 11.7635 9.88658C11.975 9.88658 12.1465 9.71511 12.1465 9.50361V4.53623C12.1465 4.51804 12.1448 4.50028 12.1423 4.4827C12.1418 4.47909 12.1413 4.47543 12.1407 4.47183C12.1377 4.45406 12.1337 4.43657 12.1283 4.4197C12.1282 4.41932 12.128 4.41895 12.1279 4.41857C12.1224 4.40156 12.1155 4.38525 12.1078 4.3694C12.1066 4.36692 12.1055 4.36434 12.1042 4.36186C12.0961 4.34606 12.087 4.33092 12.0769 4.31648C12.0763 4.31559 12.0759 4.31465 12.0753 4.31376L10.3229 1.8578V0.448505C10.3229 0.237005 10.1514 0.0655365 9.93992 0.0655365H3.73729C3.52579 0.0655365 3.35432 0.237005 3.35432 0.448505V1.85775L1.60191 4.31381C1.60125 4.31475 1.60083 4.31573 1.60017 4.31667C1.59009 4.33101 1.58109 4.34606 1.57298 4.36181C1.57167 4.36434 1.57055 4.36697 1.56923 4.36959C1.56159 4.38543 1.55475 4.40165 1.54927 4.41862C1.54912 4.41904 1.54894 4.41942 1.5488 4.41984C1.54345 4.43667 1.53947 4.45415 1.53642 4.47192C1.53581 4.47553 1.5353 4.47918 1.53478 4.48279C1.53234 4.50032 1.53061 4.51809 1.53061 4.53632V14.1998C1.53075 14.4113 1.70217 14.5828 1.91372 14.5828ZM7.91919 4.15326H2.65739L3.93445 2.36344H9.1962L7.91919 4.15326ZM9.55705 0.831519V1.59746H4.12031V0.831519H9.55705Z" fill="#1D2328"/>
<path d="M22.0851 14.5828C22.2966 14.5828 22.468 14.4114 22.468 14.1999V13.5635C22.468 12.7671 21.9647 12.0453 21.2155 11.7673C21.0172 11.6938 20.7968 11.7948 20.7232 11.9931C20.6496 12.1914 20.7507 12.4118 20.949 12.4854C21.3994 12.6525 21.702 13.0858 21.702 13.5635V14.1999C21.7021 14.4114 21.8736 14.5828 22.0851 14.5828Z" fill="#1D2328"/>
</g>
<defs>
<clipPath id="clip0_429_1791">
<rect width="24" height="24" fill="white"/>
</clipPath>
</defs>
</svg>
