<svg width="21" height="21" viewBox="0 0 21 21" fill="none" xmlns="http://www.w3.org/2000/svg">
<path d="M20.1933 17.3999L12.2427 1.90284C12.0601 1.55431 11.7996 1.26536 11.4869 1.06461C11.1742 0.863847 10.8203 0.75824 10.46 0.75824C10.0998 0.75824 9.74588 0.863847 9.43321 1.06461C9.12054 1.26536 8.86 1.55431 8.6774 1.90284L0.726824 17.3999C0.55182 17.7362 0.459595 18.1186 0.459595 18.5081C0.459595 18.8975 0.55182 19.28 0.726824 19.6162C0.906991 19.9672 1.16718 20.258 1.48065 20.4587C1.79412 20.6594 2.14954 20.7627 2.51038 20.7581H18.4097C18.7702 20.7623 19.1253 20.6588 19.4384 20.4582C19.7515 20.2575 20.0114 19.9669 20.1915 19.6162C20.3667 19.2802 20.4593 18.8978 20.4596 18.5084C20.4599 18.1189 20.368 17.7364 20.1933 17.3999ZM19.2469 19.003C19.162 19.167 19.0396 19.3026 18.8925 19.3958C18.7453 19.4891 18.5787 19.5366 18.4097 19.5336H2.51038C2.34141 19.5366 2.17477 19.4891 2.02762 19.3958C1.88046 19.3026 1.75811 19.167 1.67315 19.003C1.59368 18.8529 1.55173 18.6816 1.55173 18.5071C1.55173 18.3325 1.59368 18.1612 1.67315 18.0111L9.62281 2.51407C9.70972 2.35201 9.83249 2.21793 9.97919 2.12485C10.1259 2.03178 10.2915 1.98286 10.46 1.98286C10.6286 1.98286 10.7942 2.03178 10.9409 2.12485C11.0876 2.21793 11.2104 2.35201 11.2973 2.51407L19.2479 18.0111C19.3272 18.1613 19.369 18.3326 19.3688 18.5072C19.3687 18.6817 19.3266 18.853 19.2469 19.003ZM9.91462 12.7988V8.71718C9.91462 8.5548 9.97208 8.39907 10.0744 8.28425C10.1767 8.16943 10.3154 8.10493 10.46 8.10493C10.6047 8.10493 10.7434 8.16943 10.8457 8.28425C10.948 8.39907 11.0055 8.5548 11.0055 8.71718V12.7988C11.0055 12.9612 10.948 13.117 10.8457 13.2318C10.7434 13.3466 10.6047 13.4111 10.46 13.4111C10.3154 13.4111 10.1767 13.3466 10.0744 13.2318C9.97208 13.117 9.91462 12.9612 9.91462 12.7988ZM11.3691 16.4723C11.3691 16.6742 11.3158 16.8715 11.2159 17.0393C11.116 17.2071 10.974 17.3379 10.8079 17.4151C10.6418 17.4923 10.459 17.5125 10.2827 17.4732C10.1064 17.4338 9.94438 17.3366 9.81725 17.1939C9.69012 17.0512 9.60354 16.8694 9.56846 16.6714C9.53339 16.4735 9.55139 16.2683 9.62019 16.0818C9.689 15.8954 9.80551 15.736 9.95501 15.6239C10.1045 15.5118 10.2803 15.4519 10.46 15.4519C10.7011 15.4519 10.9324 15.5594 11.1028 15.7508C11.2733 15.9422 11.3691 16.2017 11.3691 16.4723Z" fill="#545454"/>
</svg>
