<svg width="100" height="100" viewBox="0 0 100 100" fill="none" xmlns="http://www.w3.org/2000/svg">
<g clip-path="url(#clip0_756_2283)">
<path d="M95.8369 0.043457H4.25043C1.96075 0.043457 0.0874023 1.9168 0.0874023 4.20649V18.3608H100V4.20649C100 1.917 98.1266 0.043457 95.8369 0.043457Z" fill="#84DBFF"/>
<path d="M99.9126 18.4814H0V76.1394H99.9126V18.4814Z" fill="#F2F2F2"/>
<path d="M9.45408 11.9086C10.9486 11.9086 12.1601 10.6971 12.1601 9.20261C12.1601 7.70811 10.9486 6.49658 9.45408 6.49658C7.95958 6.49658 6.74805 7.70811 6.74805 9.20261C6.74805 10.6971 7.95958 11.9086 9.45408 11.9086Z" fill="#40596B"/>
<path d="M17.9885 11.9086C19.483 11.9086 20.6945 10.6971 20.6945 9.20261C20.6945 7.70811 19.483 6.49658 17.9885 6.49658C16.494 6.49658 15.2825 7.70811 15.2825 9.20261C15.2825 10.6971 16.494 11.9086 17.9885 11.9086Z" fill="#4CDBC4"/>
<path d="M26.5227 11.9086C28.0172 11.9086 29.2287 10.6971 29.2287 9.20261C29.2287 7.70811 28.0172 6.49658 26.5227 6.49658C25.0282 6.49658 23.8167 7.70811 23.8167 9.20261C23.8167 10.6971 25.0282 11.9086 26.5227 11.9086Z" fill="#ACB3BA"/>
<path d="M94.7962 23.981V70.815H5.29126V70.6068L25.6901 50.208L36.9303 61.2399L63.3655 34.5965L73.7731 45.0041L94.7962 23.981Z" fill="#CDD6E0"/>
<path d="M36.9303 61.2402L63.3655 34.5968L73.7731 45.0044L94.7962 23.9813V23.5649H5.29126V70.6071L25.6901 50.2083L36.9303 61.2402Z" fill="white"/>
<path d="M94.7962 23.5649V26.8953L73.7731 47.9186L63.3655 37.7192L36.9303 64.1544L25.6901 53.1223L7.99729 70.8153H5.29126V67.6929L25.6901 47.0859L36.9303 58.3262L63.3655 31.6828L73.7731 42.0904L92.0904 23.5649H94.7962Z" fill="#F2F2F2"/>
<path d="M55.8719 85.1777H44.0073V92.0468H55.8719V85.1777Z" fill="#F05540"/>
<path d="M50.0436 86.8429C41.7175 86.8429 33.8078 83.5126 27.9796 77.6842C15.9069 65.6114 15.9069 45.629 27.9796 33.5562C33.8078 27.728 41.7175 24.3975 50.0436 24.3975C58.3697 24.3975 66.2794 27.7278 72.1076 33.5562C84.1803 45.629 84.1803 65.6114 72.1076 77.6842C66.2794 83.5124 58.3697 86.8429 50.0436 86.8429Z" fill="#41596B"/>
<path d="M67.7367 73.3127C62.9491 78.1002 56.7046 80.5979 50.0439 80.5979C43.3832 80.5979 37.1385 77.8919 32.3511 73.3127C27.5636 68.5252 25.0659 62.0726 25.0659 55.8281C25.0659 54.9954 25.0659 54.3711 25.0659 53.7466C25.2741 52.2896 25.4823 51.0405 25.6904 49.5835C25.8986 48.959 25.8986 48.5429 26.1068 47.9184C27.3556 44.3798 29.2289 41.0493 32.1431 38.1353C36.9307 33.3478 43.1752 30.8501 49.8359 30.8501C53.999 30.8501 57.9538 31.8908 61.4923 33.7643C61.9087 33.9725 62.325 34.1806 62.7412 34.597C63.99 35.4297 65.239 36.2622 66.2797 37.0948C66.696 37.5112 67.1124 37.9275 67.5285 38.1355C67.9449 38.5518 68.153 38.76 68.5694 39.1764C70.8591 41.8824 72.5242 44.7964 73.5651 47.9188C73.7733 48.5433 73.9814 48.9594 73.9814 49.5839C76.2707 57.7014 74.1894 66.8602 67.7367 73.3127Z" fill="#F2F2F2"/>
<path d="M63.3654 34.5967L71.067 42.2982C70.4425 41.0494 69.61 40.0085 68.5691 38.9679C68.1528 38.5515 67.9446 38.1352 67.5283 37.927C67.1119 37.5107 66.6956 37.0943 66.2794 36.8863C65.2388 35.8457 63.9898 35.013 62.7409 34.3885C62.3246 34.1803 61.9082 33.764 61.4921 33.5558C57.9536 31.6825 53.9987 30.6416 49.8357 30.6416C43.1748 30.6416 36.9303 33.1395 32.1429 37.9268C29.2287 40.841 27.3554 44.1714 26.1065 47.7099C26.1065 48.3344 26.1065 48.9587 25.8984 49.375C25.8984 49.5832 25.8984 49.7914 25.6902 49.9996L36.7223 61.0316L63.3654 34.5967Z" fill="white"/>
<path d="M32.3508 73.3128C37.1383 78.1003 43.3829 80.598 50.0436 80.598C56.7043 80.598 62.949 77.892 67.7364 73.3128C68.5691 72.4801 69.1934 71.6476 69.8179 70.8149H30.2693C30.8938 71.6476 31.5181 72.4803 32.3508 73.3128Z" fill="#F2F2F2"/>
<path d="M74.1894 49.5838C73.9812 48.9592 73.9812 48.3349 73.7731 47.9186C73.1485 46.0452 72.3161 44.1719 71.2752 42.5067L63.5736 34.8052L36.9303 61.2402L25.8982 50.2081C25.69 51.2489 25.4819 52.4978 25.2737 53.5384C25.2737 54.1629 25.2737 54.9954 25.2737 55.6199C25.2737 61.0318 26.9389 66.2357 30.4774 70.8151H70.0262C74.6055 64.5707 76.0627 56.661 74.1894 49.5838Z" fill="#CDD6E0"/>
<path d="M60.8676 99.9562H39.22V94.3362C39.22 92.2547 40.8851 90.3813 43.1748 90.3813H57.3291C59.4106 90.3813 61.284 92.0465 61.284 94.3362V99.9562H60.8676Z" fill="#FFD05C"/>
<path d="M74.1894 49.5836L73.773 49.9999L63.5736 39.8005L36.9303 66.2357L25.6902 55.2036L25.0657 55.8281C25.0657 54.9955 25.0657 54.3711 25.0657 53.7466C25.2738 52.2896 25.482 51.0406 25.6902 49.5836L36.7223 60.6157L62.9493 34.3887L68.7775 39.1762C71.0672 41.8822 72.7324 44.7962 73.7732 47.9186C73.9812 48.3348 73.9812 48.9591 74.1894 49.5836Z" fill="#F2F2F2"/>
<path d="M73.773 47.9186L63.3654 37.7192L36.9303 64.1544L25.6902 53.1223L25.0657 53.7468C25.2738 52.2898 25.482 51.0408 25.6902 49.5838C25.8984 48.9592 25.8984 48.5429 26.1065 47.9186L36.5141 58.3262L61.2841 33.5562C61.7005 33.7643 62.1168 33.9725 62.533 34.3888C63.7818 35.2215 65.0308 36.054 66.0715 36.8867C66.4878 37.303 66.9042 37.7194 67.3203 37.9274C67.7366 38.3437 67.9448 38.5519 68.361 38.9682C71.067 41.674 72.7322 44.7962 73.773 47.9186Z" fill="#F2F2F2"/>
</g>
<defs>
<clipPath id="clip0_756_2283">
<rect width="100" height="100" fill="white"/>
</clipPath>
</defs>
</svg>
