<svg width="194" height="194" viewBox="0 0 194 194" fill="none" xmlns="http://www.w3.org/2000/svg">
<path d="M145.034 86.9779C144.4 86.6723 143.67 86.631 143.005 86.8631C142.34 87.0951 141.795 87.5816 141.488 88.2157C138.255 94.8724 133.219 100.488 126.953 104.424C120.686 108.36 113.44 110.458 106.04 110.479H105.819C84.2658 110.359 66.736 92.4565 66.736 70.5772V67.1938C66.7319 64.4161 65.8734 61.7068 64.277 59.4337C62.6805 57.1605 60.4235 55.4334 57.812 54.4868L46.3582 50.374C45.7014 50.1622 44.988 50.2141 44.3688 50.5188C43.7496 50.8235 43.2732 51.3571 43.0403 52.0067C42.8075 52.6564 42.8365 53.3711 43.1211 53.9998C43.4058 54.6285 43.9238 55.1218 44.5657 55.3754L56.0156 59.4843L56.3803 59.6317C56.3803 59.6317 61.5329 60.9044 65.2306 68.7303C63.979 66.6453 62.3594 64.8048 60.4504 63.2983C61.0978 64.4892 61.4379 65.8228 61.4398 67.1783V70.5617C61.4398 95.3549 81.3442 115.636 105.811 115.775H106.064C114.457 115.748 122.675 113.368 129.783 108.904C136.891 104.44 142.605 98.0727 146.276 90.5243C146.581 89.8893 146.622 89.1591 146.389 88.4941C146.156 87.8291 145.669 87.2838 145.034 86.9779Z" fill="url(#paint0_linear_2_198)"/>
<path d="M133.755 127.982C133.466 127.983 133.179 127.935 132.906 127.842C123.917 125.151 114.585 123.78 105.202 123.772C89.8104 123.772 80.1414 127.745 80.0444 127.784C79.3941 128.057 78.662 128.06 78.0093 127.793C77.3566 127.526 76.8367 127.01 76.564 126.36C76.2914 125.71 76.2882 124.978 76.5552 124.325C76.8223 123.672 77.3377 123.152 77.988 122.88C78.4187 122.697 88.7472 118.453 105.195 118.453C121.545 118.453 134.073 122.635 134.601 122.814C135.198 123.015 135.703 123.422 136.027 123.962C136.351 124.502 136.472 125.139 136.37 125.76C136.267 126.382 135.947 126.946 135.467 127.353C134.986 127.76 134.377 127.983 133.747 127.982H133.755Z" fill="url(#paint1_linear_2_198)"/>
<path d="M129.887 71.4385C124.668 67.6982 118.092 66.1307 111.67 66.3169C105.228 66.5713 98.9069 68.144 93.0967 70.938C101.722 66.8795 111.115 64.0743 120.668 64.4778C126.464 64.6904 132.123 66.2968 137.166 69.161C136.516 68.0099 135.744 66.9316 134.865 65.9445C134.69 65.7505 134.512 65.5565 134.329 65.3702C129.724 60.6289 123.054 58.1573 116.419 57.8391C109.785 57.521 103.173 59.2127 97.0854 61.8472C92.8174 63.6785 88.6696 65.9988 84.0641 66.5032C79.4585 67.0076 74.5464 65.0094 73.0061 60.6832C71.3578 65.1827 70.6475 69.9718 70.9186 74.7559C71.9274 92.9919 87.0439 107.499 105.295 107.814C112.08 107.934 118.754 106.081 124.506 102.482C130.259 98.8827 134.842 93.6908 137.701 87.5367C138.094 86.6911 138.43 85.82 138.706 84.9293C137.709 79.54 134.361 74.6434 129.887 71.4385Z" fill="url(#paint2_linear_2_198)"/>
<path style="mix-blend-mode:overlay" opacity="0.3" d="M129.887 71.4386C124.668 67.6982 118.092 66.1307 111.67 66.317C109.911 66.3712 108.156 66.5344 106.417 66.8058C105.642 67.1861 104.949 67.7132 104.376 68.3578C103.402 69.5218 102.956 71.198 103.6 72.5715C104.244 73.945 105.901 74.7521 107.48 74.8685C109.059 74.9849 110.607 74.593 112.167 74.3563C113.727 74.1196 115.391 74.0498 116.8 74.7443C119.19 75.9432 120.051 78.9386 120.109 81.6119C120.183 84.9487 119.333 88.3903 117.254 90.9938C115.174 93.5972 111.717 95.2113 108.434 94.6216C105.358 94.0706 102.925 91.8047 100.422 89.9268C97.7993 87.9596 94.7768 86.2951 91.4982 86.1748C88.2196 86.0545 84.7081 87.8626 83.7149 90.986C83.2066 92.5807 83.2105 94.6138 81.7749 95.4441C81.3972 95.6311 80.9827 95.7319 80.5613 95.7393C80.14 95.7466 79.7222 95.6604 79.3382 95.4868C83.1457 99.9534 88.0153 103.391 93.4991 105.483C98.9828 107.575 104.905 108.255 110.72 107.459C116.535 106.663 122.056 104.418 126.777 100.93C131.497 97.4422 135.264 92.8231 137.732 87.4979C138.125 86.6523 138.461 85.7812 138.737 84.8905C137.709 79.54 134.361 74.6434 129.887 71.4386Z" fill="url(#paint3_linear_2_198)"/>
<path d="M132.254 52.38C131.683 50.1645 130.876 47.9335 129.309 46.2651C127.314 44.1389 124.265 43.1921 121.343 43.4172C118.421 43.6422 115.686 44.9498 113.381 46.7385C110.316 45.5395 106.611 46.6609 104.318 49.0199C103.187 50.2221 102.425 51.7236 102.122 53.3461C101.82 54.9686 101.989 56.6438 102.61 58.1728C107.018 55.9612 113.087 55.4297 119.182 56.291C124.711 57.067 129.235 59.2398 133.46 62.887C133.545 59.3458 133.138 55.8099 132.254 52.38ZM127.792 47.6929C126.738 46.6205 125.417 45.8478 123.966 45.4542C122.555 45.0688 121.079 44.9816 119.632 45.1981C120.771 44.7433 122 44.5628 123.222 44.6715C124.443 44.7801 125.621 45.1747 126.662 45.8234C127.702 46.472 128.575 47.3565 129.21 48.4052C129.845 49.454 130.225 50.6375 130.318 51.8601C129.623 50.3119 128.956 48.888 127.792 47.6813V47.6929Z" fill="url(#paint4_linear_2_198)"/>
<path d="M113.595 45.7064C112.997 40.0299 114.759 37.0695 117.762 34.8424C116.852 34.6003 115.898 34.5724 114.976 34.7609C113.694 36.2575 112.828 38.0654 112.466 40.0028C112.114 41.9226 112.278 43.9012 112.939 45.7374C113.125 45.7103 113.409 45.7297 113.595 45.7064Z" fill="url(#paint5_linear_2_198)"/>
<path d="M126.95 53.7341C125.371 52.8728 124.013 51.6467 122.414 50.828C120.815 50.0093 118.79 49.664 117.269 50.6185C116.423 51.15 115.849 52.0075 115.24 52.8029C114.631 53.5983 113.913 54.3821 112.951 54.6537C111.988 54.9253 110.758 54.4636 110.545 53.4897C110.316 52.4343 111.302 51.4954 111.418 50.4245C111.534 49.3536 110.708 48.3526 109.699 47.9917C108.662 47.6889 107.55 47.766 106.564 48.209C105.722 48.5465 104.946 49.0298 104.271 49.6368C103.593 50.2465 103.02 50.9635 102.576 51.7592C101.762 53.8194 101.775 56.1138 102.61 58.1651C107.018 55.9535 113.086 55.4219 119.182 56.2833C124.711 57.0593 129.235 59.2321 133.46 62.8793C133.531 59.8742 133.248 56.8712 132.618 53.932C132.452 54.0508 132.279 54.1584 132.098 54.254C130.5 55.0611 128.525 54.5955 126.95 53.7341Z" fill="url(#paint6_linear_2_198)"/>
<path d="M89.5931 43.3202C88.2952 41.9239 86.8945 40.627 85.4027 39.4402C83.9152 38.2473 82.1757 37.4087 80.316 36.988C80.5425 36.5076 80.8766 36.0859 81.2924 35.7555C81.7083 35.4251 82.1947 35.195 82.7138 35.0829C84.501 35.995 86.1583 37.142 87.6414 38.4935C88.1198 40.1668 88.7739 41.7847 89.5931 43.3202Z" fill="url(#paint7_linear_2_198)"/>
<path d="M89.8065 43.1805C88.9043 41.6588 88.2704 39.9933 87.9324 38.2568C87.6211 36.5896 87.4099 34.9052 87.3 33.2128C88.0399 32.8691 88.8401 32.674 89.6552 32.6385C89.3079 34.268 89.3079 35.9523 89.6552 37.5817C89.9915 39.2148 90.4414 40.8224 91.0015 42.3929C90.5779 42.615 90.1776 42.8788 89.8065 43.1805Z" fill="url(#paint8_linear_2_198)"/>
<path d="M102.502 46.948C101.631 47.0859 100.779 47.3269 99.9643 47.6658C100.648 47.0794 101.43 46.6172 102.273 46.3C102.044 45.6482 101.811 44.9964 101.586 44.3251C101.276 43.4017 100.942 42.4394 100.236 41.7682C99.5771 41.1868 98.7391 40.8486 97.8613 40.8098C96.9892 40.7767 96.1176 40.8868 95.2811 41.1358C92.6203 41.8453 90.1604 43.1629 88.0954 44.9847C87.0866 45.8771 86.1554 46.948 85.8489 48.2594C85.6567 49.2741 85.7632 50.3227 86.1554 51.2781C86.3896 51.8796 86.6752 52.4599 87.009 53.0124C88.2581 51.8682 89.7753 51.0569 91.4205 50.6534C89.8045 51.3775 88.5078 52.6659 87.7733 54.2773C88.9102 56.1087 90.0509 57.878 91.1877 59.6666C92.7481 58.4501 94.5414 57.5667 96.4568 57.0709C95.3934 57.6026 94.3861 58.2395 93.4498 58.9721C92.8258 59.4835 92.2999 60.104 91.8978 60.8035C92.1927 61.2691 92.4875 61.7386 92.7824 62.2158C95.1745 60.6659 97.8092 59.5275 100.577 58.848C100.121 57.0431 100.103 55.1552 100.526 53.3421C100.949 51.5291 101.799 49.8435 103.006 48.4263C102.847 47.9102 102.676 47.4214 102.502 46.948Z" fill="url(#paint9_linear_2_198)"/>
<path d="M102.502 46.948C101.631 47.0859 100.779 47.3268 99.9643 47.6658C100.648 47.0794 101.43 46.6172 102.273 46.3C102.044 45.6482 101.811 44.9963 101.586 44.3251C101.586 44.2824 101.555 44.2397 101.543 44.1971C100.506 43.9328 99.4188 43.9328 98.3813 44.1971C97.6978 44.3757 97.0718 44.7273 96.5635 45.2179C96.0552 45.7085 95.6818 46.3217 95.479 46.9984C95.1259 48.3642 95.77 49.9744 97.031 50.5603C97.5548 50.8008 98.195 50.8901 98.583 51.3169C99.0991 51.8872 98.9283 52.8456 98.4045 53.4082C97.8347 53.9291 97.1256 54.2729 96.3637 54.3976C95.6044 54.5197 94.8687 54.7592 94.1831 55.1076C93.5274 55.4956 93.0191 56.2716 93.1549 57.0127C93.2526 57.4183 93.4785 57.7816 93.799 58.0487C94.6492 57.636 95.5382 57.3085 96.4529 57.0709C95.685 57.4705 94.939 57.9109 94.218 58.3901C94.3305 58.4755 94.447 58.5569 94.5595 58.6345C95.1609 59.0497 95.8127 59.558 95.9058 60.2874C95.9097 60.3572 95.9097 60.4272 95.9058 60.4969C97.3931 59.7793 98.9544 59.2264 100.562 58.8479C100.106 57.0431 100.088 55.1552 100.511 53.3421C100.933 51.529 101.784 49.8434 102.991 48.4263C102.847 47.9102 102.676 47.4213 102.502 46.948Z" fill="url(#paint10_linear_2_198)"/>
<path d="M91.6447 138.582C94.0691 136.157 94.0691 132.227 91.6447 129.802C89.2204 127.378 85.2897 127.378 82.8653 129.802C80.4409 132.227 80.4409 136.157 82.8653 138.582C85.2897 141.006 89.2204 141.006 91.6447 138.582Z" fill="url(#paint11_linear_2_198)"/>
<path style="mix-blend-mode:screen" opacity="0.58" d="M82.9932 135.354C82.9933 134.456 83.2126 133.572 83.6319 132.779C84.0512 131.985 84.6578 131.306 85.3992 130.8C86.1406 130.294 86.9942 129.977 87.886 129.876C88.7778 129.775 89.6808 129.893 90.5165 130.221C89.5096 129.349 88.2035 128.902 86.8736 128.975C85.5438 129.048 84.2942 129.634 83.3883 130.61C82.4824 131.587 81.9911 132.877 82.018 134.208C82.045 135.54 82.588 136.809 83.5325 137.748C83.1733 137.001 82.9888 136.182 82.9932 135.354Z" fill="url(#paint12_radial_2_198)"/>
<path d="M129.917 138.582C132.341 136.158 132.341 132.227 129.917 129.803C127.492 127.378 123.562 127.378 121.137 129.803C118.713 132.227 118.713 136.158 121.137 138.582C123.562 141.007 127.492 141.007 129.917 138.582Z" fill="url(#paint13_linear_2_198)"/>
<path style="mix-blend-mode:screen" opacity="0.58" d="M121.223 135.354C121.222 134.456 121.441 133.573 121.86 132.779C122.279 131.985 122.885 131.306 123.626 130.8C124.367 130.294 125.221 129.977 126.112 129.876C127.004 129.775 127.907 129.893 128.742 130.221C127.735 129.349 126.429 128.902 125.099 128.975C123.77 129.048 122.52 129.634 121.614 130.61C120.708 131.587 120.217 132.877 120.244 134.208C120.271 135.54 120.814 136.809 121.758 137.748C121.402 137 121.219 136.182 121.223 135.354Z" fill="url(#paint14_radial_2_198)"/>
<path d="M63.3371 161.125V147.3H58.3552V146.078C58.3542 145.847 58.3989 145.618 58.4869 145.404C58.5749 145.191 58.7043 144.996 58.8677 144.833C59.0311 144.67 59.2253 144.54 59.439 144.452C59.6527 144.364 59.8817 144.319 60.1128 144.32H71.7528V147.3H66.8058V161.125H63.3371Z" fill="url(#paint15_linear_2_198)"/>
<path d="M74.7016 154.323L74.2089 153.691C73.9719 153.424 73.7923 153.111 73.6812 152.771C73.5639 152.48 73.5034 152.169 73.5027 151.855C73.4817 151.465 73.5501 151.075 73.7027 150.716C73.8554 150.356 74.0882 150.036 74.3835 149.78C74.6934 149.5 75.0555 149.284 75.4491 149.145C75.8426 149.006 76.2598 148.946 76.6766 148.969C77.4724 148.925 78.2545 149.189 78.861 149.706C79.1322 149.948 79.3458 150.248 79.4861 150.584C79.6264 150.92 79.6899 151.283 79.6719 151.646C79.6842 152.231 79.5251 152.807 79.2141 153.303C78.8032 153.846 78.2873 154.301 77.697 154.641L79.4585 156.791C79.6103 156.508 79.7401 156.213 79.8465 155.91C79.9164 155.464 79.9746 155.087 80.025 154.781H81.2938C81.6818 154.781 81.8913 154.89 81.9611 155.099C82.0285 155.291 82.0524 155.495 82.031 155.697C81.9611 156.028 81.868 156.381 81.7516 156.756C81.4881 157.356 81.1561 157.924 80.7622 158.448L82.9816 161.125H80.1647L79.3538 160.104C79.1067 160.329 78.8477 160.54 78.5778 160.737C78.3357 160.918 78.0601 161.05 77.7668 161.125C76.9685 161.29 76.1503 161.339 75.338 161.268C74.5551 161.22 73.8049 160.937 73.1846 160.457C72.8439 160.131 72.5769 159.735 72.4016 159.297C72.2263 158.858 72.1466 158.388 72.168 157.916C72.1506 157.205 72.3466 156.505 72.7306 155.906C73.2602 155.237 73.9339 154.696 74.7016 154.323ZM75.9006 155.805L75.272 156.263C75.0348 156.424 74.8414 156.641 74.7094 156.896C74.5698 157.156 74.4978 157.446 74.4999 157.741C74.4981 157.959 74.5409 158.174 74.6257 158.374C74.7104 158.575 74.8353 158.755 74.9926 158.905C75.1473 159.065 75.3332 159.192 75.5388 159.276C75.7444 159.361 75.9653 159.403 76.1877 159.398C76.5393 159.394 76.8869 159.323 77.212 159.189C77.5434 159.035 77.8424 158.819 78.0928 158.552L75.9006 155.805ZM76.533 153.233L76.8512 153.019C77.0805 152.864 77.2726 152.66 77.4138 152.422C77.5563 152.188 77.6302 151.919 77.6272 151.646C77.6332 151.52 77.6109 151.394 77.5619 151.278C77.5129 151.162 77.4384 151.058 77.3439 150.975C77.1433 150.816 76.8952 150.73 76.6397 150.73C76.3842 150.73 76.1361 150.816 75.9355 150.975C75.8447 151.061 75.7726 151.165 75.7239 151.281C75.6752 151.396 75.6508 151.521 75.6522 151.646C75.6724 151.817 75.7209 151.984 75.7958 152.139C75.8177 152.254 75.8655 152.363 75.9355 152.457L76.145 152.736L76.533 153.233Z" fill="url(#paint16_linear_2_198)"/>
<path d="M88.495 161.125V147.3H83.5131V146.078C83.5121 145.847 83.5568 145.618 83.6448 145.404C83.7328 145.191 83.8622 144.996 84.0256 144.833C84.189 144.67 84.3832 144.54 84.5969 144.452C84.8106 144.364 85.0396 144.319 85.2707 144.32H96.9107V147.3H91.956V161.125H88.495Z" fill="url(#paint17_linear_2_198)"/>
<path d="M102.071 161.125V146.078C102.071 145.847 102.116 145.618 102.204 145.404C102.293 145.19 102.422 144.996 102.586 144.833C102.75 144.669 102.944 144.54 103.158 144.452C103.372 144.364 103.601 144.319 103.833 144.32H114.285V147.203H105.493V150.819H112.039V151.941C112.04 152.172 111.995 152.401 111.907 152.615C111.819 152.828 111.69 153.023 111.526 153.186C111.363 153.349 111.169 153.479 110.955 153.567C110.741 153.655 110.512 153.699 110.281 153.698H105.493V161.125H102.071Z" fill="url(#paint18_linear_2_198)"/>
<path d="M116.485 159.953C115.772 159.326 115.261 158.501 115.019 157.582C114.723 156.574 114.575 155.529 114.58 154.478C114.581 153.586 114.704 152.699 114.945 151.84C115.158 151.027 115.557 150.274 116.109 149.64C116.944 148.671 118.113 148.052 119.384 147.906C120.595 147.715 121.835 147.821 122.996 148.216C124.202 148.677 125.183 149.588 125.731 150.757C126.307 151.925 126.592 153.215 126.562 154.517C126.58 155.425 126.465 156.331 126.22 157.206C126.026 157.882 125.731 158.524 125.343 159.111C124.64 160.132 123.575 160.848 122.364 161.113C121.303 161.407 120.185 161.432 119.112 161.187C118.145 161.01 117.239 160.585 116.485 159.953ZM118.813 151.355C118.13 152.105 117.821 153.221 117.886 154.703C117.951 156.186 118.227 157.22 118.716 157.807C118.988 158.12 119.343 158.349 119.741 158.467C120.219 158.644 120.742 158.662 121.231 158.517C121.809 158.329 122.299 157.936 122.608 157.412C122.999 156.827 123.211 155.883 123.244 154.579C123.244 153.407 123.057 152.528 122.682 151.941C122.395 151.428 121.938 151.031 121.39 150.819C120.916 150.656 120.402 150.646 119.923 150.792C119.518 150.889 119.143 151.082 118.829 151.355H118.813Z" fill="url(#paint19_linear_2_198)"/>
<path d="M128.696 159.953C127.985 159.325 127.476 158.5 127.233 157.582C126.936 156.575 126.787 155.529 126.791 154.478C126.799 153.585 126.93 152.698 127.179 151.84C127.39 151.026 127.789 150.273 128.343 149.64C129.177 148.672 130.344 148.053 131.614 147.906C132.827 147.717 134.068 147.826 135.23 148.224C136.436 148.685 137.417 149.596 137.965 150.765C138.541 151.933 138.825 153.223 138.795 154.525C138.812 155.433 138.697 156.339 138.454 157.214C138.259 157.89 137.962 158.532 137.573 159.119C136.871 160.141 135.805 160.857 134.593 161.121C133.534 161.415 132.418 161.44 131.346 161.195C130.369 161.018 129.456 160.59 128.696 159.953ZM131.043 151.355C130.356 152.104 130.05 153.221 130.112 154.703C130.174 156.186 130.457 157.218 130.942 157.807C131.216 158.119 131.573 158.348 131.97 158.467C132.449 158.644 132.971 158.662 133.46 158.517C134.025 158.322 134.501 157.931 134.803 157.415C135.191 156.83 135.404 155.887 135.439 154.583C135.439 153.419 135.249 152.531 134.877 151.945C134.587 151.432 134.129 151.036 133.581 150.823C133.108 150.66 132.596 150.65 132.118 150.796C131.72 150.894 131.352 151.086 131.043 151.355Z" fill="url(#paint20_linear_2_198)"/>
<path d="M147.894 144.274H149.558C149.778 144.272 149.995 144.317 150.195 144.405C150.396 144.494 150.576 144.623 150.722 144.786C150.877 144.938 151 145.119 151.084 145.319C151.168 145.519 151.211 145.733 151.211 145.95V155.475C151.211 157.788 150.543 159.35 149.205 160.163C147.9 160.969 146.394 161.393 144.86 161.385C144.012 161.384 143.171 161.244 142.369 160.97C141.604 160.723 140.929 160.256 140.429 159.627C139.486 158.42 139.013 156.779 139.013 154.692C139.013 152.604 139.486 150.998 140.429 149.76C141.095 148.873 142.049 148.246 143.128 147.987C144.206 147.728 145.342 147.853 146.338 148.34C146.968 148.717 147.499 149.236 147.89 149.857L147.894 144.274ZM142.326 154.529C142.326 155.822 142.571 156.817 143.059 157.512C143.295 157.846 143.611 158.115 143.978 158.294C144.345 158.473 144.751 158.557 145.159 158.537C145.559 158.553 145.958 158.468 146.316 158.288C146.675 158.109 146.983 157.842 147.211 157.512C147.669 156.826 147.894 155.832 147.894 154.529C147.946 153.548 147.691 152.576 147.165 151.747C146.916 151.43 146.596 151.176 146.23 151.006C145.865 150.836 145.464 150.755 145.062 150.769C144.668 150.757 144.278 150.845 143.928 151.025C143.578 151.205 143.279 151.471 143.059 151.797C142.525 152.604 142.268 153.563 142.326 154.529Z" fill="url(#paint21_linear_2_198)"/>
<path d="M90.3807 63.1082C90.3807 62.3943 90.3419 61.6687 90.2837 60.9354C87.7292 57.2428 85.9161 53.0894 84.9448 48.7056C82.56 46.4286 79.63 44.8026 76.436 43.9837C76.436 43.9837 72.9711 49.1635 73.7821 55.8254C75.0794 56.166 76.4523 56.0747 77.6931 55.5655C80.5022 54.4015 82.0154 51.4876 81.3287 48.7677C81.4546 48.9879 81.566 49.216 81.6623 49.4506C82.8457 52.3528 81.3248 55.7168 78.2635 56.9662C77.702 57.1969 77.1099 57.3446 76.5058 57.4046C75.2138 57.5326 74.624 58.8014 74.8801 60.074C74.9616 60.462 74.9383 60.3456 74.9422 60.3573C75.0081 61.0363 75.8811 62.6077 76.4554 62.8793C76.467 62.8832 83.42 66.4722 90.3807 63.1082ZM78.5506 49.0859C78.395 49.1492 78.2242 49.165 78.0597 49.1313C77.8951 49.0976 77.7443 49.0159 77.6261 48.8966C77.508 48.7772 77.4279 48.6254 77.3959 48.4606C77.364 48.2957 77.3816 48.125 77.4466 47.9701C77.5116 47.8153 77.621 47.6831 77.761 47.5904C77.9011 47.4977 78.0655 47.4485 78.2334 47.4492C78.4014 47.4498 78.5654 47.5002 78.7047 47.594C78.844 47.6878 78.9524 47.8208 79.0162 47.9762C79.0586 48.0796 79.0803 48.1904 79.0798 48.3022C79.0794 48.414 79.0569 48.5246 79.0137 48.6277C78.9704 48.7307 78.9073 48.8243 78.8278 48.9029C78.7483 48.9815 78.6541 49.0437 78.5506 49.0859Z" fill="url(#paint22_linear_2_198)"/>
<defs>
<linearGradient id="paint0_linear_2_198" x1="42.7809" y1="83.0048" x2="146.536" y2="83.0048" gradientUnits="userSpaceOnUse">
<stop stop-color="#FF014A"/>
<stop offset="1" stop-color="#FABD3F"/>
</linearGradient>
<linearGradient id="paint1_linear_2_198" x1="76.3662" y1="123.217" x2="136.413" y2="123.217" gradientUnits="userSpaceOnUse">
<stop stop-color="#FF014A"/>
<stop offset="1" stop-color="#FABD3F"/>
</linearGradient>
<linearGradient id="paint2_linear_2_198" x1="97.9506" y1="54.8709" x2="111.76" y2="97.7682" gradientUnits="userSpaceOnUse">
<stop stop-color="#A2D646"/>
<stop offset="1" stop-color="#099400"/>
</linearGradient>
<linearGradient id="paint3_linear_2_198" x1="66.7709" y1="77.0995" x2="137.779" y2="93.7408" gradientUnits="userSpaceOnUse">
<stop stop-color="#A2D646"/>
<stop offset="1" stop-color="#099400"/>
</linearGradient>
<linearGradient id="paint4_linear_2_198" x1="101.97" y1="53.1249" x2="133.472" y2="53.1249" gradientUnits="userSpaceOnUse">
<stop stop-color="#FF014A"/>
<stop offset="1" stop-color="#FABD3F"/>
</linearGradient>
<linearGradient id="paint5_linear_2_198" x1="113.738" y1="32.1458" x2="116.303" y2="45.6909" gradientUnits="userSpaceOnUse">
<stop stop-color="#FF014A"/>
<stop offset="1" stop-color="#FABD3F"/>
</linearGradient>
<linearGradient id="paint6_linear_2_198" x1="102.929" y1="51.8135" x2="133.332" y2="60.043" gradientUnits="userSpaceOnUse">
<stop stop-color="#FF014A"/>
<stop offset="1" stop-color="#FABD3F"/>
</linearGradient>
<linearGradient id="paint7_linear_2_198" x1="83.4937" y1="32.398" x2="85.7829" y2="44.4842" gradientUnits="userSpaceOnUse">
<stop stop-color="#A2D646"/>
<stop offset="1" stop-color="#099400"/>
</linearGradient>
<linearGradient id="paint8_linear_2_198" x1="87.7772" y1="30.0816" x2="90.3303" y2="43.5763" gradientUnits="userSpaceOnUse">
<stop stop-color="#A2D646"/>
<stop offset="1" stop-color="#099400"/>
</linearGradient>
<linearGradient id="paint9_linear_2_198" x1="87.3892" y1="42.5946" x2="100.399" y2="55.9729" gradientUnits="userSpaceOnUse">
<stop stop-color="#FF014A"/>
<stop offset="1" stop-color="#FABD3F"/>
</linearGradient>
<linearGradient id="paint10_linear_2_198" x1="77.2236" y1="45.1089" x2="100.337" y2="52.8689" gradientUnits="userSpaceOnUse">
<stop stop-color="white"/>
<stop offset="1" stop-color="white" stop-opacity="0"/>
</linearGradient>
<linearGradient id="paint11_linear_2_198" x1="81.0466" y1="134.195" x2="93.4626" y2="134.195" gradientUnits="userSpaceOnUse">
<stop stop-color="#FF014A"/>
<stop offset="1" stop-color="#FABD3F"/>
</linearGradient>
<radialGradient id="paint12_radial_2_198" cx="0" cy="0" r="1" gradientUnits="userSpaceOnUse" gradientTransform="translate(82.8574 128.261) scale(7.94624 7.94624)">
<stop stop-color="#E8E9E9"/>
<stop offset="1" stop-color="#E8E9E9"/>
</radialGradient>
<linearGradient id="paint13_linear_2_198" x1="119.318" y1="134.195" x2="131.734" y2="134.195" gradientUnits="userSpaceOnUse">
<stop stop-color="#FF014A"/>
<stop offset="1" stop-color="#FABD3F"/>
</linearGradient>
<radialGradient id="paint14_radial_2_198" cx="0" cy="0" r="1" gradientUnits="userSpaceOnUse" gradientTransform="translate(121.087 128.261) scale(7.94624 7.94624)">
<stop stop-color="#E8E9E9"/>
<stop offset="1" stop-color="#E8E9E9"/>
</radialGradient>
<linearGradient id="paint15_linear_2_198" x1="65.0482" y1="144.32" x2="65.0482" y2="161.125" gradientUnits="userSpaceOnUse">
<stop stop-color="#A2D646"/>
<stop offset="1" stop-color="#099400"/>
</linearGradient>
<linearGradient id="paint16_linear_2_198" x1="77.5728" y1="148.969" x2="77.5728" y2="161.299" gradientUnits="userSpaceOnUse">
<stop stop-color="#A2D646"/>
<stop offset="1" stop-color="#099400"/>
</linearGradient>
<linearGradient id="paint17_linear_2_198" x1="90.2061" y1="144.32" x2="90.2061" y2="161.125" gradientUnits="userSpaceOnUse">
<stop stop-color="#A2D646"/>
<stop offset="1" stop-color="#099400"/>
</linearGradient>
<linearGradient id="paint18_linear_2_198" x1="108.178" y1="161.125" x2="108.178" y2="144.32" gradientUnits="userSpaceOnUse">
<stop stop-color="#FF014A"/>
<stop offset="1" stop-color="#FABD3F"/>
</linearGradient>
<linearGradient id="paint19_linear_2_198" x1="120.563" y1="161.365" x2="120.563" y2="147.828" gradientUnits="userSpaceOnUse">
<stop stop-color="#FF014A"/>
<stop offset="1" stop-color="#FABD3F"/>
</linearGradient>
<linearGradient id="paint20_linear_2_198" x1="132.778" y1="161.365" x2="132.778" y2="147.828" gradientUnits="userSpaceOnUse">
<stop stop-color="#FF014A"/>
<stop offset="1" stop-color="#FABD3F"/>
</linearGradient>
<linearGradient id="paint21_linear_2_198" x1="145.112" y1="161.369" x2="145.112" y2="144.274" gradientUnits="userSpaceOnUse">
<stop stop-color="#FF014A"/>
<stop offset="1" stop-color="#FABD3F"/>
</linearGradient>
<linearGradient id="paint22_linear_2_198" x1="85.2901" y1="62.3826" x2="78.1315" y2="52.3102" gradientUnits="userSpaceOnUse">
<stop stop-color="#118ACE"/>
<stop offset="1" stop-color="#2BE1F9"/>
</linearGradient>
</defs>
</svg>
