<svg width="105" height="56" viewBox="0 0 105 56" fill="none" xmlns="http://www.w3.org/2000/svg">
<rect x="0.5" y="0.5" width="104" height="55" rx="7.5" fill="white" stroke="#E8ECF4"/>
<path d="M43.4201 30.4656L42.5974 33.537L39.5903 33.6006C38.6916 31.9338 38.1818 30.0267 38.1818 28C38.1818 26.0403 38.6584 24.1922 39.5032 22.565H39.5039L42.1811 23.0558L43.3538 25.7169C43.1084 26.4325 42.9746 27.2007 42.9746 28C42.9747 28.8676 43.1318 29.6988 43.4201 30.4656Z" fill="#FBBB00"/>
<path d="M61.6117 25.7922C61.7474 26.5071 61.8182 27.2454 61.8182 28C61.8182 28.8461 61.7292 29.6714 61.5598 30.4675C60.9845 33.1766 59.4812 35.5422 57.3987 37.2162L57.3981 37.2155L54.026 37.0435L53.5488 34.0642C54.9306 33.2539 56.0105 31.9857 56.5793 30.4675H50.2598V25.7922H56.6715H61.6117Z" fill="#518EF8"/>
<path d="M57.3981 37.2156L57.3987 37.2163C55.3734 38.8442 52.8006 39.8182 50 39.8182C45.4994 39.8182 41.5864 37.3026 39.5903 33.6007L43.4201 30.4656C44.4182 33.1292 46.9877 35.0254 50 35.0254C51.2948 35.0254 52.5078 34.6753 53.5487 34.0643L57.3981 37.2156Z" fill="#28B446"/>
<path d="M57.5436 18.9026L53.715 22.037C52.6377 21.3636 51.3643 20.9746 50.0001 20.9746C46.9195 20.9746 44.302 22.9577 43.3539 25.7169L39.5039 22.5649H39.5033C41.4702 18.7727 45.4325 16.1818 50.0001 16.1818C52.8676 16.1818 55.4968 17.2033 57.5436 18.9026Z" fill="#F14336"/>
</svg>
